<mxfile host="app.diagrams.net" modified="2022-10-23T10:05:20.782Z" agent="5.0 (Windows)" etag="oFmQ5xrSoPrqA1nAtHM8" version="20.4.1" type="github">
  <diagram id="C5RBs43oDa-KdzZeNtuy" name="Page-1">
    <mxGraphModel dx="1422" dy="772" grid="1" gridSize="10" guides="1" tooltips="1" connect="1" arrows="1" fold="1" page="1" pageScale="1" pageWidth="827" pageHeight="1169" math="0" shadow="0">
      <root>
        <mxCell id="WIyWlLk6GJQsqaUBKTNV-0" />
        <mxCell id="WIyWlLk6GJQsqaUBKTNV-1" parent="WIyWlLk6GJQsqaUBKTNV-0" />
        <mxCell id="91YB_1v7zvjL7jXlYHIi-16" value="" style="shape=image;verticalLabelPosition=bottom;labelBackgroundColor=default;verticalAlign=top;aspect=fixed;imageAspect=0;image=data:image/png,iVBORw0KGgoAAAANSUhEUgAAAwAAAAG7CAYAAAB0E/IRAAAgAElEQVR4XuydCdxW0/bHl+uSK5drTEgIuZQiXCRDImMZU5Qp81AaiFBkjEQRRYZkSMa6okJmMmQeulKGQom4kSv87/2/3639enp6hnPOc575tz6fPtH7PPuc89vn3Xv91vqttZf7X42ZTAgIASEgBISAEBACQkAICIGqQGA5EYCqmGc9pBAQAkJACAgBISAEhIAQcAiIAOhFEAJCQAgIASEgBISAEBACVYSACEAVTbYeVQgIASEgBISAEBACQkAI5JkALLL5X/xiq66/utUpBawXTbcpj39p6+3b2raoWwo3pHsQAkJACAgBISAEhIAQEAKFRSBvBGDR9Nuta5tT7b4vFluXR/5nd7bP34PNvq2tbdZ1si1OuETdtXe0g/tfaVecsJttsIR9vH9Vc2vS523bbvB0e61H4/zdkEYWAkJACAgBISAEhIAQEAIlikD8BKAmyj62dwc7fvhHZjVR9kWL8k8AfnfsF1inoYPtkPog/bW9fM1FNnjqfFu76wT718j9bPWaf138zp123g0zbbfzLrb2G5fojCTe1vtXWfMmfcwGvmdvnbNVGdywblEICAEhIASEgBAQAkKg1BGInQD869rtrdk19WzA3cNtn1cOsGY1Efd8ZwB+JwD4yW/ZH37yLBu2SyM748U9bPjnU+zkBqU+FSnuTwSgDCdNtywEhIAQEAJCQAgIgdJGIHYCYIu+s+/+vLqtXiO78ZKb4hAAf/3p1nXCz1aTBDB7/Urb6bBx1v6Bl+3c7X6fmOcubGKnzb7IHh/WxF7ud7oNeHCm/Wj1bd9r7rTrDt0soXZhsc157R675dKbbdTbX7nvrtLoUOs3bIB1SCooWDznWRt53rl29fN8bhVrdGgvu/qc42zbev5lqBnr2ZF2yYCbbNLMH90/1m91mvXv19322ex3vdLrI0+ymye9YQ88MM2sxWF22LbkMHawk24+wZbcui2aPtb6nT7AHnRjcJ1+NmxAh6T6hkU2fWw/O33Ag+Y+Vr+Vnda/n3XfZ8mzLZ5jr91zi1168yj7/bFSj7N4xkQbMuBiu7H2mS624Zcfaktut7Tfct2dEBACQkAICAEhIASEQC0C8ROABHCLTQCmnr+h7XT5qnbZ2+9Z361rbmzc0bbcQaOXykiMO3o5O+iZ7Wy7n1+3D9dtZ0fuWNemP/aQPf+F2cH3fmUPdcTxrrHHTrCVDnnAmrTtbsd3aWorz3rCRgy62aYuPNju/eoh8x+zWbdZ26272mRrau16dbaWP7xoY2+bZNO2HWKfTznZGtRUKrxz1S62Q5/X7c9N21mvUw62uh8/bHfdPN7e/W07G/jqC3bO1nXs/Xt72pCHnktLAObVPEvTg8baiq1Ot77ddqq5n3E2eMBd9tHfB9qrL5xjNUPU2GKb0quR7Tf4G1ur1THW7YB17a1Jo238lO/t+KcW2NDWPNZKdsgDTaxt9+OtS9OVbdYTI2zQzVNt4cH32lcPdXTSKfvuMTuh8f521xpdbfCl+9g6X79ro4c/aS3vfTEh46LfKiEgBISAEBACQkAICIFyQKBiCcDiOWPtmK2PsPvW6G+vf3yRtWA20hGA0XVsu75P2qOX7WIuSD/vLmvfsIuN33n4Eqedf5tu7/26sTXxFcW410+cZvX3vsn2fuBnG3MoHvd3NqamCKHTYzvb8A9qZEebLHkFFs+wiU//x/bYZ2urM2uY7dLoDPvgiAfswzGH/n49xnrnKttlhz727m632oxJx9cQhRpLJwFa/ISdVn9vu63VaPtsXOc/xnD3c5vt7onLtIts0+0utoVnPmWza7x934lp3guP2ozNDrBdai4+b/p79uvGTWoLpSENT5xW3/a+aW974Ocx5h7L4faM9X35c7tsx3J4rXWPQkAICAEhIASEgBAQAukQqCAC8HmNUuYwc0qZeW/Y2EnT7N81YhkfUXcApCUAXeyR/91pfzQq+s7uar+GdflsoL331jmWtvx2GQe9JlK+0v52a9vRtqDGMV+SO1gK+9kjWtuGp3ycwplebA92XMkOu6+djV4wzjrz5XQEYEo3W2PP6xOIh7/EODt6uYNsbE3h8881mifqMbboOS+0475MTYUnEl0esDduOTSBLOgXSwgIASEgBISAEBACQqDcEKggAjDdVlt/Xfvbn2umYJVGtvOhna3HiUfa9gkR++AEAK5QIw16Z2kCsHjOa3bPLdfaXQ++9Lue/rfvbe4X/7YtfJeef11r22/R0+b1fdk+TxMqR3Kz/61t/3DyE96Ydy5vYs3O//MfxcxpCMB3d7W3NbqMT/+udXnE/lfTdzXTtf748pLahmvvsgdfov6Bx5prX/x7i4Si6nn2RK+97ODB79qiuhtb65MvtCt7JGFbbm++7lcICAEhIASEgBAQAlWKQAURgOQuQClmNHAGYFkCsHhqf2u2+wCbs3ln69ezvW2ySs34Ndr/nt3utTU8AVjisC/ISgBqJEIpOhOFJQCH3f6ZXVOj40+25f9az9avqcJ2JGZ0QkZhmU8utqn9m9nuA+bY5p37Wc/2m9SUAPNYPa3bvWskdVWqaen66cs29vo+duGw5+2L5OxKlf4C6bGFgBAQAkJACAgBIVBuCIgAOCc5WQKUTACWyHMmn2qTv7rR9vJi+mUi9L9LcEa3Sy8BSi/LWSI7mtTVJvw80mhalFYCREHy/rda29ELbJzTCqU2fz5CWu3+4get40qH2eRTJ9tXN+5VWyOQuq3qH9dYPOcWa9/gJHtmidSo3F563a8QEAJCQAgIASEgBKoZgaIRgMUzHrTLr37RGp1xhR39e8uayJbNYa0dOHIGYIlz/nwiAajp5jNsX9v9jKdtw9qDupYUAT+8RU3noVdqOg8tea55L9hVI+Zap36HWYMlevoFR9xn74zqUKunX/TGxdayxUX2ZWLB7uwR1nrDU+ytmn9bQMseb0uKgG/a8DJ7+5W+Szr+LPlhQhtWq71WYsHxYpvxYF+buPY1dmbTmmLnNbrY84kEYPE7Nmzf3e2MpzeszQAsnvOpzV97oz+0/4triM5qNbUGnX+vNZAJASEgBISAEBACQkAIlA8C8ROA5y60JkePTtCSL7a6aze0tVauAWX7i+35+49xHW58i9BmMZxym38CQGOg9tawRne/6o4nWe8ujWzmmKE2avovtur8+bZewjP4bj6v22rWom0H29Z+L0j+uba7T0Ib0I1bW7s2jWyVJUXLP6/V1e6bNtLa154XMM0u2nQ7u3jO+tbqkJrTjD9ZxU5/ebDtXYPf721AR9vC1VpY2w7buk5AP858xh578XM77KEl5x7YvBoZUNOaDMd8q+uuVc/mPTnepnyysvV89mu7Ztd5NcXODa3L+FVtx5N6W5dGM23M0FE2/ZdVbf789WoJgMN3wEJr3a6NNarRCM2beo+N/2hD6//Mm3bRjrmRt/L5VdGdCgEhIASEgBAQAkKgMhCInQAsnjrczrztjdToNO5oA3u1dt1x/OcadxxovVqnl7EEgXn2hAF2yTiz9hf2s/0znfj7+siag7Q+sD26D7ZOS1r7uAO3PtjDug/utFS3H/fvX7a3C/vt/3tLzpr2mDMevNx6D+LArPrW7JgeNrDm2OE3LxxiXx6w9DO4g8AuGWA3Taopqq3fzI456QI78cjtl2q1yUFggwffZQ9x+lbNZw7p3NN6nrDbMh12Fs953K6rOezrprd/sEZtz7ehI/64z0XTH7Vh115rd3IdDvDa+VA79IROdkzrLaxuLXAcBHaV9bmW+675TNujrUeP0+0Af3hZTYvSBy/vbYNGvW1fca89Btb09n/TLhzypR0wsJe5qVk03R4ddrPd8vBDv49Rc52T+52zzAFoQeZKnxECQkAICAEhIASEgBAoLgKxE4DiPo6uLgSEgBAQAkJACAgBISAEhEAmBEQA9H4IASEgBISAEBACQkAICIEqQkAEoIomW48qBISAEBACQkAICAEhIAREAPQOCAEhIASEgBAQAkJACAiBKkJABKCKJluPKgSEgBAQAkJACAgBISAERAD0DggBISAEhIAQEAJCQAgIgSpCQASgiiZbjyoEhIAQEAJCQAgIASEgBEQA9A4IASEgBISAEBACQkAICIEqQkAEoIomW48qBISAEBACQkAICAEhIAREAPQOCAEhIASEgBAQAkJACAiBKkJABKCKJluPKgSEgBAQAkJACAgBISAERAD0DggBISAEhIAQEAJCQAgIgSpCQASgiiZbjyoEhIAQEAJCQAgIASEgBEQA9A4IASEgBISAEBACQkAICIEqQkAEoIomW48qBISAEBACQkAICAEhIAREAPQOCAEhIASEgBAQAkJACAiBKkJABKCKJluPKgSEgBAQAkJACAgBISAERAD0DggBISAEhIAQEAJCQAgIgSpCQASgiiZbjyoEhIAQEAJCQAgIASEgBEQA9A4IASEgBISAEBACQkAICIEqQkAEoIomW48qBISAEBACQkAICAEhIAREAPQOCAEhIASEgBAQAkJACAiBKkJABKCKJluPKgSEgBAQAkJACAgBISAERAD0DggBISAEhIAQEAJCQAgIgSpCQASgiiZbjyoEhIAQEAJCQAgIASEgBEQA9A4IASFQsQhMmvi4ffHFF3l9vg0bNrQddvhHXq+hwcMjsOqqq4b/kr4hBISAEKgSBEQAqmSiy+Ux//Of/9gbb7xhDWucqg022KBcblv3KQSEQBkhsHDhQrfO1KtXzxo3bmx/+tOfyujudatCQAgIgdwREAHIHUONEBMCv/32m+2000727bff2tdff23333+/7bvvvjGNrmGEgBAQAmYzZ860li1b2lZbbWVvv/22nXHGGXbhhRfa8ssvL3iEgBAQAlWDgAhAmU71r7/+anPnzrU6derY2muvbcstt1zsTzJ8+HBr2rSp2yzjtP/7v/+z//3vf/bnP/+5dtgFCxbYlClT3IZ8ySWX2D//+U/r1KmTPf/887bNNtvEeXmNJQSEQIkgQMZvpZVWysv6leoR//vf/9pGG21k7777rq222mr26quv2gEHHGDTpk2zBg0alAgqug0hIASEQP4REAHIP8axXwHnf+utt7Z58+bZTz/9ZL1793ZOc9wk4O6777bTTjvNPvroI5cqj8vOOeccO/roo61Jkya1Q/I8n376qT3zzDO27bbbun+/+eab7bzzznMabpwEmRAQApWBwC+//OIi77fddps1atTIkf/1118/bw+H4//zzz8bWcaNN97YZRlfeukl5/yzvq211lpGYEJZgLxNgQYWAkKgxBAQASixCQlyO9tvv70NGTLEdt55Z/vqq69sk002cY7zP/4RfyHi5Zdfbrfccot98sknQW4t0Gf69OlTUzS5gx166KG1n/eRuWOOOcaRGW+Qm8cff9zef//9QGPrQ0JACJQ2Ajja6667rnXv3t3OPvtsRwRuv/12+9e//uXIQD6MdYR17N///reL/CMtxPF/+eWXXRb1rbfesuuvv95uvfXWfFxeYwoBISAESg4BEYCSm5LMN4SjzAaGQ75o0SLbcccd7ZFHHsmL88+dvPnmmy7DQMSMTTIOe+CBBwwSA2nB2T/llFOsV69e9sMPP7jo3A033ODkPxgRu+eee85at24dx6U1hhAQAkVGAMebdYs1xWctTz31VHvvvfec5C9ug1wgZ3z66adt5ZVXtg8//NDp/1955RW3DpFJJev45JNP2t///ve4L1/W4yEzJVOLRBPpFHuAuiuV9ZTq5oVALQIiAGXyMjz44INOjsNmhVb1wAMPdJvluHHjXAYAmQzRtHvuuSe2J2KTxiHfY489nFO+4YYb2qOPPhrL+G3btnXpdp7pyCOPdBsvz/POO++4602YMMF23XXXWK6lQYSAECg+AvPnz3cOOFK/XXbZxTmVngBQC7DeeuvZ9OnTY5Ubkm3Yb7/9XLBh8eLFDgTqj/j/vfbay+rXr29ce/LkybXSw+IjVRp3QECGvQaihPN/xBFH2Pfff++wkwkBIVD+CIgAlMEcjh8/3qXIr776att0001t1qxZzmEePXq0dejQwUXO999/f+vRo4cdfPDBsTzRQw895K5Hihxj84ZodOvWzS677LJQ1yC6j5YfnS322GOP2UUXXeQK8DA2ZojGsccea0iO7rzzTpeujyMa+M0337h7V2Qv1JTpw0IgVgQmTZrk1o6JEyfa6quvbmuuuaaLuEP2MRxL1gDf2CDMxckSfv755259SmW0/KS7GHr/gQMH1n4EAsIfSEDdunXDXLIqPkv2l7X6/PPPt9dff92OO+44R9jatGljgwcPrgoM9JBCoJIREAEo8dklgoVWHhkMm5U3ZD+dO3e2LbbYwnBycahxoOMyFn40ujNmzKgdkv/efPPN3ca95557Br4UtQo49ZAXDOceGRBOgTckTaTleUYKfonK/eUvfwl8jeQPEuUjIzJ06FCjaBoJEdmSVVZZJfKY+qIQEALhESBgwHqFfBGN/9ixY10Umd/JK664wrbcckvXhhMZ0Mknnxz6AkiHcPCpISCLwLWOP/54+/HHH61jx442bNgwlzkl64Dk8MQTTwx9Df8Fzg7gHpERIRu644470hKPyBcp4BfnzJnjCFCq4mfmi/MRkJoSQKFTEvsRnycjfPrppxfwTnUpISAE4kZABCBuRCOMh7M6e/ZsJ7FJZUSwkOMQ5Scq741e+TjlRL5YlHM1WuORXUCew+LfrFkz69q1q5177rluaDZYtLQrrLCCXXXVVaEuRyaB8U866SSXVWjXrp1L9xMJxHD411hjDfvuu+9i6fhD9AqCBMkgQ0K6H0IAqZEJASGQHwSuu+46tz545xDn/Mwzz3QSG5xHHEk6/hDtR5PPekZUmeDF4YcfHvmmWI/4QyYAucqzzz7rnFdqiehgRiMBuv6wDhDAgDCENbITNFoYMWKENW/e3GUrH374YRcdj7NLWtj7yuXztFimIJpngTAxD7RgPuyww1xBNMEY1nwID40nkICCJXKgOCWadIWCnIEnkq2w+0suGOi7QqBaERABKIGZZ+GlsJfiOCJkH3zwgR1yyCHOGUcjz8KIE4tDzgZ71FFHxXrXEBAWXNp+shkj1WETIOLTvn17t4HvtttuzoEmih7lhF42ECJwI0eOdDIlCn9xChiPojL+f++993YypjgMjMDNywKuvPJKdz2cD5kQEALxIkBBL2SedQQHHGkiRqS/b9++LoMJAWAdIQOQLtgR9a4IWFBLRJCBzAIdfTACCkTq+/fv75xbsgNEu6mhCmtIYVZccUU3ljcyDKzN1CzlyyAetDAFs7hPLCaIROYVSQ/BJLokkT1hHf7b3/5mSEEJpkB8yNAwn+wNcc8f3d+oD0FmRIalVatWLnsrEwJCIH8IiADkD9tQI6NNvfTSS+3jjz+2ffbZxy6++GInmWFTQ5/64osvulaY9MtHO9+iRYtQ4yd+mMjNNddc4zpgYFyTiDwdHtjgkBURIcNZZ/Hv2bOn2xhYmCEkQY2ozk033eSiR2wwTz31lIvKE52jswRRQjZkIoa+/WdcGxykhj9+PBwDIoxkHWRCQAjEhwCBCxx7fsd8nQ8RcpxievujGUdGgoPHv7OGcBYIzifNDdZZZ51YbgapH+2FuSbrij9okLWU5gJcK6jRXplzSC644AInXySggEwJosO66I01k3UlUSoZ9BrZPkdtw6BBg1zdAgSHAMq9994bexceMrJkfZkHJE4EZMg6s8fwbEi4XnjhBZdBISPs5zjb/Qf9OYEuxiUjxHtCW1iyNARw4pS1Br0ffU4IVAsCIgAlNNMHHXRQbYHvfffd5+4Mx5vTeHHCzzrrLFeUxSLNxhTVbrzxRpfyZfNiMfe6WHpzE+XnmkTsSJ8nRrvCXA/nm8gbfyA2XqIE8UCTC4mJeyPx98e1kw9FQ75ENsMTgJkzZ7pIpQ7+CTOr+qwQSI0AaxNON8EEHG8i4/w3EWPqbnDwfFaAIMCYMWOcg83Pcum9T3ScJgkEFKg1wlhraDzAH9YB32KY62UyHFDWBORJ1FU1btzYBUJ85xvqkxo2bOgKmSE8GM/MmhZHw4Lke0NqdNddd7m1mOfYfffdjaAKmBKoicNwuJH5gA1F2qyTPmtK9oQuQNRs+bbMcVzTj8H7AbbIkL788ks3bxAtAmDsG9ttt53rQOQPhozz2hpLCAgBMxGAEnsLWPTQk7KpeeeUqA9RGPS0cRnRLFqG4hATgce4zmuvveai9WjnqTlA74luNqyxsRBJQtufvFlBZp544gl7++23Y09ps3GTzWAjT2yJysZ2wgknuM0Th4N0PlHBOGonwmKjzwuBSkMAeQ+NAYgcs4awdhGxRtLIab84zTh3SB0/++wz9/gEOQhmJHbmCYML0hscchx1sqNdunRxwQUCGPz+I1Mhig4hIcpNBiKTUeuE5IXACJlDshW0LOX/yYpio0aNckXEyJoYjyJmfs59xG04/QQzEg1ygswql3oJPx4Sm379+rlnISPDmkiWhOfxJ69DsJCdIqGM06grYA8iqwxBozMUGSOkW7wrFG1vttlmbg7IGMd9yn2cz6KxhEC5IiACUOSZI7XLAscG451RNk0kMSzOGJpLFsu4DuKi4JjIEpsXER5/yi4dfogEEd2iWBapEMVgYYznYbHG8YcAEOFJ7LzDtdCcUvxHtiFOo50oGJKq9hu2Hx8MiajRcYRCtqlTp8aeSo/zWTSWECgXBHBScSb5HaPGhpohCkYxin7JvOFAUtuEpBGnn+gvUXvWh2yOeSocWGe4HtJIHGJa/ZLBJLBADQDBBXTkOPA0FwhqkBQ64xAoIEBAxB39O4EFPw5yH9oaIzUiMJOvzmI4xQRliIh7o9vbTz/9lHORLM42ewqZWC+V4hoESXhuIu9xOd1cg/lm7jHqGf7617+6+oxE7CgApkkE10cGhPwnSq1G0LnW54RAtSMgAlDENwDNKpEqIvA45USWiIygjWVzJILFAonTjL6WDS5XIxJGW1EWW8bHUaY/NgXAtOZkA2RDphMDJCHMJsC5BBSKEQ0jW0FLPrIIXjPLxkW6l2h8PoyNGb0xEUacErCkMBHpAc4CEisKjcmu+KxHPu5DYwqBakIAOSLOPdFxIu783hPdJxOH40wkl2ADDh01TOjrKTDl99VHmsPgRcQawgEJGDBggDupHOMwRNY0ao4IZpCNwNEMs4Zx/5xNgB7e1wyQMcQhJRpOBgMHlefI1WiGgENPcweMNZNoO1Fx6rOQe/rDt3w2mHvDSc+1EQRzRHbXX9s/C8+P5IZMAw0a4jDmCPkUz4bR9ILgEPtB4vwznxAqyCKyKhpDyISAEMgfAiIA+cM268hsVBTEoT2luIxFF70liz6OOil1IlGkuNl44jAiLER8qAPAIBsQCzZvUuhEzBKJSdBrksUg8keh79prr1270NMxiBoGujsQqWPz8ht20LGDfg4ZAi3tKFxGHsCzsomxeVNwfP/997uNMzHiFXRsfU4ICIHUCNSpU8dl1CD3GOsaUka6brVs2dL9P4EMso1kBon8InOMUn9DoITfYQpzyegRISdA4g/yIrKNPAaSkW3NRCpEhJl1IbGNJ9kE1izWQ992mbUEvT9yRghPHM4pDjjBCbIVPBd1E5AmDn3EWeYa1E/hDNMVjnajEAOytLmuYdRk4JQTCPIGduBI8S+ZD9+iOY73Hmef7kLUfkAyeB8IOBF88sZ+x/4hEwJCoDAIiAAUBuelrsKii96ShZDCLl+cRmEqmkei1fw7GxudgNhgczWvhaX4F1LB5uwNJ5noOOl0X0gX9nroZ4nscEBMohEBROPLJkehIN0momz86e4H556NmY2rT58+TjpFJBASwkFiRNF4PpwFmRAQAvEjAOlmnfKtN7kCUjsi5tQDIGmMw5Cs4KSyjhx99NEuA0DhKhITf6o41+FQQYIp2YxaJ9Yr1igcbOoHPJFg7YXQcD1fA4U2HceVNTKubmWsxwR9kEUSGGHdR36DDJPiXxx+yBXPR1YYWWaU7CXSLPYcvstaSOaZNZJnZs3EIE6QHkhI3Mb+A4kik807wTMh1eJeuCZ1ABAviJ1MCAiBwiAgAlAYnGuvguYVbSpRHaIdRN5x/P3GQ+qcyA/FuXEdLsOiiiaXKD2RGKJbpGX9qZt05UCPTzqWbEMUQ0JEhB9HP9FIoyM5yocRCUSXixPAdYkwsaFCCjA2TdLskIDkVHc+7kdjCoFqQIDgAY4jMhIkLEjucFxpFek7tlCLw9pGBsCvbbliw9qFHp8xkfdh/BsdaoiIh2nzyXdpVEBWgnWRTmjcv+8exM/p7IPzT5vTuPveJ2JB8IUgBbUH1BVgEA8yAmRPopy7gs7ey2vINPB81157rZNqse5zYBp7DPUZyJnAkeuAYa7ZhcRng1xxHxAnsj9INHk3yLqwLkPkyESwB0EgkYbJhIAQKAwCIgCFwdldhQNwiPagu2exI4LFgSv0PCYy4qNKFMnF3foM7TuLMASDDACOMelnWnFyT0Rfwiz8pKPZVCi8Rd6D1p+WeTgCPBsafCRBSAHy1cuZjQXplHcw6FyEM8CGwuaCdpdCajn/BXzJdamKRgB9Ns4qUVsKblmrWE+IViPvI4pM5J8IdtQWwokA4rwiGyEwwVrJOsU6gzSGdQdjDSA74GWNYSaAcelSBKngeahhInNIIAF5EESHzkCs0WFqCbLdA9lS9O5kRMkogBcRftZib/ycuipIQNBrgz2RdYiZb7vK3zR14DR56rHYh8gyU+tFtpT5pPUnznmYPSDbM7L2UvvBdSAfBGiQXfGckBAyEjyXP0Qu23j6uRAQAvEiIAIQL54ZR2PRp4iL9CsREAwHmpQrTiwLc9QFmOgRXYK8ppLoDk44XTgwNPFschT3somT4iYLwXU5KCdMpwz0tUTGKMTjmSheJsPAITxsmhAZiAURNpyDKJJGwsQAACAASURBVF0+0gGJTInnZKOGANA/2p8nQA0ABYc4/8ldgAo4zbqUEKgIBHAOkaOwZvhosj+x3GcnaemLvITfSbJwNA5AtkL3sFxlMjiPBCwIIKAXZz3hWhQP4zhDDPg7F8PB5hp0BmNNhrSwhkImGDtsViHIvUBi2AOQTXIN1k1PbHCMfXc01jMKmekGFMRY02m9St0CZMwb8iZkWjRfwNmmxgBjrujMk+s8pbo31mUyvxA4urJxHXDmeZFoUaRNMwbuSyYEhEBxEBAByDPuLLpsLqRX2UiJTuOI+x7IngQQoedzdK2IYuhZicKhh8fYHImGk+olzY0hNSJ6xumSpF6jGpF9Iv60pyM6BqGAvLCpkUqmxoEoGlmGoJGrIPdCOhnZAacL4xQQ6SKaBBGhrgAHAb1xoqQqyLj6jBAQAksjcMcdd7jDB4lM03XHnxrO7zMFol6HTkSX9QUZUFBHNRXWdMCBvPt6J5x8ro0j6Y2gA8EEItbIGrkvmhZEDZr4cblvmgTgkLIGI/fBUYYcUG8QtyG/BD9aiSYaBIoAEdiH1eFTWE0Qh7UXSZE3JKc8Fzp/giY+S0LjCcgOAZq4CQDPx36AFNMXS3NfZAD8mQkQS0ilsrNxv10aTwgER0AEIDhWoT/JIutPNvQH0ZBmZtNCKkN0KcohW4k3wkZFBwki/WwqjIlzzkZJNInFH92n35whGmQHSN2HOYmXTAUkg0IuIlc4+4zJ+ETnkBfxvGxg+TCikWhV2dAgGTgKpLvRBPOHzYXOGbQgVcFvPmZAY1YLAshdyOoh80vuBINGHf29789OcScFrNQzRdGqe0xx9im6ZY3BISVqTBSbtcsb2UY6lqHJJxBAQCDMGpZu/ggkkCHlubN1DorjHfAyI57VG0SKiD8ZTmqXkFeGMeSkBFzACyLB+o/ch2DJtGnT3LpNNB5JE4ds4aT77kxhrpPps2j86SoHgUJu5CVNnmAgA0JaRbZDJgSEQPEREAGIaQ6IPrPQEfnG/Em4OKw+qk/BFcVZaNV9VIZNLGpXHE66JXJFOp6FnTZqaHDZIHHwGZfNDWJAuzxkQnSaSOwAlOrx2dTZjHw0Duef3tdsIjj5OOA42jwPzj9G602iTHwuDiNzwZhkTXAGcBDQjLKBgKnfqIl8saHyzBTw5dofO4571xhCoJwRoCATiYY/iDDxWYjsov9n/aJOCTkJjiXrQi7Geoke32dGWau4B9YTOgx5Y90hap2pyw/SRzII6OnpOIPhkBIkYKzkiDfrCxF3Agq5ZhNSYUDGhKAPTjkkibWKgA3P6A9/ZP1mnSXrEtUgAXRfQs9PgIagE5IpH/whMEJ9FnVZzFuc2VlkPcgucf4pqmZ9hhiyZ5Cp8ZaPAyCj4qXvCYFqR0AEIKY3gFQxaWycazYYohxEqXCWfbqcTQ5nnQgNUhU2gKhRMzYtHHCi+YlROnr4s0my4SHPwUizog/FoYd8oBPNZJxDwKble0QjF+Je0fVybgFGNAcyQRs9iAZHyVPI7OVGucIKlkQEuVc2TrpisLGTwaAGAYJDT26ZEBAC8SLAuoIuHcKdyiD9FODicCIpJHIe1vguDq8PmPB9ItK0QWY8OqWxtiCT8YcgUqsEIWAtSGesWzjz6OgJiCQaha8U/KJFT147IBs4yHFnMFmz0OCTISFCTktknHz+sIaSZSEoxGfoQoQMKlcjS8LzkG2Oo4V04v2AL9mSxD2HPQ6Hn8xCYi0ZWVvICIGqfHWCyxUrfV8IVDMCIgAxzT4bGlIUZCp0n/GnHXIEOougNyLZaObZOHMxFnjabibqPf14Xg9K1J9WcmxCRPUhJkGyDehu+Zwv9PM6X6LrpJS9QWRwEoiqkVLmdMe4jE2FKBlROdLKPuLPsyBDIDPgTxiO65oaRwgIAXNReCLHyFGSjfUMJ5BoL7+LQdaT5DH4PvKQWbNmOYefeiUf5Sez4NtfEsigvofgCmsXckn0/+mIvw9+EI1O5/iyLiO/xPFONAIjkI44GxYwPhhCLND1c184+GDLPgAZQabJqcPUbyVmOnJ5D5MPlcxlrOTvIstC/gVJ9EbNFVkF9p1kIztEUTV7CDJRmRAQAqWDgAhAjHNBBIRFHAcfaQ6LPoVQSFlY+OkygaNMIVSUjTPxVknx0mebjSSV4TiTgWBjyRbxT/V9L/Nh8yI6hSSHtDvRubijZKmuT3QQgoG0ANJBCt0bkTTuhQghWQmZEBAC8SHgTwdnreLU20TD+SNDiEwoqkEckBch5yMizjXoRkbTAt/6kg5ARJAxnHYCLEgp08lWfHaQKL/vWJTu/mjEgANLn/98GlF+1k/kPb4VMvp+iAbrM9IcSAuyozjlODwT0ifai7J+Rln/0+HCoZWszTSC8EZGgAANWWbfdY6fUZNAFpmfR21ukc/50dhCoNoREAGI+AawOeKYEsmi5zKdfTAWQbSxPo1Nxx02O4rVWPDpMhGHTIYoFiQAkpFsbC5EspDREGXLtlmzufI8FBCzeRJ1I0NB2poMAyQCOQ5EBmkA+lqunQ8DNxwDNhLalLI5ovGHNHk9LxsKJIBDYyQDyscsaMxqR4BWujhwdHGhxS9GxpGsG9HzXLN9rDkEL/gdJgPAOsVaSY0B2U0cY5xGusUEMU6WhQQEzawioeQk3DgkN6xFrJOsoWSBveEoQ5hYi313Nu4R/T1ZDYhWNrIS5NnTfQbyQZYhKIaZrsXazx4AKUOyxJqM/JS54tnIoFADhoyL/Q18IUDMi0wICIHSREAEIOK80EOZYjgWOVrSsZHRfYdCVIq8WPhJ+SKjYdFkkyClHeUY91S36PWVpMRpx5loROgovkrWwKYax5/iSUSMyD4LPVE49LYUbxG94v9x+tnIyDpwIA8yoUT9bkQYl/oaxIONhHoCNi8cDX+yMP2jiQSSmeBn6TIfcdyHxhACQsBcAAA5DvJBiDYFntQVxRHAAF+kQGRMqTHiYC+M4AVRa/TxROqRHGUzyAS6f4IrQY3v0NqUoEKubTBZo3D8WdtbtGjhCA06fIyGBUTgkcGQGca4NvfKv+V67WzPy5qZi/QGwkKGBtJCcIsgFrghE+NvnomiX2qyKDDu06ePk7wiB5o4caLafGabIP1cCBQRARGAHMDH+adwi2gZEWpIAQVypF7ZNGnJBgmI21H2t0yanAXYn7LINYn4kFZHl5nN/Mm5pM19BoPvsAFDCFjQyR5Q7Isz4Dv80HY0VyeAqBTR/sRCQxwMIkcURhNNY1OhjgH8IFCQEbTHEK24U+bZsNLPhUA1IkAkHscPo74pboeVKDhZVLrDEEGOYqyzrBXZMp3JY+Ook0n1znqUa/MdnGzWLDKuyBJZN9HKk8lE2uTPXyGQQnvVcjHmnmJvgkRIechis5/xDP70esgbGaJdd93VPRbn3rA/sAfGXU9RLrjpPoVAuSAgApDjTHGSIYs8jioRINp60vWA/8fJpYMF7dDyZfSSpme0X2zZzOhyEaSgjA2QIjSi+xSiJRqbGH/IZpDKJloFSUDulKsRxaeLBPIeJEy+QwQ1C2wsOANkVJAcEIFic6erkUwICIHKQ4BMH1lMJIhRMnvIhqKePEwQJNfThJkR1kWi/ZxFwppPBpa6JTIbOMm05EQ248lUqc8iRbtkf1j/mzZt6uaGujUyv3SVY2/A8Sf7jYwKkkNmIw5JValjo/sTApWCgAhAjjOJHpIOCETMifAUw9h4KC5DMxtUA8t90uufYi6IAEW+iali0vOQAlLkLOpEg+KSL3FtIkRE7MiisCnSFhUiQKaByJlvN0rRGTpSMhsyISAEKhMBTt1FPoLDGVaywsGEXl4TFh2aNBC1z9WQZKKHX7hwoWuZTMci/iD1IdhBUKZcnGPkO5AisiMQGLquQV4gOWSACHpBaJgr9ggyIGSH2IPiOJgt17nQ94WAEAiGgAhAMJwyfgrnGQ0okeuwaegYLp/TEMiGOCyMYjQ2K19UCzlAkoPznavcJ9UNUkuAnpjiOdLl9PYnk4KulGIzCACRf7SnyKyUTs5pmvVlIVDyCBAxj9JcAOkQ60kUI+OAhj1XYx2lqBhHn/shA4wDTYCIA8mQzeSz4DfX+0/+PlJMgjQYEiCy2KzFHDRJm1FfwA0ZIItLTQCZDpkQEALlg4AIQExzxYJJb3ofMY9p2IIMw+ZFBJ52n3TeIcpDPQPnGeR6wme6ByBlzAbJ5kIxNad7IkVC8gOJIroEGbjxxhvl/BfkLdBFhEB5IkDDBeqYohhRe9aaOIz6LxxkdPJRiEwc95CvMTjPgCYR7HNkvJGF0gWPwE3Xrl1d9kMmBIRAeSEgAhDjfNGxIoj2PsZLxjoUvZyRMdGt6Mgjj3Qp3cS+zlEuRrSIIj/0/GyOiVEwfyoyf7OpUANAsRm1ATIhIASEQBAEkF/SDS2K0VSAdpZxGNF+ZJhIgPwhinGMWypjUG/Wv39/J9kkOywTAkKgvBEQASjv+Yv17ungQMEXchvITBx6TqL49O2nQAydLIehUfBHloFCMjp4+NOFOdwL4lGsWopYwdRgQkAIFAQBJIRRTwWnVTJ1R3EZBbJExLt16xbXkCU1DuszkkxIk2SZJTU1uhkhEBoBEYDQkFX2F2hnShYjbCFeOlSoJWjcuLGTF7F5UG9AW0+IAFEyaifonITR6pM/a6yxRmWDrKcTAkIgNgSISnNuSRSjCQGR7biMIApFv3EET+K6pzjHIZBDzQTyTbVijhNZjSUECo+ACEDhMa+6K9JVgi4RZ599tms7Suu9o446ynWXQPePTIi2nzIhIASEQFgExo8f784GoU1lWHv++eetVatWYb+mzwsBISAEyh4BEYCyn8LyeABOy2Sjpd0fml1kQXSPIFVOAR/nDMiEgBAoDgKcv8Hhe/Sw53eTDCCdXzj1mx77UeyJJ55wZ5RwgKA/kZYxibr7sz+ijJv8HRoKPPLII+4U9jBGwwM69pR6tJ7OQtRGcdgW2VEKb6nPOv30090pw7kaTSDOO+881xaaQA1ECgkoxcy0YS6n7kW5YqHvC4FqQkAEoJpmu8jPSpcMMgB0lKD4DiM7wPHyMiEgBIqDAD3eOWeDsz+SjbM/aNXLWSFhTgE+5ZRTXNvIdGMiCeTAxDBjpkOHzmFkFBkvqOHsUos0efLkwFIWnHAcbw7JorFBhw4d8koekENyoBg1DgRPErGi4Jj7oVUy7aejGk4+EiiI3iabbLLUMJzSPGjQIEfWkGrKhIAQqCwERAAizidREyJIOLUffviha1+55ZZbuk3hrLPOyunQLDYnitqIwngtvu8w0bt379pe/VFuHQ0nG+Wbb75pq666qtv8OOQLI4IWlxQHPCZMmOCOhmcj4xAc2qQOGzbM9cWmXaq0/lFmUN8RAvEhwHkbw4cPd+tXJiMLQG/7IB26cP6JHGcakygzayUZwSjSneR7pTMNzjAthYMYJ9hSj7TBBhtk/DjPcPfdd9t7773nDvaiK1qdOnVcpx8yHAsWLLB+/frFHiWHOBHh54AzagrSGeso2Y8ojRPIypx//vk2cODAtPfP819wwQWuxz+1XDIhIAQqBwERgAhzSQcEnFkOrkne5HCoiaTQlo50d1ijLz4tM4899ljXBz/RuB7FbmzayT8Lcp25c+e6DQUJDj2dE23evHlOAnDwwQdbmzZtggyX8jMQDI6NJ8pPhM1vmJAZDhqrX7++zZ4926Xe6TgkEwJCoDgI0M2FYk4CDtmM6DOOcMeOHTN+9LnnnnOOdaYxGYuWwH379nUyE9ajXI11mAAGdUasMZmMtYhAxLXXXpvxczwD623z5s3dupiq6JXOZhAAoui0UY7LIEas8T5TmmlcAi2QhB133DHU5ZFdQupoXZrNmCPmP67mENmup58LASGQfwREAEJiPH/+fHfIy08//ZTxm0S3KXANE+VGe4tzT/SMTjmpjI2OUyX79OkT6mh57pfMBCldIv/pjBMdITc77bRTSGTMZRIgGDj96XTDaIyHDh1qQ4YMURu50AjrC0IgHgQ4yIlsH5nFoEbkG4c3XUSasZDzZRuTbCAHDNIEAEJBG+A4ZIBkZXFUcezTHUxFpoBoeRC5EJkR1jJOvc1krNtkHpDkxNEZB40/tRMcghjEICqst1w/qFGTBV4tWrQI9BXkQBMnTtRpv4HQ0oeEQHkgIAIQYp5wcDkAhUh6EKO4jM8GTXG3bdvWtcfM5KD763IEO5H2oL2YIQ1E+LNFxxifPtYQhbCb8nXXXecO9MpWmAYmFAISUYpjwwwyF/qMEBACfyCAdGSHHXYIDQkR43RZgFdeeSVrFBrSQXTbF/1DFugKFkcWwD8MEfszzjjD9t57b1tnnXVclpYMJ9che5st8s84nE/CaeiXX355IIxY0xgXOU2uRj0GGZIgkXl/rVmzZjnihQw1m4EH2WmCMUH3JsakFoA1W0XB2RDWz4VAeSAgAhBintBakgoOY6RniahnMyIyyGe22WabbB91P1+4cKEjAMcdd1zWz3PUPRpWCu+C2KJFi9xmhvYzqLH5P/PMMy4zEcTQ67788stO5yoTAkKgsAg0atTIcBrD2rrrrmtffvllSuKO9BFJTzrD2TznnHOWcapx/llb4woGPPTQQ87BxYGfMmWKq1tA1kj9VLrMavI9n3nmme6gwjCGXIj1LxcHGeecomyyD2GM4BSEjtqubEYRM9H8I444IttHl/o5BdBkkpGNyYSAECh/BEQAAs4haVYi89mkP8nDsRngrNNNI52x6CMrYkMOE5HBoScik21To3gN/T0p/KBGWzj+BMlGMCbyIjIAYQy9LvUOcW38Ya6tzwqBakUAyQryG/4Oa6wHRMf5fqKxxlFQm2lM1qGxY8cu02gAUsD6sd5664W9nbSfp3VmWAfXD0atFY0KwhbWsjfQ2hgZZ1SjBgziQnFuWCNCT4ZmxRVXzPhVzj5o2bJlpA5M1E4oaBN2ZvR5IVCaCIgABJyXadOmOXlLFKMTTjpNKuOxeXK64oEHHhhqeLoPff7554Z0KJORUj7++ONDjc1GBGkIstjzfESUunfvHuoa1EiQ+YjaZzzUxfRhISAEHAL83mVaj7LBhH4/OQqMtAa9fDqDHNA1J1VR60svveSCAFHqjtJdD+cfEhDFkCjhTAeVVyZeA2JEk4Oo7U3JhIBVlL2G9Zp5yVaoS2vRESNGRAq8RMmMRJkDfUcICIH8IyACEBBjCnPpYR/F+C4a/HT21FNPuUNeMmUJ0n2XqDvRs3QGcalbt26gbhLJYyABuvTSS7M+Mp/hHrJtPMkDeckTJEAmBIRAYRBA+82BT1ENR5OTdxON32G096mMDCUFrXT+StdJBwKx5557Rr2lZb5H4ILuPPXq1Qs9JlKe/v37h/4eX+Ca9NQPWz/lL8bZCXRPC1KrlXyDBGKQaGXrRkRRM3LNKJlXAkkElGRCQAiUPwIiAAHnkMgKUfooxiEqU6dOTftVNkYW/ihRo2zSGzZCOkqE6UbkbzToRki6Omy63F8DGVAuB9lEmQ99RwhUMwLoxLfddtvIEKCxT66Fev3119O2JmYN4syUdBJE5JWPPfZY6Axopgeg7oluOtk6+KQagwYFtPWMYgRccMKTJVJBxyKgQ5Q9jBTUj01nJ2RI2cjHxhtvnLFWI9O9durUycmMZEJACJQ/AiIAAeewYcOGTm4Txeh8wYm36QxyQVo9SkSGImDIQzqj3z8RO7IAYQ2nPogWFYJB+9AohiwAbbBMCAiBwiDwzjvvWLNmzSJfbPz48cs46+lIBcEPdP90T0tntFbm+3TtidNoSXzuueeGHpJMLxKZKPbNN98YTRTYL6IY2WJqu+ggF9YgPGRbsh3miFQL+WgU69y5s6tRkAkBIVD+CIgABJxDFlW6J0S1TKdiko4nhR6FAGTTutLtg8U+W2FYqueiBR6H9WSzoEQh1ThE6nLRI2e7N/1cCAiBpRFAKhLkgKl0uD355JPLyHVYY5JbUOLE0qkMeWMmw/nHac7WPjjsPNKuFD1/WGnlCSec4E5ij2Kcek5LUKLsUQy8Nt1000gEjQw1mZ1s7UPpiETgJcp+kws2UfDQd4SAEMgfAiIAAbFde+21jehOFCP1nelwHA5jIYUeZUE+8sgjMx5qw9icyhulNV1Qxz4oUUiF3Zw5c1zRm0wICIHCIPDtt99agwYNDGc1rBFhJoOAk5porI2MmbjOIfvp1q2ba8OZyThzhKg3bUTjNJx41r+grZX9tXMpdCWgAUZgEcXosIQjTyvQsMZ9g2W2bm9ka5F3RpGcklEhsyITAkKg/BEQAQg4h02aNDFOkYxipL/pqpPO2rVr5/pgR1mQs6WrIQj0lA7azjPxHjk4jKK2bJaLBIje0lEOJMp2T/q5EBACqREgG0l0fsGCBaEhYh3B2U+OqiePSWcvpIlBGgNwTgqyomxEIezN0pIUvTpdb8JYLk4u16OYmQPIohj1EDj/SIHCGA0VGjdubBCQbIEkisDJumYjCsnXZ46Z07Ad5cI8hz4rBIRA4RAQAQiINcWqRFeiGEVwN9xwQ9qvcuAMi36UDfCiiy4y/qSzO++807WGy6TBTfddIkU499ks2z1k+j4bSpDDzLLdg34uBIRAcARYF2g+ENbo+JWuLoge+Pwuc6bJ5MmTbbPNNss6PI4revsoEe+sg9d8gIO5wp7OS8ciAitRCnEpOubZwzrXic/CPkNL5TDSJWRHL7zwQqCWyj/++KMrcg4S3Em8L4q/2UeitCgNMlf6jBAQAoVFQAQgIN6cKBm1TR19rjP1uKZ4i80mbNSIdPsDDzxgFGalMz5DZwoOfgljv/zyi+vsQ6o4m0EUyBZkizylGueAAw5wRcoyISAECocAZ4+QBeAE2aDGGkWEOZ1Uhxop2m7iKO67776B1gOc3Q4dOkQKUAS5b1py4uhm64yTOBYHZeEk8wxhDCzpksOanIshsXruuefsjDPOCDQMkXlaNofpxLb99ts7whCGqJDVoaA7SqY60IPoQ0JACBQUARGAgHDPmzfP6V7ZGMIYC+wXX3xha665Ztqv0b4NqQ4FYGGMU3TRzibrcZPHICpH7+YwDvo999xjFBDTxSObkfYm2hc2MvT999+7TU5dJbIhrJ8LgfgRoP0uEfJMDQoSr5otk8lniSwfddRRgfrvs+6RYQxy1kjUp6f+ibWbdTKoIcM5/PDDHZEJY2+99ZbT/mda64OOR+CFuQlSu0UB9qRJkzKeB5N83bCHTyIbIsugjm1BZ1CfEwKlj4AIQIg5ovc1Wv0wRms7FudsxuZKMW22Q1wSx8mm//efZVyibNmIQuLYYXph//bbb67Yj9R5GKMTBZmJKCduhrmOPisEhEBqBOhW8+mnn2aFhzbCaP+zOaSQia222so1Ncj0e82agbPMtcNEobPeaIoPBD3QMPGrRPGbNm3qdPVBjIwpuvpPPvkkVKAl3dgEmnC2/SnJ6T6HI0+mAqIT1qg9u+WWW7KSNeYUGWnUw8PC3pc+LwSEQGEQEAEIgTORJNLfHLYSxNgsiZoEcerRwp5yyimBi7/QtbZv3z5QOz/GpkPEsGHDgty2oQ+mM0/r1q0DfZ4PEU0kixH0ABwwZOOKerha4BvTB4WAEEiLALIVnFwc13SGfGb27NmBzxJhTIj9hAkTjO5pyUbLTySRr7zyiuuYk28755xzjGxpGCMLQHFykOAN4950003WpUuXQEXPQe/j66+/drJTWkSnkt2QWSa7C85h6gX89dkXOHWYTEe6Ym0+g1yIc2qiNJII+qz6nBAQAoVHQAQgJOZjxoxxOs9shtwGGQ29qIMa/bVxjInMZDI6CqGbP+200wJHm9hsicqRachk1CNQlNe/f//AYzMeLQXZjMAniKH95fNxpMuDXE+fEQJCIDUCSHHQj/M7mdgaFOec31H+PayjzphDhw41ZDGsOUTTp0+f7jqSEVyg007YMaPO36233ur644dtB0q7VGqUXn755YyXvvvuu12Qh8/GbZAlmizQ0YhuRkgtqRHgxGAKjk888cScMiiMT8Exe1pyjduMGTOsa9euLusd5ST5uLHQeEJACMSLgAhASDxJh3I4FhH4dNpZnP/evXuHjjpxK3QEYmPkwJVUxmZEIRYR97Bdg9Dqk3I/77zzUo6NzpNIFjrebKn+VAOwYbBZsSFmMq6BE3DggQeGRF8fFwJCIF8I0BYU4o/UkTWIbCdFvbkYY86aNcuQqgwZMsRlOHMdM+z9fPnlly6oEaShAWNTmwRxIfJORx8KnzmkjHbFzZs3r23oAEFgLcV55sT1fBqZ5Mcee8x1WIJsMDdhCpsz3RtR/tdee83uv/9+R9LI4EA0DjroICf9CbvP5BMHjS0EhEB8CIgARMSStCmt69DFsoBipGnZ3Gj5GaboLPkW6DhE9oD6gVatWrkIDxsSp1pyiiNSmzAFvYnj03efgmBS8ER82Ezee+89tzHvvPPOduyxx0ZKJ/trcMooB8WQdufI+URDQkU9ApEyFZNFfPH0NSGQRwQIbFB8mg+jW1mxCv579eplHEyG4eBy4BbFs/wNQWAdRK5EpJu/Wcf9H+QxSIFYl1nDkAchh2nWrJnL1q677rr5gGuZMcniBmnKkOvN0O0n105Gud6Dvi8EhED+ERAByAFjNoKJEyfaqFGjnKNO1xwc2yh6zOTbgFSQRaCwjA2LsXH+V1xxxRzu+PevMvbUqVNd+pg/RJXatm0bW0qegjg2esgAUgAK/sgoUB9AtKxQG2bOQGkAIVBlCFQqAWAtJavBOsSfhg0buj8UIuPoRw2oFPL1EAEoJNq6lhCofAREAGKYY7rfoMeP23I5YCvIvZDWphd0vo2CwChdKvJ9XxpfCAiBpRGoVAJAEwTkleVsIgDlPHu6dyFQegiIAMQwJyIAmUEUAYjhJdMQQqAACIgAFADkiJcQAYgInL4mBIRASgREOV2FbgAAIABJREFUAGJ4MUQARABieI00hBAoOgIiAEWfgrQ3IAJQunOjOxMC5YiACEAMsyYCIAIQw2ukIYRA0REQASj6FIgAlO4U6M6EQEUhIAIQw3SKAIgAxPAaaQghUHQERACKPgUiAKU7BbozIVBRCIgAxDCdIgAiADG8RhpCCBQdARGAok+BCEDpToHuTAhUFAIiADFMpwiACEAMr5GGEAJFR0AEoOhTIAJQulOgOxMCFYWACEAM0ykCIAIQw2ukIYRA0REQASj6FIgAlO4U6M6EQEUhIAIQw3SKAIgAxPAaaQghUHQERACKPgUiAKU7BbozIVBRCIgAxDCdIgAiADG8RhpCCBQdARGAok+BCEDpToHuTAhUFAIiADFMpwiACEAMr5GGEAJFR0AEoOhTIAJQulOgOxMCFYWACEAM0ykCIAIQw2ukIYRA0REQASj6FIgAlO4U6M6EQEUhIAIQw3SKAIgAxPAapRxixowZduqpp1q9evXs7rvvTvmZefPm2brrrmvt2rWzcePG1X5mq622sltvvdV23HHHfN2exq0wBEQASndCdRJw6c6N7kwIlCMCIgAxzJoIgAhADK/RMkM8/fTT1qFDB9t5551tlVVWSUsAvvjiC9t8881tueWWsyeffLLW4d94443t3nvvFQHIx+RU6JgiAKU7sSIApTs3ujMhUI4IiADEMGsiACIAMbxGywzx4osvWsuWLW3kyJEGGUjMAHTp0sXWXHNNu+666wwCsP3229vQoUOtR48eNnv2bDdWIQnAf//7X5s/f76tttpqttJKK+UDDo1ZAAREAAoAcsRLiABEBE5fEwJCICUCIgAxvBgiACIAMbxGaYdIRQBOOOEERwBw2DwB+Oyzz5xU6Oqrr7auXbsWhAD873//s88//9yOPPJIO/nkk939XHbZZU6O9Kc//SmfsGjsPCAgApAHUGMaUgQgJiA1jBAQAg4BEYAYXgQRABGAGF6jUAQg8cOeAHz55Zf2wQcfuGzAwoULbdNNN82rBOjjjz92ROPCCy+03XbbzVZYYQWDEJAJ2H///a179+7WuXPnfEKjsWNGQAQgZkBjHE4EIEYwNZQQEAIiAHG8AyIAIgBxvEfpxkiVAUhHAJDiUDOw3Xbb2YQJE/JCACAZvXr1cn922WWXlJIfiMDMmTOtd+/ett9++9lJJ52UT4g0dkwIiADEBGQehhEByAOoGlIIVDECygDEMPkiACIAMbxGsWQAGOTbb7+1ddZZx+rWrWuTJ0+OrQj47bfftvPOO89OP/1023PPPQNp/SECfI/fkZ122smOO+64fEKlsXNEQAQgRwDz+HURgDyCq6GFQBUiIAIQw6SLAIgAxPAaLTPECy+8YBQCv/rqqy6a3qlTJ/dnww03tIMOOsjWWGMNu+2222prAJAAeTvzzDPthhtusJdffjlnAoDjMXjwYDv44IPdnzp16oR+XIgA49x3331Ge1JqGGSlh4AIQOnNib8jEYDSnRvdmRAoRwREAGKYNREAEYAYXqNlhnjppZeMP4l2xBFHWIMGDWzixIkuAr/77rvbjz/+aPfcc88yMpshQ4YYn+eMgCgGARk9erTtsMMOduyxx9ryyy8fZZilvgMRgNQ8/PDDjggcf/zxOY+pAeJDQAQgPizjHkkEIG5ENZ4QqG4ERABimH8RABGAGF6jkhnitddeszFjxrgiYrT7cTj+qR4OInDnnXdaq1at3HkHK664YslgUK03IgJQujNPty2yf/m2ww47zB544IF8X0bjCwEhUGQEqooApDtJNdc54PClNm3a5DrMMt9/6KGH7JBDDol9XD/ggAEDrF+/fnkb3w988cUXW//+/WO/zlFHHRX7mNU84LRp05zj37BhQ3f6cL4c/2SMp0yZYqNGjbIDDzzQdQ/6y1/+Us3TEOuzP//8865Na7Ub79cxxxxT7TAU5Pkp+l999dULci1dRAgIgegIVBUBuP/+++3www+PjlaabyoDkBlSDrMi2hun7bjjjjZ16tQ4h6zasd5//3276aabbMstt7RTTjmlaP37kRwhW+KQMwj1yiuvXLVzEteDk1kZO3ZsXMNpHCGQFYG33nrLmjdvvsznfvnlF2vSpIl99NFHWccI8oFff/3VnXXy4Ycf2l//+tcgX9FnhIAQSEBABECvQ1kiIAKQ27TRLnTWrFmuhz8dfejnv9xyy+U2aEzffv311+388893f5hnSYOiAysCEB07fTMaAukIAL/XHBiYSAAIPpD5g/jzd1i7/PLL7bvvvnOHH8qEgBAIh4AIQDi89OkSQUAEINpEUIRLtyC68LDhnnbaadEGKsC3pk+fbsi8yE60aNGiYJKkAjxawS4hAlAwqHWhJQikIwBnnXWWbbLJJtatWzf3SZx+SP5qq61mw4cPj0QAOJNkr732cp3QZEJACIRDQAQgHF76dIkgkIoAoPN955137JprronlLulSg8yoUtLL8+bNs0MPPdQ5/0cffXTRpD5hJgfCwubOgWMUJnLAmSw4AiIAwbHSJ+NBIB0B+NOf/mSffvppbSHz9ddf784Uad26tTtUMFUGgN9/upghIUWe+MYbb7gOYpw8jn3//fdWr149W7x4cTw3r1GEQBUhIAJQRZNdSY+aTADYADbaaCP75JNPljqgio0FCckVV1yR8fGp46CYm8JrbxdccIH9/PPPNmjQoLKG7uuvv3btQOno0759+7LU1iNZwnmAuFx00UV5Kbov5CT/9ttvjsxwTkMcRc+M17RpU6eHTjQRgELOqq4FAqkIwNy5c22LLbZwDnuy0co4EwHgvBPIAySAgvYDDjjAZs+e7Rx/CAI/Q15EllAmBIRAcAREAIJjpU+WEALJBIBuJz169HAbAbZgwQLbeeedDcdxjz32sBEjRqS8exx8HDEOt+JPYt99xqIgNdmpKiEYMt7KV199ZSeffLJ7hn322aciMhls+ByMdtlll7kzBDgQrRyNd4ooJlkZX3vx008/2RlnnOEOW4uih6bT1p///GdX1+FNBKAc347yvudUBAA5H+sx63IUAkCDADKyGGs/AR3WdYw2wgQGTjzxxPIGTncvBAqMgAhAgQHX5eJBIJkAEBUm+o8MCLv33ntdRuC9995zpCAdAeBnHKRFFBYCkUgA6FpRt25d56QRhSoX++yzz1xEjRayOJKVImFKxP///u//7Nlnn3XzTdtBMhzlZJAXIp84LhgElgJJMllXXnllpAPSyJA0a9bMOVm+hasIQDm9FZVxr/kgAG+++aZbzzF+byC7iQSA7n6+tqAyUNRTCIH8IyACkH+MdYU8IJBMAIia0kMefXui3XrrrS5inI4A+M9y+FX37t2XOXmXtnVEm6JEZPPw2BmHJMp23XXXuVQ4UX9OCq50gwhMnjzZxo8f7xyDciACZJ1WWWUVW7Rokcs6YRC24447zjibg2xNuhOScXyIdI4bN87+9a9/uf9G+oMxHgWVP/zwQ62sSASg0n8DSu/5UhEAOo6RaY2aAchEANZcc0175JFHXCZAJgSEQHAERACCY6VPlhACyQSA9PCll17q5BNxEgAitGhX+/btW0JPv/StvPvuu3bbbbfZ+uuvb2eeeWatU1myN5yHG0Pq9dhjj9lTTz3liACEDW1wKRpdmHinFi5cuMzt4bBnIgCNGzd2WQIcfxx+aleI/P/tb3+r1UNzoNu2227rxhYBKMU3oLLvKRUBQN5GNvXf//63rbrqqg4A6q34d+R8++67r3tnyVpSz4K+n/f473//u8u+piMAfJ/xEklvZaOrpxMC8SEgAhAflhqpgAgUkgCstdZaNnjw4AI+XbBL0fHorrvuclHfnj17xlJMGuzKpfspagQeffRRe+KJJ5wjvffeeztdfCkZ+n+6Gn377beRCAAZKX9CONkeTvOmuBujJSJZEJ8JEwEopZmvjntJ1wWI80bITB577LEOiPPOO2+ZomD6+pMha9SokX3zzTeuYQFrG+1CifRjrMVkeyHDH3/8sastoNGBTAgIgXAIiACEw0ufLhEEkgnANtts4xyhuDMARKYOO+wwd1BWqRi9r2+//XYnI+nTp09VSH2iYD9hwgQnlcEh3nXXXW2FFVaIMkzs38mVAED6tt9+e3dfFEEjHUokABQX08EKEwGIffo0YBYE0hGABx980HXwImOZyW655RYnxWSNy2Z33HGHjR492mX+ZEJACIRDQAQgHF76dIkgkEwAKKDkkBlkQBinQ1K8S+94IuVoq+knjVSCYjFSxyNHjnR/01qOTYlU9JgxY4yIP3+wBg0aOCfSSyqK9fhEtrlPJB+k0omelYpDWyxMgl6X9q7gRiTxH//4R9FxQ7tP1DJqBiATAUBaRBGx744kAhD0LdHn4kIgHQFgTeb9ZF3OZJ07d3aZzWzGmkjR+9ixY924MiEgBMIhIAIQDi99ukQQSCYAQ4cOdYWgOHsY3WHICCTaJZdc4rqucBgWKearrrrK9WHv2LHjUp/jxEo6AnEA1ZZbbul0q8UyNjnS2xdffLHVr1/fpcJLVdteLIyCXpd3gwgk78rWW29dNGkQ7Vl5/yCf3nCOfv31V6ftp7sJhBbJAx2qIKPo/pl3ZA/pCAAF0cid6JG+wQYbuKFFAIK+HfpcXAikIwBxja9xhIAQiAcBEYB4cHQFeGzg3tisvfaYn1HY5CO2/nOJEVyKGPmcb9/HOH5Mxknl9DEm30u8lr++/xn/77+ffI+Jj85hWTgQ/Ek07tH3KU/8eeK/+8/TNpP7T3yGmOBdZphkAoCsAv3znDlzMl4S52innXbK+jkGIbLEaZW0aCyGUdiG9GiHHXaw3r17F+MWaq/J3HLCMpKjcicgdHxC1kX3oM0337z2/S4UwPxu8vuGfpmsFUZGgKLHRKOrE9kenHl00eBOVypkD/5EZJ7jmGOOcUXPkAiKJ3lvfHehaiAAfl1inWKt8+sV7yw4Jxr/lrx2sR777/rPZlrP/Wf4Hp/Dkq/t12/ujTWan7MulvvvTpDfERGAICjpM0Kg+AiIAMQ0BziWG264oTvWnMgeXQtoKzlw4EB3fDmaXe9c09kAOQet0diwMQqbKHqiCMrbsGHD3MFAdHYhaplonIZIoSPOoXd+6X3PpoQzQI90nAr64NMthDZpRA99ARbXxmGgiJDN6Z///Ke7Dp1UuD9vjLnOOusYemqcCRwmxiON+9FHH9Xe/3PPPecONmrZsqVxaEu+LZkAsBFDAIiQ+/7Qqe6BQ5KoF/BFlJnuE+cK/Tg9pgtpOHBEgJlHMhbFaOdJNoW55w/Gu0JEmne7GPcTN/78Lr7//vtOKgMR2HTTTeO+RMbxyESwZtCmNpPdfffdrlsK+ulsxjpDrQPvj3eCK50ADB8+3Em76AI2f/58V1RKhoVzPcDAO+geOxxwCGDiqbGQLDrNMB/e+AyF2vzBOIWWd2Tq1Kmu9gYjO4hTz3f5OesrUkLv5EPSZsyY4cga6zBrM+OS/alkEwGo5NnVs1USAiIAMc0mDn3Dhg1rNxwWfPSJtPpD88uG4zcj9IpsJkT1vGSF6Cqa4EQCwGbOIUcUQzGGt9NPP905/6+88oqtvvrqRlQLWQC9w+knPmXKFFdExSaI8f8UsxJxRNOOoZWfOHHiUs460WYiZjfddNNSqLCpETVnTKQTGIWoPI8/nfHUU091B06xIadqbxgTzLXDJBMA7me99dZzmKL1j8PYvNmsCxW1Q2pEl4y2bds6AsDcFsuonaBGgnekko1oPIfB0eb16quvXsoxzOdzz507160XkOl0XYp4l4n4Q1R8RD/TPREUIGBA9yNvlUwACFbw+4KMj8AE6xGBF7Iq1PqkIgD8G064z6AQeGEuHn74YScbJGiC8RnIITJA7D//+Y/LGkGE/WGBBEoI8LRr186t3Ui1CIpsttlmric916Aeg7njPYPsse4mEo18vmPFGjuRAPDczIkvWi/WPem6QkAILIuACEBMb0UyAcCZw4EjIoXjnUwAbr75Zhfh9VH8ZAKAw0+rM4gEEgAi8BQwErmk7SNdD/j/RONabEJvv/12rWPuf85hQcg3KLDCwhAAoupcj+hXKiPiyCmN9CPHCSFijiOST/MEAOcNvT73lijByue14x4bpwLyRstKsPMFyHFfJ+h4OENIjshI4Vgxl3RXwqnCKYUk8nMkUvwb7x2kkfeVf+OdRjaFs4WGnexS8+bNnY4dJ4qibN5h3mWcKf672Ma7QxYLJ+2UU05xkfR8Gs4qGJExi0Myx3hk/TgDIdEqmQCwlkGekESlsiAEgHWL951sK5mtG264wQ2VTAD4N7JfZENZayBmiQSA95x+9GRG1157bfc7QmY2MdpPYIR3HWkX2YJKNQgA+NCoAFJFMIMDCmVCQAiUFgIiADHNRyIBwLFBskOaHyeKCHoyAaCzDA4Hjj8bQjIBOPvss13UiQ0JBxynnv7mRPtJQXO95Eg3Gw6OcaqiVaRJRPHpdIOlIwBIPnDqMIpl0cAzJlGudIdh0TmHaDHZDKRGOIeQnnwa98SGS3bDS6uOOuqofF4yL2PjUJNFoTOR73OdlwuFHDQ5A4DzwnvBO4lWnTlmvunTzXvJCbX8OwTg5JNPdsSVg8l4hyhe5j3mnYMk8q7gsPIukmXBSSgVgwjwPBAa2gt6iV6p3F/Y+6hkAoAEh6AGNRBRCABOO0Ea1ksyiGTeWFeRBKUiAFwDQgxZQG4IAeD9IPOIpLJNmzZGowHWamSGvt4g8d4I5rAvJJ9YHnZeS/nznTp1cmsDex8G2fEZl1K+70q8N5QGvG8yIZByjazZiH+vYqoCu//++/Om5/YEgIiSl8aQXmbxQ5ubigAgxyEyT4tK0tCJEiBkQmQJiEQSMcWBZ0FlU2GD4no4VomGVICsABtbsjEOGxxkAguTAWDxps84+vlURiaDsYkUo8Nlk0OHizY2XwYBQG5EJ5/77rvPFdqV46vMnOMcL1iwwCB9vntLvnALOm4mAsA7BPZEOjEi+8gcPvnkE0cA0K1DcDEIJQ41/8Z7glbaR/yRv/C9UpFE8Ls1YsQIJ/vAcS5269egc5Xpc5VMAFhbzz33XHcOQsrNLUUNQKIE6LTTTnPv37XXXuu+jmSTIAd1P+kIAPIeWsp6AkBgZOONN3bRbvYXSABZSSQvkOXkehmCFpzaTSasUg1JFsEADqzj1Gtq4ZQBKM5s4/yLABQH+3K4qjIAMc1SsgQocdh0BIANDBkAml0iqEgpqAHASaL4zKeJiXATUacQEEecTQRJDk5wohHJIkpLNCuxkJfPsHFBSHDCsDAEAIkNm1qqbjg4/ETAIDO+4wbyJcgA2YN8WWINAASJ58H5LFdDBgSZQQ6CHMh3hynW82QiABAVZF+pDurJRACoZ+E0UOpUSslw/JGR8HuDM4kjSDepIUOGlNJtRroXirkT64ciDVKiX0IuB5kko5SOAECsfS2Nb5PKPLMeso6SRfXrFsSPBgJglooA8M4jASLTSqAnUQKE/Ir3m0wZv8OpJEC082Wt5DrlnlnK9Er4GgCym5AlgjPF7mJWoq9w3m9LBCDvEJf1BUQAYpq+qASAIimcffSl6OchADj5yEISC4KJUhF1ZTPHQYQksOmwgRHxJ4pMIS7OFYQDZ51MAcZ3cWZITfvoaxgCwIJOcdzTTz9dW3fAtbl3Ov6wWRLl9ca1yQiwYcahb041RclFwDFNY9GHgQQiI4DIIW2gs1QxDAKAjA2ZGpYoAaL4nJoAZD5kocgAEP0na5WJAHCWAdIAuu5QoA5hJQuAU1QMw0HhOalZIJKcTJqLcU9xX7OSMwA46nQ1Y12CtOFo8m7hnPMu+voVmiawDpGVQnpD0IKACmss76CP0kMMqFUhe4mkJ7EImEwdEkPIhO+MlUgAWL/5GWss12a95PpIyXjXedfIEvj1Mu55LqXx1AWodGYjXwSA3zWCkMi9fH1iqqfmVGcybayz/rRyPkfDEIIspVD/VTqzVfg7EQGICXMIAAVfqQpRccjZENgEMDYIHGbfepA0KWnkc845xzl/SCsmTZq0lAThs88+c98jrYyxGdGhBQcRAoDWmo4T/Jy0NJ0XGJONjG4jbH6+AxDfh1xwDRx5byeddJIriGMD9cYvLt9H54/els0S3TfFd3yflDfRHQq9vHE/yH+452SZUkxwu+xHuqLkuK5RzHEgTxxkhnPMIltoaRDvM3IyiAgOFO1IE4uAcbx4p3iHibJC+Ij2ZSIAkBsKhdH9804RCUVy47NShcKb9/Pxxx93kWP03IVuAVqo5+Q6lUwAeD6yjHTiIZpPf3/qo6gLQtpDZpAsARke34mH940sFJJICqaRXyYa3Xt4H5FcsmZDLDBkarzjOPSsfxgEgKwqHdYwJJLIEQnSQAh8EwfWYX6fGIv11QdmCvkeFPJaIgCFRDvztfJFAHjX6cLFPkWtVHJDEn9X7AlIRnH48UV8xzN+T1n/RQCK+66IABQXf109IgKVTgA8LBA6iBekkO40XncfEbaq/hrZBkgrTiPdfootsyrEZFQ6ASgEhrpGOAREAMLhlc9P54sAkDWlDgb1Ag1MEgkAtVPU0lDnAgEgU0DGDTJ+wQUXuMcVAcjnrAcfWwQgOFb6ZAkhUC0EwEOO3IpiOqKHRF+IqMiCIUBWju5USOGI0CZmwoKNUL6fEgEo37kr1zsXASidmcsXAfBPmIoAkD1DFUBNjCcAdHyjEQqSO7IAIgCl8Y6IAJTGPOguQiJQbQTAw0MhIwXWEALkK76AMSR8VfNxTtGl/uWee+5xcip/Qm61ACACUC0zXTrPKQJQOnNRDAKQ+PSeANDABJkwsh9kxyIApfGOiACUxjzoLkIiUK0EwMOEnp6Ta6kfQZec3G4wJJwV93HajrLpDBo0yNW0FOo051IDUgSg1Gak8u9HBKB05riUCACF9HTR8vWMqgEo/nsiAlD8OdAdRECg2gmAh4yOJfQVp7DWdxyJAGdFfIVzIGhNSoSJugmK5qvV8fcTKgJQEa92WT2ECEDpTFcpEQBQIRtLN0NIAHuXioCL+66IABQXf109IgIiAEsDR0u1u+66y3Ur4dAdOqJUi9GSjo4+tKOlFW4lHOAV19yJAMSFpMYJioAIQFCk8v+5fBEAgk7sNay7dMeiroouhrS85XBTzoqhc1yiBIinRcJKxy66ZJHFFgHI/zuQ6QoiAMXFX1ePiIAIQGrgIAIcasXBYvTdR2tZqcZmQjcf2j3i6NLaUbY0AiIAeiMKjYAIQKERX/p6nGfBWRUERqgRw9GmAPeQQw6pbWGb6x3SznbevHlLDUNraKSoSC8JwtD+9v3333efozDYG21yObuja9euVRWoyhXzfHxfBCAfqGrMvCMgApAZYhZdDvJiQSYqvtZaa+V9Tgp1ARx/SA7na9BqjtNbZakREAHQm1FoBEQACos40kfWQg7k4swL2htzloVvGQ0RIDvKIXn8nJooDrlbc801C3ujulrJISACUHJTohsKgoAIQBCUzL7++mu76qqrrF69eta5c+e8HcwW7G5y+xQbGV19OICGU5J322233Aasgm+LAFTBJJfYI4oA5H9CcORx6l9++WXXWYdD5jp27BioGQQReAIo1EdRJ8WBeNXUGjn/s1M+VxABKJ+50p0mICACEO51oFsQJws3adLEjjjiiLIiAvTxf/LJJ92mddZZZ9lOO+0U7uGr+NMiAFU8+UV6dBGA/ACPbh654yuvvGJvvvmmHXDAAU7Wk0ujA3T8FOUuXLjQHeq1ww47OOmOrDoQEAGojnmuuKcUAYg2pd98841zotGEkhEo5ZOFf/75Z3vppZfcSZMcJNO8efNoD13F3xIBqOLJL9KjiwDEB/yPP/5os2bNsn/+85/2+uuvW7du3fImeeSQLop2IRidOnVyZKBhw4Y5EYz4kNBI+UBABCAfqGrMvCMgApAbxGwsdGmgcJZirFI6WZj0Nqltipivv/5622qrrXJ72Cr+tghAFU9+kR5dBCA34FmbkfUMHjzYtcvk7y233DK3QUN+m4MmaanMYZMEjPbdd19XM8ApvrLKQUAEoHLmsqqeRAQgnummgKx9+/bWqlUr69GjR1EXeDT+zz33nHXv3t21NKWdnCw3BEQAcsNP3w6PgAhAeMxobDB9+nS3BnNYFllP6rZKxchA0NqT03x79erl2n3mIj0qleeq9vuoKgJAlJO2WLLyRwDNItpwWTwIEHUi0rPeeusZvaMLvbg//vjj7rr0l6Ywbfnll4/nwap8FAjAU089VeUo6PELiQDvm+R6wRB/4okn7MILL7Q2bdo4ec/qq69esq0xCRb95z//cR2HBgwY4LoNDRw4UL38g011SX6qqghASc6AbkoIlBACnM7IQWLLLbecXX755XknAo888ojdcMMNNmjQIFegrBRzCb0MuhUhIARiRYAs59133+1ObSeavv/++7ugS506dWK9TiEG46yZjz76yEmFFi1a5CSbkAJZ+SAgAlA+c6U7FQIFQ+CTTz5xBWEQgSuvvDJ2IkBKmY2wZ8+ett1228U+fsGA0oWEgBAQAhkQoHsPBxY+//zzts8++7guZptttllFBTsgAx9++KFNnDjRPv/8czvxxBOtZcuWei9KHAERgBKfIN2eECgmAizqo0aNcrdw6aWX5rxp0cefA2loRaoDvIo5s7q2EBAC+UJg7ty5Nnr0aONkdnr0/+Mf/6iaZgZ0E5o2bZq9+uqr9umnn7pDych0yEoPARGA0psT3ZEQKDkEIAK33HKL06gSta9bt26oe+R4eB8BIwomEwJCQAhUEgIzZ8401jmi4bTPbN26tW2++eaV9Iihn2Xx4sVu3aerG3VmtBal6YSknqGhzMsXRADyAqsGFQKViQCnSI4YMcIaNWpkXbp0sVVXXTXjg6LxJy3MoTX8kQkBISAEKgEBimLfe+89o5CXE9fXX399O/TQQ52efOtvAAAgAElEQVSmX7YsAtQ/QAaQfxJA2nrrrR1JIqgkKw4CIgDFwV1XFQJljcDHH3/sWtWh3+c0ysRFnI0RmQ8a/4MOOsgOPvhgV0sgEwJCQAiUMwK063z33XddRPuDDz6wxo0b23HHHRc6I1rOGMR17xxsxh4BGWAfQSZVv379uIbXOAEQEAEIAJI+IgSEQGoEKPiijd2ee+7pDotBKgQxoAhMEX+9NUJACJQ7AshY6Hbzwgsv2JQpU5ye/aijjirZdp3liDcHng0ZMsQ4BBKJ6DbbbOMyKrL8IiACkF98NboQqAoE5s+fbyeffLKdcsoptvfee1fFM+shhYAQqEwE6HdPAe/DDz9sjz76qDsEC8e/0OejVCa6mZ/qhx9+cC2okVedeuqptu2227rD0YR9/G+DCED8mGpEISAEhIAQEAJCoIwQIPr85Zdfugwmh10NHTrUWrRoUUZPUJm3ynwgFerTp4/tt99+TjIkMhDPXIsAxIOjRilxBNBu9u/f3+699177+eefrV27di7lqJOhS3zidHtCQAgIgTwigLznzDPPdI7l1VdfbRtttJFOIs8j3lGGpq6MPZw20pdccomru+jevbvmKQqYCd8RAcgRQH299BE46aST7K677nKOPwuJtxVWWMF22WUXp+uUCQEhIASEQHUgMHXqVOvdu7ftvPPOxv6A3vwvf/lLdTx8mT8l3YT8WQP+BPkBAwbYyiuvXOZPVvjbFwEoPOa6YgERaNu2rWvTluj4J16e7jR0cnjrrbfK8jj2AkKpSwkBISAEyhIBosfjxo2z4cOHOxlJmzZtXCtjOf1lOZ21N82+Tv0Z9QJjxoxx5wuce+65tuGGG5b3gxXo7kUACgS0LlN4BE444QS77bbb0jr/iXe011572aRJk9SusvDTpCsKASEgBGJHgIwv2vHnnnvOHUBFtL9Jkybq3hM70qUz4Lx581z9xksvvWTffPONy+7QUUiWGgERAL0ZRUdgxowZ9tRTT7kOMnEZUQFOY6SbQxAjcvDss8+6TUImBISAEBAC5YcA0pB77rnHOKeEKPCuu+5qzZo1K+miUdqMvvnmm7bjjjvmDfCbb77ZbrzxRpfprhbjRGbI3zvvvGPffvuta0tN5kf2BwIiAHob0iJASg0WfcYZZ9R+Zu7cuS5Sfswxx8SGHI73xRdfHKsWn0NFXn311VD3uMkmm7h+z8svv3yo7+nDQkAICIF8IMCBU6y1nDB7xRVXpLwEp3NvscUWduyxx7qMpz90jw42SF623377fNxayYxJu05Ol+XvVVZZxQ488EDbaqutyiab+8wzz1j79u2drj2bXXvtte6MFZ4zjNHRiHeBw8sy2axZs2yzzTazjTfe2H1stdVWc80yqJUrZyMb9OSTT7rMAMG+nXbayZ1CXKdOnXJ+rJzvXQQgZwgrdwAOduKXZuTIkbUOP0d59+vXz55++unYHjxuAgDz5zh2funDGEXBnE7IEeUyISAEhEAxEXjwwQftggsucBFsHLJ0BGD69OlO5kAbS8jApptu6m6bfyPyW4kEgOfkYC6yx6uuuqp16tSp1mkt5pzl+9pktYlq83cYC0oAyJxwKu/333/vhud7tN8kox6WdIS5v0J/lrrACRMm2FprreXOGYDg8B5Vm4kAVNuMh3heCAALzWOPPWYzZ8502slkAvDjjz/atGnT3IJBJwUWD4yiK37BSMG++OKL7peLqDwZBTR6a6+9tvt/zBOAO+64w6Xr+KVk0yIST1SHsRmP/6aAiwgXx7ETrVhjjTXcNROLuXDio256t956qx1//PEhUNJHhYAQEALxI8C6ShSfPuism4kEgKwsByaNGjXKIAB77LGH9ejRw2ne+R5RzkoiABR78pxkddlPIDnUeLH+l4OxJ5Gh6dKliw0ePNi1HCXDTm0CJObggw92hazMMw4pB2Fdeuml9sUXX7g5PuSQQ1z9Aietr7766vb3v//dyBywZ9K6lKAXgStII3st0te+ffva6NGjXXaI60ycOLE2A3D99de794p3qGXLlnbdddcZGfBkAgC2OP7vv/++/fWvf3XvGOOwB3NIF9fAL0BeA1FAcw9ZxWcoFyPLRuasfv36tZIx/JNqMBGAapjliM8IAejWrZtddtllzllnwUgkACwyLB6032ratKlz+FloHnjgAfvpp5/cQtSgQQOnuxs/frwxHosW/89Cdcstt9hhhx3mCAALB5sWGxkLIwvN+eef7/ScLFaMx9ikMYcNG2Y33HCDUbjLZscCNXny5FqdJ5sjn4lidA1igZMJASEgBEoBgVQEAIeNNREHzBMAAiScmMpZJ5zGXQkEAIcYJ5bTeJFBEZxZaaWVSmFaQt0DBADZCRIe9if0+PxNcIvCVU4ZRn7K8zKHSII4hZh2peyxOPjsp4kZgEWLFlmvXr3cnogR9DrooIPcvkmWnn0VuS6yXa4NcUACxLjst2RRIFCMQUafwFwyAaBFNs79V1995aRV7PPsrdwP+/GRRx7p5Lt8Bt+AMdddd91Q2JTSh5kDWovi23CyPbhVsiRYBKCU3r4SuxdPACimokCJNOBrr71WKwG66KKL7JVXXrHHH3/c3TmnKLJAsTD99ttvbsFicVtzzTXdpkSRLwsM7Pr22293TjwOPAtVhw4d7PPPP3eaPBbLVq1auXEgA/T4ZZPzRvTk7bffrk3ZQU64ByIdGPrPbFrHdFCzIFIwJBMCQkAIlAICqQhA4n15AoCTxjrYsWNHFzlmDa0ECRCBJZxMouBIfXAwy027zZ6Gs4yD6Q1HHwebZ0kkAJtvvrktWLCg9nNkxNnvyLAnS4DIjCxcuNAoJCZ7/fXXXzuSwX6NY3/44Ye7cRIlQGTL2Y8hC96I6JOJwNhHkcRwD5DK+++/3/bcc08X9WePJ1KOIQ/GSUYdAAGAnDFH5WgeRwjMwIED7W9/+5v7G+wr2UQAKnl2c3w2TwD4u2fPnkaq7KqrrqolAPw7C1dikTCLBIsdKUoIABIhIjaPPPKIi1Z5x5yIztlnn+1SmqlqABgHiQ/XZGGjS1DiYpV8gi/RCxx/DMKRuICGhQG5kY4aD4uaPi8EhEA+EAhDALg+/e2RY9x0000VQQASMSUARVZ6yy23dDIZgknlsFanIgA49JxNQKFtFAJAzcduu+3m9lswYN/iRGMIANIx+uGnIwAUwya2x0wkAIk1AInY8xmyTl5uWwkEgEAlqoRzzjnHKRSouammsyFEAPKxYlfImIkEgNQkkRekPGgOSRnycxYLjubGWJCIZuDkE6mISgC4Fgs7+kSul4oAEPVAk5jKiOKTooxqRD/Ql8bZ6Sjqveh7QkAIVDcCYQkAEVn04qyDBF6i1kOVMuo0ePj000/d3kP3HGQpYQtjC/l8OOnUrxGhx5D+sMd99tlnLtMdhQBAhsj2kAFCh09GnbmHACBlZR+78MIL3fUItpFJYW8mO8AfZGQYLUjpiEPmm6BbOgLA+8QYyGKw/v37O4kSMqNyywAgP0ZaTB0DWSV8iUqW+qR710UACrkKlNm1EgkAt84vDZkAFggIAK3XjjrqKLeAEHUi4gQ5YBHxNQBBMwCkGNEmojMkrUg6kvQoNQDJBICFkwUN1o6hEaW4yhvRITILUQydJASEzYUIE/In9JQyISAEhEBQBJDiUFiIHrt58+ZBv7bU51hfyZSyviLxwGkj+k2mkwAFTiT1VokSID9Au3bt3PpM0WwlEoBEoNhjZs+e7WQtOMVgXmptKyEAu+++u6uXo+CXyD/tPJG3IosNSgCokeN5ifDj3G+00UbO2SeSjTyHfRQCQKcgn6Hn/UDKQi0ABIDgGV3yGIMaPd4xnGH20FRFwB5rxkWKxfUgC4zF2AT6Sp0AQBghSBAY6h9oTlKvXj1Xd1jNJgJQzbOf5dlZQHC0iQ5gRPip8Cd1yKKBoeWnFoBFZZ999nG6OZzmZAJAYe15553nNjOM/0ejSHcBJEBE+llU6B7AhkWRFBEdCAB//PX4LlEOvkvREb/EREESnXR+wSErUYwFFuKBoQtkQeT61DKwSFZjlCAKjvqOEKg2BAh8ICEgAIFDx1rJ+oazx9rJ+sd6FdQ++eQTF0xJNMgEEkcCJDh9SC2JILOuJjq9OIk4w6ylldS+MRt2YIGOmzUcp5vaMrTuxZYJeQkQexbdfghiQeTYT9gr6WpHLduvv/7qZK84qN5w5vkZ2XWkrXTKIxpP1x+cfoJdOOGNGzd2+xR9/DGyC+xfOPvo9r1zz88IcvFu8g5RcwARwLgX6vKoH0llvHfU6iHrpSDYt86kRoExSqkrEzWL7NlgRFE8RcsQJtkfCIgA6G2oOARIS/o0ZdiHI4uR6kRiFr377rvPbbx0RaqWNmFh8dPnhUA1IUDggy4sOF444AQQKCBMNgp0cUppmoDjRMGkggn5fVOI+uKY4lBDCtgTkHsglym0paoBKPQ9VMP1IEO0TSV4R6CSrJmc/vQzLwJQDb8VVfaMZBIosCJtHsbYkEmZ04c5nTE2kiTSqaThifbJhIAQqB4EKLYkI0k0l+gq0X6ir0EMx4QIKxIhtOtIJ4j2FjtCHeTey/kzzBm4Q8KoDyPqTVvRVGQtH88JAUAuCxGRxYeA/31CPsz+TfaDNuO+U1F8V6rMkUQAKnNeq/qpWBRIlZMqDWNIl0i5B4nMkSodMWKEIwJoOok0yISAEKhcBIgm47gjn0Du6FsjRn3i//73v+48FBxTiAT1T8iGZPlHgLnEaYQYcAAWc8n6Lyt9BJAtEahDOkwdDFIquh1VU/eeuGZJBCAuJDVOSSGA7o+FPWgWgAgcx4P7eoegD8MGMnLkSFcMBRFAO0m7NJkQEALljwBdW2h48MILLzi9/XHHHZcXRwNSgfwQ7T5SIrICtIeU5R8Bgj7IRqgfIHBEMIeThmWlgwAHc9HqG3kvZymwT5PBqfYi3lxnSAQgVwT1/ZJFgKgAETYyAtls5513din9XFLxtNyjToAaAk5v1OKUDXX9XAiUHgI4G2QP+X3GMff95gt1p3RX4bwVZEVIhJAZBslKFur+Kvk6RJRpQEFAhywPxbcEkhTUKfys0waceeC8ATI2Rx99tOtspLmIby5EAOLDUiOVIAJE0ojeZSIBFAmx6caVQqQjB61Mr7jiCkcEyvHo+hKcSt2SEMgbAshxKNSldSbSELqK8btbTGPN8ueucNgiUU+aD8gBKsyskN0lK8NJuGR+kAlxFk4xiogL88TFvwpF9bTgpvMeJPzSSy/NWJNX/Dsu7zsQASjv+dPdB0CAVCFFe7TiSzSianTkILWYj02V6CGHv3AqJ5G8VMfXs+BBQPJx/QDQ6CMhECD1TAvGVIbDSAFa4nkUIYZe6qN0L2EsNkJFfqOiGOx7RPvpEsPvKO2D6c1eqsahV2QpBw0aZFtssYUln4ZeqvddKfc1ZswYd84NxbwQAg6PUpY399llvaM4mnbi4MkBZTTxkOUfARGA/GOsK5QAAhTtdu/e3R2cQ69l+gKj3S9E32KuTfs5tKX0Ak80CABOXt26dUsAJd1COgQgj6SkUxEA+k1DJIkgeyLXt29ft5FB7iCfyAjSWdeuXV2WiNNMvXFCJae5nn766ZqUPCBABx4kgnSDQeKDM1cOJJxMBXUJyAw5tJDDjbR25OEFyTAkRaicsdCjRw/XWpS20BzwJQuHAGT2zDPPdPUuBFDYi3OR4Ia7uj4NAiIAeg+EQIEQ4BCXwYMHu57h9A7H8RcBKBD4OV4mEwF46KGHnLPPgT3INiAD6LfREr/44ot25JFHunQ2zmaieeLAxscmyDvhDd0rUWk6xMjiQYBoP5ICDmLibwo945L9xXOH4UahYBi5IaezkuWENMoKhwC/6wQFOLDtyiuvdL/7ZGc22GCDwt1EGV0J8spaSSaLczB4Z9dZZx1lsoo4hyIARQRfl65OBIjgoTOmuwiEgG4fiuKV9ruQiQAgB0CSgcNOJxFOx+S8CN9jHO0wxWu9e/de6iHJRtHCjhoVHP1EAkAXK7rOEKmW5YbA2LFjnaaYLBxdumi5WUmGY8VBhZMmTXIO1vnnn7/USbKV9Kyl/CwUECMTZA6YD06rb9GiRSnfct7vDdJ922232YQJE1zGjd8/sqKSTuUd+kAXEAEIBJM+JATiR4ADaSg6JBIiAhA/vnGOmIkA4KizySEHwPFfa621DF2rr/kg2sWGd/PNN6e8JaRoHBSUSABw6sgQ0QUj6CFTcT5vuY9FXQ/yGDroUDy79dZbV4XTwXvKuwQZgDwiU2nYsGG5T2fZ3T+ZXbIz/hRiyCey02ow9jXOyJk5c6Zz+HfYYQeX/ZS8p/RmXwSg9OZEd1RFCEgCVB6TnYkAoB1/9913nWY/FQGgI5Q/LyLV06YiAHxuu+22M2oJDjnkkPIAqch3ieOB0w/5IvK61157OW1/tRqZxokTJzrJEyTgmGOOsVVWWaVa4Sjac/tCcw6vmjNnju22227ud7qSCvx5rjvuuMOod6PeCUljsuSxaBOgC6dFQARAL4cQKCICIgBFBD/EpXMhAKmKfBMvnYkA0P7x2GOPDXGn1fVRnH3kBRRlIrmi3kInui77DkACkB3yHhOVrZZodKn9NpDZQ/L31FNPuaAAEsD999/fyQbLyah3eP/9993J2Eif6tevb+3bt7cGDRqU02NU/b2KAFT9K1D5AMyYMcPpMufOnetO2qTwj37O7dq1c1HbYpoIQDHRD37tTASADiBE93iXeL+o6aAFLF1aMBwuoq8nnHBCygumIwD16tWzcePGue5Rsj8QwPlA4kOhNAX1RFM5PVeWHQGcTggTp55TBM1hV5KYZcctX59ArkWNCl3AIAO777678XtfigZ5QdZEYwNaFBPh79ChQ0E66ZUiHpVwTyIAlTCLeoa0CFD8R6SC9puJ6W8ih3RsYLEtZu9vEYDyeHkzEQCcT3rIc1IlmySnShMJO+uss9xmSTcgIrC8f0TKRo8ebW3atHGElA4iHPb04YcfuiJi0ue8kxAJItrouFUf8vs78sUXX7g++DivYAypUjFh9N+fxYsXu+5V4IpcioPPCtEWOfodV/Y3KSBGOw/BhQg0b9686NksCCOn8E6dOtX9oZ6mY8eOOtyyQl5FEYAKmchKfQzfTSWKXnLUqFHOoSICm85wzHAocNaK0QdcBKA83txMBKB///6uWPe+++77f/buA1yWqtgbfr+v2YsKSpCgSBSuCBwkSJSgZARRJF+RnA9ZJHPIcAEPQUBJIjmDIOFFsgQBEypRkCwooqAXbnq+7/6Wt7dzhtl7pid1z0wVz3nOYe8Oq2t1r1X/qn9VjT2MMpPq/+OiT5kyJfUP0H+Cp+/nP/95KhWqw+jxxx8/jQL22Wef5NF2jL+feuqpwVBQj0aJP023Z511VurAql54Hlnp0S1H8rKAqHKigOuGG26YvLvRaKy8V0HJ6BNPPDF9/xKIgQHVq/qRSOubc1/5Iyg+yst+6Utf6su9y9P4aN45AMBoznspT21jQcXhtdPpj2e0GRfVsTowfuUrXyk0ZtSAO+64I4Uom8mtt96a6hGXQQcKANBsdqrx+4kAAM8Y7z8P3kTi3f/ud7+bNtVmwjOL4gJEjJrwOuqRAMCjQEkujITC/r0F1k2lRJW3ZfhFVKB/um90J9+DaPXNN9+cIo3KCgPB7TjFxnsSRr/SwyqVqVykVr9k5ZDh1kAAgOGe30o9nXKXeI48olp/K59osVlqqaW6Ok6dGueaa67smWeeadlrwVOLrsFD208JANBPbbd/r4kAgKvynHp/JkpAXXPNNVOUoJXKNCIEjlXGclSEofPDH/4wO+CAA9IfdcNDytOA+eCkOfnkk1O0ioOkm0ZneU822HdWcviYY45JXXRVGOMkayd6bX5x+ffdd99UvYfTYb755hts5cToC2kgAEAhdcXBnWigFgC4jtCixknnnXdeatSz9957J97zaaedNtbIRjkxv9c8RMKUcChOtPCkRN5GInxpUSxSDUQJQaUc3a+fEgCgn9pu/17NAAAPmvB8Xvu//TtliQOM+583EuvkWoNwrsgJQ4bHcfLkySmJuh9Uh0HQTRXGyFBU6UVUwN8nnXRSipiGlKcBawSjXfdx3nrcfFRENLlmomCBJmWLLLJIyjuScxR0r2ZaG87fBwAYznmt5FPVAwARAAa9ajyoDptuumlqHrLeeuslY5wX3yJ1/vnnJ2Pf/wMB2q+jR0jsbSSSlNCGiooSgoBIPyUAQD+13f69mgGA9q88mmdKwud55ABQ6hTFR3WukGprwHolKXTq1KnZEksske2xxx4tGZ3VfqrBHh0woOqYqLpmguhBconykpx+L7J27LHHpmRv++Mcc8zR92j3YGt5OEcfAGA457WSTwUAqHwiKVcdZN4khn497UbCEy6iDoI5AFA9xR8LmUVsPGFQyBdohWddfw3VgI4++uiUsNkvKQsAqPyhikqt2MzRVMyRJNYnn3wycYB5Z3PRXOi4445L5eBWW221bNddd01eb8CJ11pUJ5fnnnsu23HHHVO3Y+LaDOlcbEL43XjejAoJno0EQFRq86KLLmor1N2NuQwA0LkWJUGrgKRLrdwcnZMlNoYMngYYlSiW8gU4b6wla6+99uA9yBCOWP6b4hai5BLorbsqPC2wwALh6R/C+e7kkQIAdKK9OLeQBgAAZRIZ6DZ+3H+GHSOY9/2Xv/xlhr/Pm6FZSi0AwIm+5557skMOOSRjWB5xxBENO6Si/9x///0pslBULJhC24sttljRU9s+viwAYGPgwVOCMhf1wJWq9LcQ8cILL5yaBzHq/ZuRruQlKoC5Mx9C0Ay6I488Ms3bCSecMHa9hx56KHWzZSwQPFWJnblnCpXLHOMZi/K4Xr2oTmLuGeBKY5YVqg4A0PYrnnIjzC8vv/KGkyZNav9iFTkTd1oypojlqIs125p72223pURSTgHGZkj5GhAlP+qoo8ofSIygkhoIAFDJaRnOQdVTgPKn5A3kDVaGToKkhFx5APUAID9eLXB11NWxrhc1/xlr7RgZPFo2dHzKfkmZAEAtdeXmakVFJFSsl156aZqf2+Rx0vF/t9xyy7Hf0dc888zTMgAQpq6v6DIRAFAmE6gz54CHSlJlSACAYloH0oE9VB/fs2gRsF+2eH9FpUSsRB/RIYwvF4DYuyZ/SGUn+QgEXYmT4oILLkjRC/XaJWmrygLQMnrzpNlnn302lW2UxAywipb5TlAYUROB6c0333zsniJuEjsBXNHNlVZaaex3qI4Atm/POcblXXRvDhNFFapUlx09k9OAg0HEliNmxhlnLHvaR/b+AQBGdupbevAAAC2pKQ7qhgbGAwA2V4bnXnvtlTz/55xzTqII1QIA/GC0FGHm22+/PW1+vM/1on66DQegKCoABQ5lbqigJtnAea5rW7Xn/0Z9yZM+nSMBy7F5lReJjM0qvpQJAHjnGWm5oNowQkQAUH9EW2ziBF1LOUCAoVFyaqsRAAZYTvvwPpDxAID5cKwmWYw1hhcKUhmVSAIANP+aGPs5ncu7stlmm42bqN/8ar05QuRqzjnnTMa4MUqcRGPxc+uQqJX3zN+MbzQ4ESxrATriFltskaJa1ielGVEGJVEqZ8xwZ/iLIKKrqagCKOQFDlR08o2h0Em+3GmnnVInY1E14MJ4UB9Vd9l+++0TPQ4tTkUkBrV1bb/99st8N8YjmoLqqIAB73vVRHI3wCPqay2no2jc1t9ZCgDQX30P2t0CAAzajA3weJUZY1yuscYa0zyFDRalxyYnAVh4nQHKs2wB23333dPmaENk/Asv46s38iiiqTDQbfBFxUbKGMCXJPIJVHfJk6zy66G6+JnfqcRA8N8ZiTY7zcuIf+ceduAg3/xs3oCCP0ACYNPvbq90zaCpLbXI+KDT3/zmN4n289Of/jR5OIWQAZWZZpopPXOjUqmtAoB11llnDEyhhUwEAJSI5YV94oknUrQHmBKlyUFJ0fnt5HhzKzLSjSo/nYyjyueKEnnPc/pYFSv5MPS33nrrse7fPNS8/CJNkidFAPI5Fgn0rVt7vPPoaDl4tUYxwP1NAAYVxOS75CUZnW994BGXNIsmQ9RzX2uttVJjOIDCuuDdIpwanCGaEwLaHB3zzjvv2LT7f9GUvFiBdce51qoqimd84IEHUtlKRR8AppD+aSAAQP90PYh3CgAwiLMWYx5XAwxbmzavWlFBH2K897MUaJkRgEYUoFqd8bwzNj772c+myIjkaAZHbTQkPx4AQGXg4c+lUQ5AEQoQEPL888+nMndEMptEbVSxfktEAFrTOGCsay9DFoiX6Dteud7WrtjdowCAU089NXnxicZsZ555ZoqEMVDx+nMBYCQtywsCAID5HKjXAwAGuUTY2uZJzrn00kuzq6++OnnC83wb7zQHBeNYfgtwW1uyGDDn+RfFRKmpFc3kgGLfZC7uU7WGcYA6Z428qrzSW3dnMq7WigYCALSipdE9JgDA6M79UD45I1TYXWi/qDiPV0+Uol9SZQBAB9dff33iN6sqIUFYhKW2YzIDhWeeB5URxOjPhcEjUoNGQXhGWwUA9MIjyyirFSANTanfEZMAAMW/CGARfYXugDm5H2XnAQAAvNA5z160wjjll4g48tjXR7hyCtBEAICXnzcfVa6+KZPvYjwAACCJBtBTrXj/RSaMp7Y8KsoPipDvqAwq3ERvgbWA04B+5VX49qO0a/HvpptnBADopjaH71oBAIZvTkf6idBuJAAzVIuKBDyetH7SPMoEAIwPCYu5eG40LVxjlZoY2jya8i5OPPHElOjLUEHNwWcW2t9qq60SNUKSo5+dcsopKSnxD3/4QzIC5HOgdeUAAK0opzQwlIAKOQA8sDjX+XG45GgTmtbUiiiEUrDd7h7d7F0JANBMQxP/nmEISObNvsx7O91LOxtFlt4bgFQ/EdQenoo0VoUAACAASURBVHdedZ5/1D+8fe8dOpPut7j4jQCA70ZzQsnOImLeD5EO57gWOqF/AxgTAQDfkmglehDHg+/IdyXSBVAYq/fduuY6Ephnn332RM1DjUT9kZgsf6oMkfgsaorGKCoiYpInTpcxnrjntBoIABBvxEQaCAAQ78fQaYCxanMsKjaxek9c0WsUPb4sAMCwYOzU8rTpjdEhGZJBzlurGhMwkItSnZIXcZEZ/8p+MuYI6tXXv/71ZLCodCKiIvkvF9eTKJobfqgVqg0xGtAa8rHwGqryxFisn0fj4/1H4+inBADojrYZjEA2Q9b70e/a8XkEgGGuYADjPweoxubnaGyMe+uB5NwcAPDu13q0HbfbbrslT7eE4LwHCY4/ig4wzBkxEQCgVd8Ugx990f00bJLngiKUJwOr9oOGh7YnYuH4yy+/PCUcG+fqq6/enQlq8SoAifnzjHKHPG/VIhItPspQHxYAYKint+OHCwDQsQrjAlXTAO+zzbG2KVWzMV5xxRWJj1tforLZeZ3+viwA0Om4R+38AADdnXEGJMAoXwBX/OSTT+7Lt1efA9Ddpxr+q8ntQK+UeCzHQxSljEjO8Gu6O08YAKA7ehzWqwQAGNaZHeHn4rFDN+BJa5WDqra9ZMB+Vy4JADAYL2oAgN7NE6oZihC6mO9VFE7+Ry8kAEBxrcqrQjFSPlWJVFXY+kmTLD7iOCPXQACAeBcm0kAAgHg/hlIDwuc8VEL8E3WP5YmUhKdud6P69r1WTgCAXmu4O9cPANAdPTa7ygsvvJAqCKlrj5Ovsk43xbXRZnLaWjevPUzXknyM/ie/RyUwc8HbHzJYGggAMFjz1e/RBgDot8bjfn3TgAS9KVOmJJ56o4Zc+Og4v6IF/az8U6uAAAB9ex06ulEAgI7UV/hkfHwddNXD9x1rKiZpPegmhVXZ8gmcIfJ35DCoiKQogsT+kMHVQACAwZ27fow8AEA/tBz3KE0DOsfqvJlvaBr56L6p2Y6SkpJM2+ka3K0HCgDQLU329joBAHqr34muDgzI0VHZSxUoSem1dfPLG9lw3FmJX70K9CNQkUgCfiT0DsfcBgAYjnns1VMEAOiVZuO6ldKA7raqj2hQ87GPfSx5t5SpLFsCAJQ9A63dPwBAa3rq9VHAu+Zdone+X8Zqo+her8cx6NfX00CPD9W8cPtV4WrU4G/Qn3PUxx8AYNTfgImfPwBAvB+hgRI1EACgROUXuHUAgALK6tOhekrgqUtKXXnllbNFF100KEIT6J6HX6M+FJ8XX3wxO/DAA5MzpAoC0N10003TDEUZ4HbysvQTkeNR2y35qaeeSmVaVXorKiIk559/fmpwVkSUN37Xu96V+qKUJQEAytL8YNw3AMBgzFOMckg1EABgMCY2AEB15wlF6NJLL029K7beeuuUsKopV+QLZKmHgaZlcil05ta3AFiqmmiApkHg5MmTx4bm33PNNVfhoYpoyBt5+OGHM/0TCONdNSONDouKxHHNCnVzLiIaJ+pZUvtMRc53rB4VKtR98YtfLHpqOj4AQFtqG5mTAgCMzFTHg1ZNA7xeRxxxRGq8ZaMIqa4GAgBUd27qR8boYVDuv//+qbdAq6WAB+cJm49UaVVJ1Iceemi2zjrrZLvsskvfSxw3H+U/jsgBAMBSL749uVxERKC2gpPmbJwoPO0zzTRT9s53vjNRmjRys6aiOQGC9QBAMzXnOV7nc+eTvD+Ftdn5ck7c3300LtQhGn0KXUq/GRXmZpllluzNN99M/++cvDeCbtDKSuedkUVgHOMerpuv+X6GxiZCofqS8/3OM2+++ebZuuuumxrmAbXuZ2zGAPgax0SdlwMAFHkLR+/YAACjN+fxxBXQgA1PMuMdd9yREu4CAFRgUiYYQgCAas9Po9E9//zzqTO1SjaAtm9smKMCjGeGf94tW3O1iYzDKs3oeACAsawnxNxzz52MaaAGJcecivpsvPHG2RprrJFoTcAOgxcAQAOS0Ky3CwBUCwAkPG+wwQYpEvLggw+miJHoCNE88oILLkj0IQ3qGOTuyYuvY7MO6rzyjHaFJe6///7skEMOSdXm5JXdeOON2U9+8pNs8cUXT9EW3c9FAgAOiesoV4z2++67L/vd736XfqYMtd/7f+CG4f/qq68mipYuy7PPPnv6Yz6BlQUXXDABAT8zpssuuyxbf/31G05nAIAqveXVG0sAgOrNSYxoiDVgQ1N5aMUVV0yeHRt2AIDqT3gAgOrP0Xgj5J1lKDGottlmmwQKhkm8myqd8XYzGOebb76Ba9SVAwBOEWJNRLmRnGytNGfAGyD30ksvZaecckoCBgz/JZZYInnVeecZxjkAAAJOOumk1GSuFgDwxAMTvP76xbjO448/noxuPQ8UivA71xMheOCBB6YBAPIIJE/T8zXXXJO89OhFjH1RJ55/lKFaAKDc9KyzzpoaqhGlqfW8OP744xMAACZyepKcFoa7ZwY2gJwNN9wwnedeIlpnnHFG0oexrb766mnsjSQAwDB96d1/lgAA3ddpXLGCGrBBWJQlmjEIeH/23nvvsdBvP4bM22RD+td//dcUTiaRA9APzXd+jwAAneuw7CugTDAeGW0XXnhh+harUAmsXb0w+D0DI1k1JFSUQZUcAPDuE8YtLz8DnDHub+I7lFTLqz5p0qQxalDtc+cAQNRg+eWXT95xxnxtDgBwwOsPDEjWfeKJJ7J77703O/3001P0oFbqAYCIg+MJYCmawJgnIg6qVIkM1AKAJZdcMoGGnGrkOXRVdm8AgGGfJwuLQmhWB6zWAwDRCp2yjYF4JnQntKBGEgBgUL+I/ow7AEB/9Bx3KVEDxxxzTNpQLKZ4lLw/QrjAgA2HN6mXAnzstNNO2SqrrJLGkG9m7hkAoJea7961AwB0T5dVuBLDT18BncIZT9/4xjeSh7bqopyx9UzjQoYjIzk3Kqs+9onGNx4FyLr9gx/8IHHga4XBzWveyPDNAQAPvX4vDGvrL888L7vIKw494/g973lPMsQZ5wAA5wx6TrcBAErQzjvvnOhZ9VIUAMjnyMGCak6Sp1GVAgAM8hdQztgDAJSj97hrnzRg4RdCxQdtJI8++mjaCPAoaw3zbg3vRz/6UfI0CQE3al4EAGy77bY9uXe3niGu8/fkQBxcyXshw6UBUQG5OHfffXe20EILJSPtve99b2Ue8o033kiefjxxHmCUmEHh9reqxPEAgG+O0Q6s4ceraEQPgI+yrzpEA288/Kr1iOzWAgD3R59RBUmkxLWACmuy3ABzvuqqqyaPPjqQ6/Lqu7YcEnz9xx57bBoKUDsRgKlTp6bogiiwXBQARiSa8d4MAIh0HHzwwUmVchFEJG677bZEkxIJueSSS1JTywAArb5tcVyugQAAQ/QuCF0KD9Z7MKr6iLzwFnOLYC/EprnUUkulPxOJknEWZ/zSbgmDkdFv8d5kk03CwO+WYuM6oYEeauDnP/95dsMNN6R1iWFYVslMESeNC3/84x9nupfzWvdqneyhOlu+NACAW1/vyZbYzHN++eWXJ469xNdjjz02W2aZZZIxjSajQg/uv2pqePMAAAMZBYi4tnV4++23T+dK7uVBB/KWXnrpTD8JkQLXVkpWMrH7AvvmwP6wzz77pGtKAq4FAPZaeQvAAkHpkYdx1113JQoQACFBWIUf+4GO1oCMSDQe/8ILLzwhAJCbYIyqBNnfncepJfdB9AJVCOVoPMdEUIBafgVH8sAAABWYdglKFh0fdy5PP/104ZFZIPbbb79UhaCIWOw01GEE2/gkRalsgK7SS7E4oeFYgLstQsMWXh6SVuTUU09NPFqh9U7FRqFxjHsPMi+3Uz3E+aGBQdUAbzCOPUPOuvylL32pLwa4ijMqyViHJaSutNJKg6rCGHcFNBAAoAKTUOEhBACowOQwtoUdofpOpF0AcN5556XKNMbAAMYrREvh/RhU4RkSPi4Syuc9Ouecc9p+ZHQeUQd1nHfccce2rxMnhgZCA9XRAGeCai05BafdDrXjPREKEg80bzIK0te+9rVC61Z1NPWPkYiAoj9yhkhU9f8KH/Bmo970gm5ZRT2UPaYAAGXPQLXvHwCgAvMzHgBQIhKl59xzz00NUPxbp0uiy6F/C2/qdij0KFyozNimm26aHXXUUSlJSsULIWTGKY80z7RqGI4TkpQMx0i2ATXyNkmQUuVgjz32SJ4w/EN1lAEGSVUqLChBJwQpoVYEQtjasRLsco86MOGeNrs111wzu+iii1LFBNcTCiWek9degpZNFm9ShQP8T2HW7bbbLiXACdUKCY8XEhdu3WqrrQp3bjzssMNSNQb3LCrAkyhCXp6u6PlxfGggNFB9DSgpiUYiwbSTJFygQuIpSog1mKE2LNFCJSk9jzUbjapWPLM9QkW2RjlR1X8DBmuEAQAGa776PdoAAP3WeIP7AQC8JYxzwiC3GUheZeQyTPEcNRFh5KtWwcsscVVlGSXHAARcRcY1wxnfkTHLm8+4F8r2e3x0dY5dF3jAI2RQSzRr1DETAGDQS5bFQ3zqqacSpx5FCZdRyTJ81bPOOit53IWtdd+0sdkA/E7iFg4mqo/7AiU4rQAAPqbnFvbGy5Rw5dlxLtGDGP/+KNcH1CjdqQrCQw89lCIWjcRz8TYZbxHJw/5FqE/0xiCwmYk6hIQGQgOjoQEUIUmlPPaaQDUz4DlerMccI9Zu66V1cZjEev/FL34xPSPOfiMRDbBvSV7NyyEPkw6q9CwBAKo0G9UbSwCACswJAMA7nxusuhDaXBjkqhHkC6mkJx5yBrj6xgzWWmlEAVLxIG+vrlICb5MFWDUJhrf26TzeDFmJVPUCAPiTN2hRUUG5NB4wIpHXog8gENf3/5K5AAtRDB4fXn0e/lqpBQDGceKJJ6aqDrkYu+vyljHKa/Miap+rfswAkGoJ7Qj9HnTQQS2diq9rgdWRUrJXSGggNDB6GrAOKx+psoxopqgnx0ouqr1womgSJYFTNZphFZFbemilShE6EMdU0IF69zYEAOidbofhygEAKjCL41GAGLnqPqPy5GKxlOTLE27xrJWJAIA247zoIgkECOBZ57lG30ERUp6sXuoBgK6DKg8Ycy7q6huXzU/FBtfO72HzAwDcwwZYK/UA4KqrrpqmXGe7AEDCnmu1I0oA1gOVRtcBiERT3Ms4Q0IDoYHR1gBHC4cHaiYAYI3edddds0UWWSQ5eDh0hnmtUNrSH02vWpE//vGPqQxnkYhrK9eNY/6hgQAA8TZMpIEAABV4P8YDADxJaC949rXyyiuvpHAzo72W5jIRAEC5ETlArWGsCz0reab0mrJpFm28+lxQkpRaE96ujQDw0qP75B0ba8fluihCQIUIAK+4DZGhL9G4vjpRLQDgOVISTVicqGvs/vik/l0kAiC6wePWjtC18PV4AjSpyazUW4Sv29Hw6J6DssYgFMkbT4BKyaYigLk4T4Uu31DIYGjAuifHCkWoEbVyMJ6i9VECP3PNNVeilapP36po8GW9bRR9bvUacdz4GggAEG9HAICKvwPjAQAGOr678pQzzjhjanSSU21UixB6VpNYJICXXdi1vgxoTpVhuCs3ymPNEAcifvjDHyajG41nwQUXTIm7mswwct0PT5VBUgsA0HEYvmhDamQzZhjvaug718a3xBJLpGurjSwhV4RAXgCg4T4qQwArOP55DoCEYtdEf3KcRGN6UU3HeIoAAGCmaCnU/BVRoULnyXpBa5JcLa9C8l+RTa7ir18Mrw8aUFXLN4GGpyrKeILaJzFeWWANjghKhQRz30vI4GiA80bEdNh4/o1mQGTZuml9LCIqH/kmxmvUWORacezbNRAAIN6KAAAVfwckvjKshYrrhUeF0c+Qx7vPufeMf1x8hvMcc8yRPPk8h6pUrLDCCmOXyRNu/cBi+/LLLyeOKq4+j03OXeexl6TL4y7J2KalxTwDX/JxbYKbfAFJuO6H568KES8X45/n3YKu9TkjnLEMADhWsjJDWoMWHRclI/s5EEKAEtd1jGvmVX4c41oS7XKpfa56nUlEbtdYAnZw+msFYLngggsSIKHrkNBAEQ2ofOWd8i0wdGoBgG8AaFd+lhcUAJAgyeCXPO+7CgBQRNvVOdaazjGiiMOwC+eUd7cdipMeNIpJhHRfAwEAuq/TYbpiUICGaTbjWZIGJNm1S5dQajQvS4pixRMLoKBChYQGOtEAIABY1wIAieRAAfArB4cRdfjhh6cyiaqBiQIGAOhE6+WeKwogeinyOcwiUuudbUeUmD7hhBPaOTXOaaKBAADxikykgQAA8X4MnQb0GFBCtR1BldLjQARBSFvvgnb6ArRz7zhnuDXQCADUP3EOAPTuUAFMRO/nP/95UIAG9NXgRNC7RCRgmEUPGZHSdqTTBozt3HNUzgkAMCoz3d5zBgBoT29xVoU1oNY2KhNaVBFxnqpLci7QlSRNh4QGuqWBIgBAXg3qiLwBm3jkAHRrFvp/HX1COCRQKYdVVKpDV21HGtEu27lOnPN2DQQAiLdiIg0EAIj3Y+g0IIeAR0qJuSKcVN2DbdZKloaEBrqtgaIAQH6PPB3JwJLl281r6fZzxPWKaQC9y7qiV0BRUXHMO6A8cTdk3333TZRGxR26KXK2VGtrR4AjUduQ7msgAED3dTpMVwwAMEyzGc8ypgF8VJ4l1YxaEUnRNukDDzywlcPjmNBAyxqQFP/kk0+maluqcAGmEux5TVW4QvuRF6DhX04BEgEgSiR++ctfzlZdddUAAC1rvHoHHn/88ak/QCsNsvLRK7agQaLiCnmzLO+Q61jXlGMuKrz0qrSJkBZxjjS7jzLTCjO0I55HSeiQ7msgAED3dTpMVwwAMEyzGc8ypgHNyJRIveGGG1IVomYiyZeHzoYbEhropgZ4/pW3rRUld9HMVADbYIMNUpUrSb8azGmYl5eO/O///u9U1Us+ABpQyGBqQElkZZhPOeWUlh/g4YcfTnRElduIKm3q5ivDrKljOwCAo2O66aZLoKK2W3HLgxrnQHkOednaotfyvg97jkRRnXTr+AAA3dLkcF4nAMBwzms81f9o4Lnnnss0NGsWPle6VCObqEUdr01oIDTQKw0cd9xxqahAq553jcQ4L5xHeNhRG3UqFzkaDwBss8022UYbbZTdeuutqZHkAQcckKqZ5fdVZnbLLbdMfU26JU8//XQqkSyyVUSsu0osb7bZZkVOi2Nb1EAAgBYVNaKHBQAY0YkflcdWyQc3Ffe1kajPrgeCCECrG/Oo6C6eMzQQGuieBvR1QAWaOnVqSxfVF0bUp94xcdJJJzUFAMog6+yuH4sI0t57751pRkcOOuig1G+lttt0SwOa4CBrqFKgwEkRERER5VhggQWKnBbHtqiBAAAtKmpEDwsAMKITP0qPjfc6efLkRAkSQhf6VrLuu9/9bqbsZ6MGbKOkn3jW0EBooD8a0EzQn1aEQ0Kzx3r6WCsAQLNFxh/RV+KJJ55IPSXIddddl/KjGO3dFFGHs88+O+WytCqis5rghfOlVY0VOy4AQDF9jdrRAQBGbcZH9HmFmm2C+LT+LYlOR+R3vOMdI6qReOwqagCVAlccYNUtO2S4NICWyODlhW8mnQAAJZB33XXXdAvFDURBawHAOuusk9bBbsrFF1+c8lo4VVoRib8SksMB04q22jsmAEB7ehuVswIAjMpMx3OGBkIDldUAw4lBtMwyy2Qrr7xyqhSEw61JUuSmVHbaCg+M0b3DDjtkp59+etNzOSl469uJAEwEANCQUCOVlu2GSCgGWCWwv/DCC8mxoprVRCIxXgRW1bXw/ndjFhpfIwBA73Q7DFcOADAMsxjPEBoIDQykBm6++eaU3LnkkkumakC19AkVW5QBve+++xIo+OIXvxjG0kDO8rSDVsrzqquuGuPkj/dIknQZ03m0AG9fJSCFDVQVkre09NJLZwsttFAqFTvDDDMkECkJeCIAsOGGG2bLLrvsWISgE5V6f//f//t/qQJQXnJ5v/32S9dfa621Gl5adSMV1wCAd7/73Z3cPs5tooEAAPGKTKSBAADxfoQGQgOhgT5q4D//8z9Th18eWBQIBtlEVDQlbXmCGVuiAeuvv34YTn2cr27fShRg9dVXz66++uo0r6uttlr2wQ9+8G238bvddtst9ZAgN954YzL+a0VOE287ECC3ALf/sssuy2adddaxyJH3TJ8JHH09KRjdqJCdlDx+/fXXsxNOOCE1KQNE6kWFoqeeeipbc801M03CvN9ysUQelLbV4Cw8/91+s95+vQAAvdfxIN8hAMAgz16MPTQQGhgYDUi6ZPgz5DUEk5ReVNCCLrzwwkwpRx7WRoZj0WvG8f3VgMiOOVSZTJdgtJnZZpvtbYPwuznnnDPV7J8IIDK0vQ/yR5qJHAQG+V/+8pe2DXB0tTyPodG48zEw9D2nCBbQq7eFpN/3ve99zYYZv++SBgIAdEmRQ3qZAABDOrHxWKGB0EA1NPDnP/85Gf3KMu6zzz6pNGOngkZx5JFHpg7BEjpb7Xjd6X3j/M40IJqDrsP7n8uLL76YPPaN5Atf+EKiAE3EqT///PNTJAldqJmoIAQE5L0Fmh1f+3sA9owzzkhdiXfZZZcip8axJWkgAEBJih+Q2wYAGJCJimGGBkIDg6WBP/3pT4nDr956Tpfo9hOgcqi/vuKKK2abbLJJ9pGPfKTbt4jrdVkDKEBTpkxJ5TlRcrwn+PtVlt/97nfZzjvvnADA7LPPXuWhxthqNBAAIF6HiTQQACDej9BAaCA00EUN8JTyzis7K9GxHzSdN998MwEBvG6VVT7wgQ908YmqdSkG8zDI448/nn3uc5/LHnnkkWz66aev7CMpH4qOpJlYK/KhD30oyiu3oqg+HBMAoA9KHuBbBAAY4MmLoYcGQgPV0cBbb72VbbXVVomOo/a6hnP9Flxr4OOBBx7ILrnkkuyf/umf+j2Ent/v+9//fkqcHhbBla9iPxK5B/IFAJQizb1+85vfZIsuuuiwTM9AP0cAgIGevp4PPgBAz1U82jf4xCc+MdoKGJCnV8pvvvnmGxutKh/KTnarVrjyhK+++moqFzhsgoaz9dZbp4onSjf2w+PfTIeMt0svvTTTnInuP/7xjzc7ZWB+f9FFF2Ubb7zxwIx3EAcqL0H0igFZtFTnz3/+8wAAFZn0AAAVmYiKDiMAQEUnZliGpUKFtvQh1dYAr11t59lTTjkleZHz7qFql6OYSCBk5GpmJBmwkaBorLvuutkVV1yRzTzzzOkQ56lZrn75sMivfvWr7IADDkjGqFKOVaRxAHJKR5533nkJfNU3ler2XOC08xarMtONai+uJ6/B+5lzzwMAdHvWunu9AADd1WcnVwsA0In2hv/cAADDP8elPmEAgFLV3/LN6wHACiuskJIU/c3DDRyceOKJKUqgO+3nP//5DEioF+UBd9111wwnXeLgHHPMMXbISiutlO25556Z2uWDLLfcckum8orqOwz/6aabrvKPYz4AAVEBHVtFd3ohhx12WPZ//+//zfbff/+xy6tPr/ssw72duf/Od76T/fjHPx4DowEAejFz3btmAIDu6bLTKwUA6FSDw31+AIAhmN9nn302NVhRB5rBpWvowgsvXIknCwBQiWloOohaAPDHP/4xUUZ4cd/1rndl3/72t7MLLrggGWFEcitusONq6S6SX7fffvvs6KOPzuaff/7s0UcfnQYAKGcoAnD22Wc3HU/VDlC5hfF81113JfCjhn8ZHP9O9cKjriTpTTfdlH3mM5/JNttss2Swd0NcGxgC/D760Y+mS+LqS0j+9a9/nUBBOwDgP/7jP1Iug/dRdCEAQDdmq3fXCADQO90WvXIAgKIaG63jAwAM8HyrL66lOuqBzpKasqBq3HnnnSlkrub4ePWl+/XYAQD6penO7lMLAG677bZsjz32yH72s5+liwKUGlfV1v5WtpAxrANpvah1DhjUAwAg4vTTT0/nDYpo2oRH/5Of/CQZ/Xj+3TKYy9QBQHPHHXdk1157bQJrurl2StmxHqHrvPHGG2NJo8CiqBHDHzgcDwAAlKhUaGPPPPNMtu222yYgSSTJep8ee+yxBCgDAJT55jS/d6sAwHe17LLLZh/72MeaX7TJEcCn5Pf99ttvXGpixzcZwAsEABjASevjkAMA9FHZ3byVsmzK/aFpNGrpbkHcbrvtUiv5T3/60928daFrBQAopK7SDq4FAJL/GOt5AvByyy2XPLm1AAC3X+LwIoss0jIA0EH0X/7lX5IhV3Xhbb7ssssSCFJfn6EyrPLQQw+lhE+VWzbYYIO2ewm89NJLKXKEblSfH9IKAEAzk3MiAXWBBRZI1DOAAljh5AAcRTYDAFT7TWwVAHz4wx9OkaFaJxVQKpLYrEu2/CTvRw4oOR1mmWWWFKUEaEP+roEAAPEmTKSBAADjaIfhiivLo65ro3B5q8Jr6Lxa/rNzbbRC7hbITugDNkTdJJXDa1bmb6ONNsqmTp2aFscyJABAGVovfs+iAADoBBB4butlvAgAAOC9rXIiMGDte2dIoKyMkjHx29/+NjvqqKMSEFhvvfXetn41e6skekv4bxcAXHjhhWOAcrHFFsvkk+QAU8Tp1FNPTWAsAECzmSj3960AAAb8TjvtlCJrRNRIkrrcGr0RUFobiXdLiV2djJdZZplEZ8tFdPGee+5JCe8hAQDiHWiugaECAA8//HDaMISLhelXXXXVTOvzvBJJc3X84wiGOiNH4mNRsXGpDvLCCy9Mc6oqKKeddlrHJdL23XffbPfdd2/ZqNfBkR7KoC4EACj69pRzfC0A8P7yxOYRAGH1n/70p9mNN96YBue9nmuuuRLI1fSnVQAgCVUSMAOhasJ7zbA0NrS6dtaMqj1Tu+NB5UEfRM2Q8F3vyBjvur0GAMqZApABANqd2f6c1woAUBBA6VwVKQKQ9gAAIABJREFUxQiwbX+ac845s2uuuWZcACAfSV8Ce+m55547DQBwHZEnla+K9C3oj1bKuUtEAMrR+6DcdagAACMFR/f3v/99xguJU8poUX98vJKF402U62yxxRbZV7/61UrNpYS4k08+ORlSrQqPphJ6SyyxRKundO24AABdU2VPL1QLAFAtNt9885TMScwhT/99992XQOdaa62VqsgcfPDBaTNefvnlU0KwyBRQ4NubZ555kjdOeB+Q/j//5/+k5F/NqSSgVkWMG40Oz/yYY44Jw6FmYjQVY0CgZKjkk8/jeHNn3QUaHC95vFbqKUDeFYABuGD4eb/GiwB4nwDNBx98MPvkJz8ZAKAqH88442gGAHxrksXRf+pLRAN5EwGA/JZXXnllyieqjQD4HarYL3/5y6Hqe9HJdAcA6ER7w3/u0AIAUydcqAIFo+SGG27InnzyyUQ/uPzyyzO1ym3+DB2LyKRJk7Jbb701RQ/UykZXYLRoZMUA4iH8whe+kPjLgIFwtAYpvGXC5UKZqDbbbLNNqp++5ZZbZiIShCEFSKAAMZx4V91HstuKK66YKAcqi/BaOHci7yOurjB4M+pP/aubJ0j1+5UOANBvjbd3v1oAwICzQTPo8nfR+622v+/mW9/6VuoDQIAFvHHHOg9Vo15wdW3MkkD9nSd3tjfS7pzFS+iblN8gwlFGdKw7T9L7qzDWRS4lbUrS1enY2lgvaBzml27z9UlJWMngnDOMfY6I66+/Ph3jXfHeABYTAQD5TNZx6ygAGhGA3s95J3doBgA4sawv9r/6IhWdAgDXs5+XmffWie66fW4AgG5rdLiuN9QAgFFjY9EVk1dBOFs9aka/RUjCGi/C+uuvnwwZhjyvlM3Gv4Un5QGgPPByAgWS0vbee+9UcpMnU3Kg5EgRA3QhXlFGvFC18pwAgk3rhz/8YbbkkkumSgUSLP3OAohKwQi57rrr0vlqqwMsjcRGbIEDRhptwBO9mnIBcCOLdnXs9HUPANCpBvtzfn0fAO+/RDyJ5BMJwCt5EyWtmQDTPHf43WWJ79b3r6mZb7STXJyynqGs+1ozGVdTpkxJ+Ue88bVifQKkJE7LIyAMfQZ8rUj+tC6IErmmaIGka0bhO97xjnRo7f/LqVKh6K233krrVwCAst6A1u5bNgC46qqret7wrjVNlH9UAIDy56DKIxg6AMCYtsHzOqpSwthmzAgvox/wtjOeJRvx2DPWc2Go48qreFJLAeLxRA+obZ6jOQ1ggQ4x77zzJsP9ve99b7pULQDYaqut0v14Nojwp7J4zvf34osvnrxgNj6/40Hj6QI06sVmqpa68RQVxj+viEhHPyUAQD+13f696gGA8pDeM1Gx8eS1115L3n/RtXrKR/056EBoa/fee2/7g+zgTPdHYzEGYD44wu0rU2SVPjksJk+enCKjuQAGqF5KyU4kiipYm1X7aSbmTF8BjhcSAKCZxsr9fZkAwB5u369KH5xyZyKqAJWt/6rff+gAACqN8n0MahU81MYnAABDxQZFbFI2EotFLjYZ9AQUn1oAcOihhybP5QknnDB2rJwChgSjnKHEwPf/rlkLANAMJDzllAkXsOlJNGSQiwoAK7kAAKpxNAIAjsObVJe9qAjDoy+hcfRTAgD0U9vt36seAPDaeo8l23VDRLxwynl9+ym+W39E/zgHwuPfPe3z3ouKWktVbrFu5hWgRFIb0cHc3bulypJzmgnvvzXR2pc3nQsA0Exr5f6+GQDIG8bZk0QFa6URBYhDD9DkLMtlohwA96+/brkaKe/uEQEoT/eDcOehAwB5EnC98usBAJDAsP/Vr341dqjQNKqOHIBaAGCD4+HHYx1PcKNVILrlllsSKMgpQLxWFqQcaIga8FIIkzNGigAA+QuiCXi0RYW3VrKjjRSHl/Da2lxJzut1fXogQvJC78L6OSBxTl75xQbfLLk6AEDRmSrn+HoAUM4oundX1UIYGBqYAebN3tPu3bn9K6H2WWeOOOKI9i9SwpkilyI71lRJnaqO5VSeXgynbADAEZTvBRxMKKB5Myu5X9b8BRdcMO0l9h2lVfPf2xtENESANTsTTakXDiORY79zHCBuHRaZ5uDKRR8YlDYiv8J1G/WE6cUcTHTNZgDAuai5yn7qC0LsTb5ZeUSoXvYgxS7Qc/3bnGt2qfKPnB3H/O1vf0v7ktwikXHiO0e7tXeFRAQg3oGJNTCyAADHlHdTqJBHXcia510jEottLQBA0cFptQDh/Evu5cWwYDluhRVWyHiqJMrxsj/++ONjAMCCr7QZDj7uswRg3gkUJDkARQCA4xnqRROAvQK8dULuPKGenXgGCy4xThxefyTzEYus8/zM74nN3sJLgBn/n//c347lBST+lrBcX+mhFx8lYCOqYuO1CdeLyI/qEDZNnkRzBZzUivyMnMoiv8O7gCpiM5Z7wYNt86kVQA9glCDp/VHOLhdjYhQxiHKhO1QU3s/6rqjKZKLcAGXK0Pazi/MwAAAGk29StMH3Zl6K5sr04t1s9ZrWDnRFlZUGVVTq8c5zDsizyL323XyesgGANZ9RClx6XqDNnDHCrc3K6Ir8HnbYYemP75zHmthLRIAZqfLSrMHWdca74hTEemndUcba+wDAygsDDN0bKCCMaP9vD5HDxlHluE47Onc6V60AADlvjPaJnGrGYY/h8BJRavYu2d/8AbxC/q6BiADEmzCRBoYKAEjWxXX30tcLjzsDTVJvLoxax1uAee8ZDbmn0CLOYM8b0TiWEYmfj7tvgWeo/eIXv8gkHfF4+ZnEOIvVpZdeOlaq07icqxyp5iU2DsIrL+dA4nAuDFTjb8RR1iHTAt+o+2qz11z0gJcOZ7uf0q8IgE1HRSWAhI7yfAzPyuiWpwHMqMQEgCmJKnkVLSQX4Mj8e0eMm3cKGDKXIjuSw23wKkDlQMHmbEM39zZ03r499tgjXVLlHJ2Y8aVzYQjwWIkC5VWi/I5X0cbOaDLPDAXern7JIAMAzbsAaoa/OWzn++hEzwwUzYkASGuJxGhg1JrASFOOWPUuRQV8675vRrJ3zbvod8AlLj3QyJCUgA3MePf22muvdC0VmaxL3tsnnngiPau1xZrEOHKc9YMhyFgEwI2NJ7XfuT/GB2TzSH/ta18bo2IW1bPvz3eBQpmviVUAAJw++rEQ8+adM+f1AMA6ohQ1xw+DvhYA5LoQhUYH5TzJxfUXWmih9A7komqddUw02frl3eI5t59w1jD8UbIAgjKlFQBgfCLJonQTOTo0C0NbpbuJxLvuu6GbRs0Jy9RHmfcOAFCm9qt/76ECANVXd2cjtAHwnODaFhXebN6mVVZZpeipHR3fTwDAa27xZyDVgireNSFhYE+kJwcAjG1GVK3w5jHGAcac6iRiAkQAfDZ4UZN6LxsAgA4A6KFyqFbSCADw6EkmRxsAFHO6FYoAYFGbaN6R4guePIgAgLHNQPY3OkFOsyj46B0fLsoALDLygBEGDaNONMr7KAKo+IB3QuGBs846K4FxBq0NmtcSlYODojYCACAyfJQv9t4pYsDAF2Fk9OFEizj5OfDBGQE8MkZdzzvPgORZniiZu2MFTHABgMbY6ASwZsAWEWseEEFXdMdJo0ssUFWW5FHfHACYIwa8CnP1AICnn0cfyEPl4QTKIwD5+OsBAFCnQh1HRr4+5MeKaqECqbqVAwDvjGuIUufVk8rSjfu2CgAkkSui0Y1u25w7Gov5tpoVJChTN/2+dwCAfmt8sO4XAGCA5ssihx8qga6oWAgYnXlSdNHz2z2+3wCAQch7xnDIhWGI0mOzqQUA/t/mSYACBr4IzTrrrNMwisTwt8FriJUnk+blDgEA0RUeWjQtYKMeANjYGQryRYA4EQXeWcI4YiAwbnj++l2XvggAACT94XVDfSP+5sHkyc7LPvJK1v7O++scURr/pkMGM8OYTohzUHk8P2Op9pi8pKT7MKz8zYuO8mXOy6I+AAC13luRQ2BUJKi+vj1PvC7hqGO5MNTp33PXAgCAUEdegDYXxpV32/vGCPYe3Xnnncn4AQyAV+A3r67jmoBFI655u990kfO8F+gpvgdjAFAInYmC1Yv3w7uR/875ePS50CfQUzYAEAXmPACseOHRtwCVRgAAAPJO5KVnmwEA74LIove/XkSGrCEiTnQh6uXd883RcxnNHuvH6N2vQi5Ckfd0WI8FnActp2hY56KKzxUAoIqzMsGY8ElRjop6OfDYeUf6Lf0GADilDHCbIU8o7ygKAX69ngu1AIAxklcqUclJgh1jSyWoRp74HADw7OYGep5EngMAAILHz+ZtI6+lAPEQCtEDKYx9QAMlIBeePfxVAIDRY7z9EqF2mzYjmwHG8OJNZFzkYCrvT4GKwvAWIWG8MtLpnE5yww3QZOTVHiNhD5VFta1uimiNCIBnEOHqdwJgPQDgEZYrxBBvBAC8a7UVcIwXh9z7VQsAGPMMZ0Z/vTA6GYFymEQKUAlRbfxctK+2ulk3dd3qtRj7d999dyqfjAffbjWpPALgvWL4m2PfdNkAIF9nzGPeJZluGgEA3/3tt9+eKGDogNYlADaX+ggAIOe9AYbrk6lRFjkaVMXJIwBy05RV5RwCGsuWViMAZY8z7h8aGHUNBAAYsDeAp5TXtJX62fmjSaRiEOS5B/185H4DAJspSgXvK/oBI1qC7lJLLfU2ANCIAmRTZbTjcddLDgDGowDZmP1hhOVlZoXq8xwAY5AQzMhDKUKLsNnzJtYKD5qOq8BBTkPq9ZwViQD0eiztXh9AAarMHWOrNg+k3Wu2ch4AgJonogQ8MQIBUHSNegDAcAWe8nLEyvqKCgBeqEzGz5vsmoxG1CLfkHOAMcDMc4k8oRXVlzsELHHA83eUR11Upl/lT42PLoBo1CP0p06EoSxfovZ7rFoOQO3zjQcAHOO7N6+cEBMBgLxTrnVLFZxcePmtGXKNOBpqcwCsFTjwcibKioTl4wwA0MkbH+eGBvqngQAA/dN1V+7ECOCBZui2WtqQR9Jm3KyKQlcGWHeRMgAAzzXurORIXFpGCZpJfQSgEQBYbbXVkocan7tdAMD7KfTKi4/iAwDw0vLWMgDyyjSMM9QAicm1Yo7xYp3Lu9cPGQYAkOuJwctwYlirNNLqd9Kuns0nPj7DTf6H+wMj7lsPAFA2GO2MNZEeCaKMdh5c8y4i5ffeC13KPYNvSGQD1UdkQT8T1B9AV9QlL73JO54nQ/Kcq24mOuLcWhpNu8850Xnuy+hn3AIm7VQqa3VcgwoAJEb7roH6iQAAPXhGtC7fZQ6ivCPeDWu5d64WAKDVicKJGtXnNbWq124dFwCgW5qM64QGequBAAC91W9Prs64uP7661tKBhaqFjWorR/dk0GNc9EyAABDClWKBxX9hzeYtAIAjBcNCG9S8jBPKo45eoVw/0RJwHkEwL1w+dGCGHAAgGsAIYy6XCR32sR57UQGbN7oILz/ogC1FKVez9kwAYBcV2hY6DYqYEnu7pVRyhhj9Is4efcAyBx0mEPUqlrKnnfK2BjNgKpckFyAV8YhIACwO8b3jg7C849G5doigJJivV+u5/tGOdI0qfYc3mDXKkoZbPV9My7VhwARYCvvMdLq+e0cVwUAIFJT29wxfw7vmG8f+EJ94gyQA0C8G97HKVOmpApwucjR4BzIyyvnx0oU11PAGm7tUoIYTTCfS2uHJO+cTgZ8cRh4H3rZh6HZnAUAaKah+H1ooBoaCABQjXkoPAoUAobFRB5iVCGGD8OgrA2hDABAmYwm4XKe0LzZmU0UL1lpREmjangzynNhKOYJmTZpVAYRBBxfxrzN3AZfG0nh9VTW0+/RNWpr+0vWYwyiX/HSiipI7suFx5jBdPPNN6eEYWUTeZBROPCGnd8vGUYAkOvOd8BrChAymrvdX6E+B6Afc+aevi3vNMAgYuCd6RfNj04ZpwxXtKZ+FhcoGwD0Y34H+R4BAAZ59mLso6SBAAADPNs2QlQgyXG1fQOEgxmTDMxdd9215xSIiVTYLwAwwNNYiaEPMwDIFczrfu2116bKLbzW3eoXwCMrAtBPUVZS3XnGvwjCdtttlwzyXov8BDkuklGBDQnh/ZYAAP3WeLH7BQAopq84OjRQlgYCAJSl+S7d14YsKYz3WugXEODx5okuuyGMRwwA0KWJ7vFlRgEA5CpEtdCQDWUC1Ur1lEHqGNzjV6Hh5VWvUuIWD120q1/J6Y0GEwCgjDeg9XsGAGhdV3FkaKBMDQQAKFP7I3DvAACDMcnDAAA0v0LxkvwtWVLpyYkaT+HKS45l3OLQq+LT64ThwXgb/j5K+tE/wx/REmCpV7kERfQSAKCItvp/bACA/us87hgaaEcDAQDa0Vqc07IGAgC0rKpSDxxkAKCyjlwXuRkiXxq/abomGVOypQZ4zcpRogbJ1ZCjoQdEv0qIljrp49wcdVA/iltuuSVRfXTfrZIEAKjSbLx9LBrdqXIVUn0NAPX97ptSfa2MzggDAIzOXJfypAEASlF74ZsOKgDIqSkaYdUmdOcK4MVWHlMlKMZsM9FlW/4MECDBvozSuc3G2Kvf5/1CUAol9iqJW0UJAFDFWfnHmCICUO35yUcnl0fhCoUuQkZTAwEARnPe+/bUAQD6puqObjSIAED5RIa/yj7NRElXpViVTmxFNGjbZ599Uj8BUQXlOodVlB7l8WdYK3/bz+pT7eg0AEA7WuvfOQEA+qfrTu4UAKAT7Q3HuQEAhmMeK/sUAQAqOzXTDGzQAICa6rrD6vOgBn0r4vgzzjij5eNdk3GsB4TOq9tuu+1YSdlW7lf1Y/Sf0ExMQvT5559fSkWfdnQUAKAdrfXvnAAA/dN1J3cKANCJ9obj3AAAwzGPlX2KAACVnZqBBgAMVjzjFVdcsWUF66QratBOp1SAAxDQB0K9/dqyuy0PoCIH6oyNp/3MM88kAFCFxN4iqgkAUERb/T92IgDwX//1X6knTTeqbvkmXW/Q3t/+z0jjOwYAqMpMlDeOAADl6X4k7hwAYDCmedAiAFtvvXWmFn4RQ4LBsOOOOyaOf7ui1K7uq6oNnXnmmX3pfNvuWOvP4/HfaqutUqdr9KZBBTEBALr1RvTmOuMBAF2jNa+UmN+Naluup6mjPabMsrS90WLvrxoAoPc6rvodAgBUfYYGfHwBAKo3gRK/fvrTn44NbKmllspw5BmGRUQ3aps9j/hE8qMf/Sh5z/WqGE/WXHPNxM8/7rjjmg5BoztGoAoWRYXH+ytf+Ur2nve8p+ip0xyPGnT99dcn6ow8hInKjXZ0oy6czNO/++67p6TeDTbYYODzGQIAdOGl6OElxgMAP/vZz1LzOGV6yR133JF9+ctfTkmo1gbv5qmnntpwZOedd1628847Z5MnT84OO+ywsWMOOuigTF+PZmtQDx93YC8dAGBgp65rAw8A0DVVxoUaaSAAQPXei8UWW2wsudXolIFT+rEoAJB8K3lUnfiJhLGsY/Wyyy477mG/+MUvUsWdueaaq6nCVKnh+Vt88cWbHlt/AOAjwbdbpS151ZXL1E9gt912m/AZCw+2wxMefPDB7JhjjkmAh/GvQeAwSACAas/ieADgG9/4Riqve+ihh6YH+MhHPpI6c1sXXn755Wy++eZLXbrrv+t999030+PDucBCLQBwLxW7lAIOKaaBAADF9DWMRwcAGMZZrdAzBQCo0GT871AAAB7hzTfffGxwKECM75NPPjn75S9/mZJeVc3J6+E/+eSTyTvP24ZDv8oqq6TqOzkAYFQzzNZdd93sX//1X5M3X1RBac4XX3wxefZUmCF/+MMf0jEvvfRSqrDDQOXhY9R/4QtfSMc8+uijKcH3j3/8Y2rQteGGG46N1dgZBbPMMkth5b766qvZfvvtl5KBuynoCPoIMGgY2zybRehJ3RyLcQAk9ObP+973vm5evvRrBQAofQomHMB4AEDOzsUXX5zK8T733HOpN4d8lJzDz5BXgSpfJ/Kb2EMce+CBB6b8gVoAADjMM888mRK2IcU0EACgmL6G8egAAMM4qxV6pgAAFZqMJgCAwS+pdokllkjGvBr6KsQ8/PDDySun2ZYN+Nxzz80k1NYCAPXz11hjjQydSLUcm/Sqq66aDH3GvND/I488khJPdejdYYcdsvnnnz+77LLLkvG/9957JwCy1157Zffee28CBTzqs846a3bCCSdkCy20UPa9730vGdWMa/Sjdjjs//mf/5mtt956ib7TC6GzG264IbvxxhuTztTTb9SfoNv3lgx5xRVXJN2tsMIKCYiZq2EU79Qgieja5Zdfnt5dkadaYMgARon55Cc/OUiPNOFYUQxnnnnmaY55/fXXE09fHg655557kuc//38/U6WLyO1pJIB7PQCgP04Kjol21oOhUXobDxIAoA2lDdkpAQCGbEKr9jgW7WGuoV41fbcynm9961upekZOCfnsZz+bPP5TpkwZq6nPU84oR9/ZYost0hwyxGulHgCIKAB8RESAUWODrwUAIgyMIfzfWtGsKwcAuMA49UcddVQ6RKTgE5/4RIZuw5j+/Oc/n2hH7Rq4K6+8cqIa9Fpuu+22DF1JNITh94EPfKDrt3zzzTezSy+9NHvooYdSNAXoCqmGBtBWgDLvr34SjShw3nu0NEnl7b7P1XjaiUchkicBuNsAwF0BKsDXOhbSugYCALSuq2E9MgDAsM5sPFdoYBwNNKIAnXXWWRmOru63ucgNOP3001PIXpId7/5EAGD77bdP0YJcbMz1AGD//fdPG7bNZzwAwEDfY489kkFLVA3hUQQAePt4GAGJdip/8BTyNKLI9EvoRKKwiABDkCHUqdAJcHHXXXeliEv93HR6/Ti/fQ0w5kWAvOeiWLjujUQ0yrsAZAOLRUratj+6cs6sBwBPPPFEigCKjuQUIJE9a5M1opE0igCIuAFOv/71rwvnMJWjiercNQBAdeairJEEAChL83HfcTWA6/mxj30sUVF4gnvhOR1l9TcCADyVNl4bab0nEqcdCDAvnQIAUQb0IYmz4wEAIAQIUKqS4Pl6H/B8RQDQi0QbRAWKimRBYCdPRCx6fifHy4WQu+C9ZuzMNttshS9HFznV5+CDD6509aHCDzfAJ/zpT39K7/U555yT3s1WckBUtAEMCdoWENBqU7tBU5VIFYoOKlC+nnMw0Jn1yHutCAEq4QILLJDdd999KYI4wwwzjD1qIwDw5z//OQEslcFCimkgAEAxfQ3j0QEAhnFWh+SZ0ER4emecccaUBLrgggsmT/CwbpL9mrZGAMC9JdXyWOKtowAp38kIv/3221MyqTJ+6nejAokIiA7kScA27lYiAK7B08l7zYBHB5IP4D45BUh9/W9+85vZzTffnCoUSfrl6cPb51WVkIxekScMF9GbZ+J1XXjhhYuc1tVjRSE8E317dnkOzRKGX3nlldR3QLK2hOp2oh9dfYi4WHonla+Uj/LAAw8kYDmet79eXc5dcsklM8njgK333HUmTZo0tJpdfvnlUxlP+T1EThGj3rquQZ9vIvf++x687/pWyPm4+uqr0zdv7ZcQrPwnupufiaxZr0KKaSAAQDF9DePRAQCGcVaH8JmEijVgAgjUlEd74B3qtJ77EKqq6SOttNJKGe9xPeUAxWa77bZL/HqUEt76vCTfD37wg1T9h/fO5uvfAMBPfvKT7Oyzz87uv//+VPUH/SEXxpCNWbgf7QaQIMpTOp9Ru8suuyRj3x+UAA2+iGo6KEk8hn6nBnitACDuV1SUxeQ1dE1GV5lgEj2KwSMx+sQTT0zApBYI+D2qj2NEZeRcDDNPvOhclnU86o6ytmhqcjt8M52Iqk3tgNlO7lnGudYL+SrN8m/QhZT71HSvmbiW5n7yjEKKaSAAQDF9DePRAQCGcVaH/JmEe1E5GKhKzjFmVXYJGR0NSEyWzFyktj2DgrHAUysSwLsomiHpuEzxPhuTJmVyE5RDZfgbl9KIEkXD8C9zhv5xb+8LbzTQO/fcc3cFQI4KAGjVW+9b4DQ4+uijm066dZ/TIM8XanpCHDCmgQAA8TIEAIh3YKA1wBvHo4szetpppyVaBc8xHmnI8GpAZRVdeFUqalWOPfbY5LHlXSRoGCIUDA5c5LI7+ioHecghh6R3WY7COuusE6UNW53cHh4nUvXVr341GZmijyiJzShbRYbTCABwcKDiodZ1Q3jKAUzvelkioiWBH9UHDXE80SdE9LBZdO73v/99ql6GEtjs2LKeucr3DQBQ5dnpz9gCAPRHz3GXPmggp0ygVEiowxmXjGfT/qd/+qc+jCBu0U8NMJbVu2+FN/3YY48l7/p4yb94+Wgdeg2gOR1wwAE9TT4HPuS46LeAeoUfjRMuMViei1yLkPI0YH4AzEsuuSRRfcxNr4oRNAIA+mHIiRH9IXpo4M+jxHFw6KtRRABdBRVElkJCAzQQACDegwAA8Q4MrQYAAqHkX/ziF6nWtkodkolVmAkZfA1oAqSqDiOJcTOeSNTE/ZdM2ErOiC6lymsy0HGz86TFTjQmYgGQuqbkZ43NdDBFI4k+GZ1otrvn8ip7Vz74wQ8mcDmRp7pbd64HAJKCRaleeOGF1MWZ8b/ooosmAMsznnvRedKLiIiCtS9vuFXk3Dh2+DQQAGD45rToEwUAKKqxOH5gNcB7plqHvAGbq9KSOKQ8bSGDqQHGEl72HHPMkelkXC88+pqTqTJUNAqEmy/JmdHOgJfsqVRhK6LTqTwDkQXJvXj9n/70p1Npw/Dut6LB/h7DCJd4bn7lXZivfkk9AEABE7UUtSJoLvpHiAoQnXK/853vpLWsVjT3U1lHozwVdKxriiUAEUTFLTQ473RIaCAAQLwDAQDiHRhZDTAM1aPnISYq36iMU9RQHFkFVujBc8qXPgEMbMaQCMGaa66ZrbLKKh2P1LXQdbwzgCNqWe65V8Oc0fbLX/5yrNPc0IauAAAgAElEQVQpWpL3CZ0npJoaAM5w4vHtGdlyLvKmVP0ccT0AOO+887Izzjgj8f+9x+rni2Qqf0lQ1bxf8p9qxTsquqTErVwXwNi7L1meAAyAhAhXSGggAEC8AwEA4h0IDfyvBnhsdfC04dpsGXBqVEeCWbwitRoAAlSgkhyKKw40Kq0a3Xir/56gBaIEXnfddRm6DxoNKlaZUg8AVDVTTtd61AgASHqdb775xsBmPnYAQKdsTbf87Xz0uLxEpiTzz3zmM1Ezv8zJrtC9AwBUaDJKGkoAgJIUH7ettgbkC1x88cUZKodNExf4U5/6VKoAEjK6GkALYkTyHuv6Cgzk3VxHVyvVf3LzxajWz4LBX5Q/38snLAoAHn/88ZRDojdKfQSA4e/9JChE8hhqAQAamqTzkNBAAIB4BwIAxDsQGmhBA7/+9a9TEzKGhAociyyySKKCoJyEDK8GeFNVTlGd56ijjkrNzDQ0iryRwZhzuRu6VfP46zq7xBJLVG7g9QBAdEneCQ8+QTXT+E7zPKKcJ1pPfQ5AHgEYDwAABCussEKGshYSGggAEO9AAIB4B0IDbWhAR0ueX9zhzTffPFGGlAnsZn3wNoYVp/yPBiR7X3XVVSnp8be//W3ylm6//fbZ0ksvPZYQOZ6iNAtzvsRdyZI8xZqHqbwSMhgaEKWR16ODsnkE3HjGqyr1AEDkUbKuymUEeJGYzPOPnohuJqldIzu5L95txn0zAHDvvfdmm266aYpahYQGAgDEOxAAIN6B0ECHGkAX4qFTM1xjKtVodG6N3IEOFdvG6QwiVVIkUtZW2+H1VFnl1FNPnYbzjcPPcHrxxRfTz3GmNX363Oc+18bd45QyNcDwl8NjDtXwX2655cocTsv3rgcAchTWWmutseIELgQUAKKcDBwPqD0E0AV0fvOb36T3WPlSfxOAQbL6ww8/nP5fUrCGYABFSGhgmACAqJek+Iki8jllrvYY678/o1qZLQBArAOhgS5pwEKCMqJKB6+jBUezKk2EQnqvAUafDtCLL754w5sxEJVJRN9hMOkhgEaBYqGMaCs9Anr/FHGHohpAy9ttt91SwixqDCN5kMB3PQCwjnzoQx9KEQDJvhPJZz/72fTM/m4mImFojCIIIaGBYQEAnDvy8zS7+8tf/pJAcCOxJojQ//GPf8xmmGGGdAjHnaT60047bSRfiAAAIznt8dD90AA6iUojvNI8eDZpXrxZZ521H7cfqXugN6D7bLbZZhM+NxBw0EEHZbvsskv20Y9+dKR0NGwPq0ymijmoMKuuumpqkjWI0qgTsDKgfo7GNp4Ar/IFJDY3E9GA1VdfPeg/zRQ1Ir8XKeMAERXdYYcdKk2Rm2hKGP/zzz9/ivwpeWu/HQ8AMP710vC9yOkTpdcc0r4RAGBEXvx4zNBAGRoQokQzwdXVZVZYXq3ubnSZLeN5qnTPt956KxmBkiNbEV4inP5rrrmmlcPjmAppgJf/yCOPTI3ZgD0VuqrM729FdY0AgEjiz372s5Rj1A3h9dT8UPGCkNHTgEIGqJFAo+7mShajPPqO9C/xDoqAclBpVjgoYj2w/k833XSpf4/nyQEA8CxXJs95AQBE1/z+hhtuSBTBAAB5yYBBmfEYZ2hgCDSApwsE6EoMFOAl4p5XbYOW37DrrrtOo3Fex7nnnrvwLHzzm9+cpgmRiMjOO++cKpOcffbZ2bzzzlv4mk648sorE/Wn1S69zrEBLL/88mnjCKm+BhgpJ554Ygr1r7322mm+h0UaAYBhebZ4jvI0oIiBvDQA2dqoAhZv+XjCe/7QQw+lP08//XS23nrrpeZ4g0KnqwcAHG72V80gCQDA3KUTxR001+P5jwhAee9o3Dk0EBr4Hw1YfNUpf+SRR7K//vWvmXrdq622WqpiUqY888wzydjCr89l5ZVXHuNQFhkbz5KkRF5bgnfPE4WXv8kmm4x11i1yTcd+4xvfyI455phCp4kCOE9Jz5BqakAOjWpbDz74YLbooosmgKwKzrBJAIBhm9FyngflVMlb3wtjWM6HYgZ5x/Iio5JQi2KHWmmt1GFaJSrlkKsq9QCgfpw5APBze5qCHSIjAQCqOqMxrtDAiGpAAuBNN92UWdSnn376VMKSx7zf3hgAwEbSqHkQ0HL11Ven6guoCrlhb8rUy0dhkMzIYzvzzDOn0DIvbu6RyadWZR50DscCGoCP84VzeaE+/vGPj/sW/PnPf04J10UBgAsCH/fdd1+Ubq3YN6Zj7WWXXZYoc+uvv36K1AyzBAAY5tnt3bPxZvNiWyufffbZTH6T6lH2Cvz2booo9bXXXptZbzXDXHbZZdN63+37dDLmIgAAFUpOjIp9HG6RA9CJ5uPc0EBooGcaQBey+F5//fWpKgiDnEeUYdzrvgPjAYDnnnsuLaD4pBbe73//+8mbzrjn0Z86dWri2etCakNC9RkPANhQ7r///sRJFabG62ScAx233HLLhI2L/N7xxlJUVERRQ/1d73pX0VPj+C5rgPHC2+gd907vueeeA5vUW1Q1AQCKamx0j7cXKBOLpiNarBkl50k/C0uouqX8LOBhTV9sscUSGOCoKlNapQDlY0RvokcldQMAlDlzce/QQGigZQ3wkH7ve99L5ctWXHHFVPaS8dwLPjsAgO9vkc+F119egHui7hD1xXErbQoWYo2Y6sPFNgtJWPlGceihhybAUA8AXFtzNZEFv3Pt2uhCraLU+wcwmpVLbKRciz8wFeU/W371un6g0n263l544YUjmxQfAKDrr9VQXfAPf/hDyhPzneTFI0RVq1C7XhRCrsG3v/3tRAvlEEJfRe/sR7Ta+pE7f0TN5dDZKyQ8N0oCrk15FWFecMEFU3M8UehRlCgDOoqzHs88VBpQZpQ3G81m4403Tl4Z/+7GAjxeBEAFBYlieT1lCgVE1CR3b977esO61QiAZ8nrmosE2FzGAwAW7g033DABhaIinC1BbtCryBR97rKPBwIBxHPPPTdVIOF9KzvXpUydBAAoU/vVu7do2CuvvJK+DcUROEwUUMDDr7pY963JHEHWZT0nlFuONbaaMxcAoJrzEqMKDbSlAYmTDGbdQrfbbrtU55mR3q6XezwAoHIP7z8KTa1IGFOPnXFdH5GoGgBQ4UhSaWxObb1qhU8S0UEJ886gLag/HpKlEow8pyGjqwHfhrUTKGb061MyDN8HiqZIL8rqHnvskahKsd5W5z0PAFCduYiRhAa6qgGeJMlhhx12WAoda5okdFxExgMAKEh4/Trq4qEy7CT9ikCgDDFoABF8Ud4gFSR6AQAkDcsbaKd2dVCAirwJnR177LHHZldccUV20UUXJU9mN6JTnY2oOmcHAKjOXPR7JBpSqUYGAChkgJJYBWpPt/VgL+JwOeSQQ1JjzKOPPjqVGO11Dlu3n2PYrhcAYNhmNJ4nNNBAAzYYXvl77rkn02V09tlnT2HlZvX8AYBJkyalxbtW0Dgkgiml5ncq92irjvvJ6Bd5UGufYS4agTLk3zxcOPu1gr6jKsNcc82VjPkiFCC8WM8lkauoaAIzefLkniUBa+b0vve9r+iwhuZ4787WW2+dff7zn09/K0cYG/7bpzcAwNC88k0fhCFsDUSVFAXTDBJlcpTWCXuR8puiA+h/8thEB2rppE0VGQd0RQMBALqixrhIaGBwNCARygIsmViCrTbqX/rSl7ItttgiJfAOkgAbBx10UAIfRWXhhRdOFTV6YZQqLwpcaDtvgx8lkZitOZsI0ZJLLjnWmXOUdFDkWQMAFNHW4B0LCCt/rBuzdVZBBRXcqlRCsyyt2otefvnlFEFW6U7E2ro57KV/y9J3/X0DAFRlJmIcoYGSNJDXk5Z0pokMLqoELp6ZQZD99tsvO/LIIwsNVdQCLUUoutvCy2cTMyZRFhGNYae8qMYBiPHiqd2vGkcYOK29WQEAWtPTIB2lIZcqNOhuChqojNPPUp2DpKvasUoitg+JCHOiaDqpSs+gOaYGRf8BAAZlpmKcoYE+aQAAAAS0UVcqDcdfQ64555yzTyModpvrrrsuVQHKKwe1crYOs/ISup2QxvhXlu6aa65JCcb0aDMbhoS+er0CjoxX3H7RFO8IallIMQ0EACimryoerVSnMsi6yqJBojL6M0rUnl7Miwgt2qooChDAufCpT32qF7cayWsGABjJaY+HDg20pgFGnk0NXxMY8P84/FrMM3CrICofqZoht6EVsVnvtddeqZdCt0UDNMBCPkMu+L6MAd0zh0FETy644IJUBlZuh/yL8Pa3P7MBANrXXVlnAvrqzlsXdWsX+QL81ZXvBaWwrOes0n11nr/ppptS/xvNG62p8ouikWP7sxQAoH3dxZmhgZHUwI9+9KOU4PuBD3wgcVnxvP/5n/+51I2Pp0gug4oaEwmwgJZzxBFHdN37rwqSpOTddtvtbUOQ5HbggQcOdKKb5xNtkXS97bbbtlV5aSQ/mCYPHQBgMN4K7z1aCorKiy++mHqTiHpZB0P6qwGJxPLXrEeKCyywwALJGSFaHdK6BgIAtK6rODI0EBqo0wBv8MUXX5w2Rslt/gAD7TTm6lS5OhT/9a9/TdU1GglPnWRhHnoc9W4KPWyzzTaJDtNIJAAqgScfYJA8hCoZ3X333YnPLPSut0S7PSW6qe9hulYAgGrOpmgn6gnnwv33358KJ1hbhiWSV02ttzeqp556KjvrrLPSHC2zzDKp74CqcxEdmFifAQDae9/irNBAaKCBBvQFUPbzrbfeSt4x3HCc2He/+9190ZeNWpm9XXfdNd0XBxcoUGVCXwI9Ebqdy/Bf//VfqRyqsqITUWHuuuuu1I9hxx137IsuOrkJD6dExssuuyw7/PDDU7g9pDcaCADQG722c9V///d/T0b/j3/845THw6FhLdGNN2QwNGA9RlHkjEFV1ZPGmv+hD31oMB6gj6MMANBHZcetQgOjpgGNn9R6lqCrN4AQrZB5r73gDFceoccffzxbfPHFE+cfVakXonMnoOM+zQQ40gCnNkeg2Tn9+r2NU2nYKVOmpG7OqiSFB6332g8A0HsdT3QHDoLnn38+5QSJdu2zzz7pGw0ZDg1otib6yjmz++67p8gAMNDrPWgQtBcAYBBmKcYYGhgCDaDJHHXUURmqjtKdwukW5UEukYkX73m0u29F0AqUWFUxpCobkIRG3v599903O+WUU7KVVlqplUeJY7qkgQAAXVJki5fxDXrndSiXM8TL7/udbbbZWrxCHDbIGlCeWcEIe9C//Mu/pFywqqzF/dZrAIB+azzuFxoYcQ3oIoxb/qtf/SrV4ed55qGRVDdIIqEYnee73/1uoQ1EPgAQIJm6TGEIbbXVVmkINkUNywYZjJWpy07uHQCgE+21fq4coOOOOy47//zzE9j98pe/nE033XTZO9/5ztYvEkcOhQbyPegnP/lJckrp0XDwwQdnc88991A8X6sPEQCgVU3FcaGB0EBPNKCbr26QPHISiiVx7bTTTtlMM83Uk/t166Kafdk0VKEoKnosyJfYZJNNip7a8fH33ntvCoX7o4weuk9IeRoIANA73evDITcH5UPEUbUYBQpG1ePbO00P9pX1vnnuuedS3oDqQvI+9BwY9vckAMBgv7cx+tDAUGmAV/qFF15ISbsawEia5S3/yle+UqnnPPXUU1PNb50q2xHPyfOkqk4/DHDeT4YQ3crFkK/Qr8TsdvQzSucEAOjebCsPed5556V68ar16FmSc767d5f+XElkVC6CHgMKG9R/r0pg6jEi16nbhQ06eUKND5VaJnKIrJEipYPSzVdk94knnshEB/R5mH/++bPtt98+m2WWWTpRSyXPDQBQyWmJQYUGQgM0oCoHEIBrDxTYRIABSbdlCc/9zTff3LDef5ExCUOvscYa2VVXXdWzpmr0hu8677zzZmuvvXbygIZUSwMBADqbj8ceeyzReoBcpWqBW6WIB53awxBVMEGelPVGnftcUCjRVXJw0M0CB/Speo7GW+0IL/qee+6ZnXPOOZln8H77N2N60qRJ7Vyy1HMURhBJ0v9BLwjUMfoZBgkAMAyzGM8QGhgRDdiUVOoABt54441Uz3+11VbrixedihntvFk8b5LHOhWhZ03J5EJ0i39vjAwinUrVwxbK/uAHP9jpUOP8HmkgAEAxxTIqb7vttkQZ5BUHbnmZZ5999mIXKuFoyccqo+ktAIyjACpVTFQu43VmXALrOQA46KCD0rN6T3JRREDuEdBjLcoBgH4dSiGrMibBVY4DsW6KFFhvdCyW6I/eojCD6ALDdtNNN01rmipgqJjWOeV/v/rVryaq4+abb56uYcyf/vSnk1OGsS/qouSzaAvxM8fL8crlhBNOyE488cREsyHu953vfCfTlR0N0Ro+CGLPUc7Zs7/++uvZQgstlPrKDGqJ0QAAg/DWxRhDA6GBt2kAjcZCzDsmj4A3TP6AzbBbxnT9TTX7krDcTWNDKJ/Y9DsRniobt03Wpr3CCisMPYe1E31V5dwAAM1nQl8K3Ownn3wyGcbebUb/INHYGMqM5/e///2JnuR5GMLXX399itIxrq0v1gN/cgAgPwrIQYlERyHKKutpwtDOAQDgMN9882VLLbVUMur9299PP/10qoWP+ievynlTp05NkVRRBdFUHd15/o855phkmEuWRhkUSTFWeRPuvfHGG6f1leHuepKprbW6nCuHvNFGGzUEAACIEtB0oEfMPPPMk22xxRap8pL7AR/Krw6S2H9EBn7wgx8kx5BEYnMgCjUouQMBAAbpjYuxhgZCA+NqAF1ISU6AwOaHoy/kbOPpxoKMqmMDrQ3Fd2s6JJ1JKrYxFhEbqqReZTxtQvvvv//AeqOKPPcwHRsAYOLZFPFj6Ir2MTAZrN2IvvX7HQJelBy1RuXr0Ze+9KUUDdBzA61Hs8L82WoBAGPbufSgSZncIR52Do/aCED+TBwjdMWoP+CAAxKNcrfddku/dp77PPLII9knPvGJVPq31vnQiAIEAFhXjYFYXzUIlJ9FdIJfZZVVUoRBA7X6CABvOS85oxnI8AyKEBCRShEN0Y9BFbTQG2+8MdE5gSQ5A71yQnVTRwEAuqnNuFZoIDRQGQ3o6Mmr5m8hb5sX3mweFi8yUB4vNJ3jjz++yGmFjrVpCJPnlICJTlZKFC0AbYC3Hy81ZDA1EACgtXkDcK+99tpEoUFBWXHFFVOCb9WrheVPp/IX77noRa14Hjx/NJqnnnoq8ed32WWXBOjlAIgAiIA495VXXknGJeoJj3ktABAB5NlnjGtuBkAw5kUdRA9EEXJBEUIhEmnQJBFFEAih0/EAAMCQ6xqAYezXUgv9DEVGAnY9ALBeSaJFgbJW8ZwDEbmINGiSOCgi4qzJJOeL79f+oqTyoCQ653oOADAob1yMMzQQGuhIA3jDJ598cvbRj340bYo2IBtaM0+NjVRYXXWLXiYW2uSFw1GMGgnvmY6lQu08Tni13aQidaTcOLltDQQAaE91POpoKmg0+O7yXRiZjOkqCi88igje/Xjy2muvpQgHLzmKTg4App9++tQn5etf/3oy/BnUqEQ5AMDVdwwHhXKnzz77bKogxJjfcsst07E8/eMJ777jRVFbAQDvec97Ui6W+xL3AzB4+lGa6gGAnifG9dJLLyXqj/PRngZJXn311QTQLrjgglQlaO+9906AaZAlAMAgz16MPTQQGmhLA4x6YXB/eG5sSjZQG1OtMLqF0HUK7aXxn99T8i6vmsSyXNB8bDw8/bx/wv/NQEtbSomTStFAAIDO1c5bfvrppyc6jO8DZQblRBnKqgjvOIeDpnu4/rzhoor+8MJLuvXtS9JVRpNBXgsAGPAiA9aA0047LT1WLQDwvOg3gMIee+yRklUZ84xvVCNRAOVCf/vb36b1RHEAnZDRBoEpkQmRA8ata3A2AFO82ihAtREAUYobbrghecCVKxWJcR20HknAcgIkI1s/AQIATbRBsi+wgOooUgBAuA9K0NZbb12VqUrjMD+SrI3THDH2zUs/yjb3SxEBAPql6bhPaCA0UEkNWOglyqnGw7POA688J7nzzjtT4hp+a7+EMZBz+XkCUQTwSyWZdSOXoV/PEfdpTQMBAFrTU6tH+Z6VbGSsMWBRWyRmVkFQR3jxr7zyykTpwaOXzIyzLyqpT4dx+1ObA8A5wZgW4bAm5eV8AYAzzzwzJevKJWCk8vZzJOD8+xkRvXRfgGDddddNUURgQ7KvdY+Br4KQKApxf3q78MILE8/f7wEDhRaIsYi+ABCcJtYoFCZirbJ+clJI0na+yESt4SwPgdPFc3N2uFbR/KdezacohspLgAsdrLXWWglIDuPaGwCgV29RXDc0EBoYOA0w9lEKeKTQcVSpsMH2U4ThbZoqffAUDpPHqZ96HJR7BQDo3UxJrMWhl2Sal7b0TYWEBmo1cMcdd6TGjGihO+ywQzbHHHOMROnkAADxHYQGQgOhgToNCGvzUGlgUwaNQLgd8Ohl0nFMejU0EACgP/Pgm1YiVzIub7dcIJW3lMAMGS0NoPbIQRBNQblCf0KPEj0ZJQkAMEqzHc8aGggNtKQB3iBl9FTLKEtwafF6NcoJGV4NBAAoZ24lpErMVTVHpTCc+Jy6Us6I4q690kDeM0ZUV5U11Cl0J7SjUc6nCgDQqzcurhsaCA0MpAZwP1V8kLhWpuAy49hq3NNKadAyxxr3bl8DAQDa1123zkQVUodeeUo8fOWCJd3PPPPM3bpFXKfPGuDl1x9FMrR5VDpWU7OgVP5jIgIA9PmljNuFBkID1dWAihQqA6nUUQVROUT5PNU9QoZTAwEAqjWvvMWPPvpoSmZVbhP4Vr1GZZxR9hZXa5Yaj0aFI/Mm70NysrKrSy+9dGVLw5at0wAAZc9A3D80EBqohAaUEsQJZvwrv1cVUaFIwy/1v0OGTwMBAKo9pyr36PCqY60qPDoSS9BXmSekXA0o2vDQQw8lGhfnjbwOBRR0fw9proEAAM11FEeEBkIDI6ABVJu11147mzRpUuWeVlRiueWWS02CQoZLAwEABms+VQjTDEp+DiDgmywzV2iwtNf5aEVllHnVZ8DfehxomhbRmeK6DQBQXGdxRmggNDBkGsD/1QxHLe6qimoV6nJ/+MMfruoQY1xtaCAAQBtKq8gpuvpq0GX92GCDDRLdRDWZ+oaCFRnuQA5DZJZ3X8L21Vdfnerx63Gg90FIZxoIANCZ/uLs0EBoYMA1oO7+zjvvnH33u9+t/JNsueWWaZwaHIUMhwYCAAzHPHqKa6+9NnWNVVZSGWH15KebbrrhecA+Pclbb72Vvfbaa6mrsFLMdKlTcBRD6O4E9BQA/PVvb2Zf3Xrf7P/7n/9CQgOhgeHWwHJLLZrtv9uWA/eQiy++eKYRjJb3VRdJbnfffXf2ta99repDjfG1qIEAAC0qasAOU03o4IMPTn0H5BXp+Au4D2NH2W5Mjapnv/vd77J99903+/3vf5+6Ay+11FLduHRcYxwN9BQAvP7G3/6nscJ7s3eGtypewNDA0Gtg8gHHZ1MP33OgntMmo9zfIDUDOuKII1JVEsAlZPA1EABg8OdwoifQgOyvf/1rSiTW2M96s/fee4c3+3+VJp/ixBNPzNZZZ51su+22SxTHd7/73cP9UlTk6QIAVGQiYhihgUHXwKABAM1/eP7LrvdfdN6VKUQFOumkkypVrajoc8Txf9dAAIDReRN8u5JYH3vssez73/9+9uc//zlV91JidFTklVdeSTQp0UzrmGdXXamMjuujovPxnjMAwKi/AfH8oYEuaWCQAMDrr7+ebb755mNJZV1SQd8uI/lQt+Ljjjuub/eMG/VGAwEAeqPXQbjqX/7yl+yJJ55ItL577703W3XVVVPfj2FKIpbEe/PNN2dnnXVWtuCCCyYq1Cc/+clUsjPoUOW+pQEAytV/3D00MDQaGBQAgGv69a9/PTvjjDMGOgx/2223Zb/5zW+ynXbaaWjeoVF8kAAAozjrb39mVKFHHnkkVRTyXb/3ve9NYIDRPGgiynHJJZekyj2q9Sy22GLpz/vf//5Be5ShHm8AgKGe3ni40ED/NDAoAEDofYEFFsiWWGKJ/imnR3dCA1JxZNFFF+3RHYbnsowSnsdXX321Ug8VAKBS01GZwUgiBvKVJ1YVZ6WVVkp/qsqP1yhNx3IOltlnnz2tS5/61Kcqo88YyNs1MPQAQJc4H5HkkmbdPW2mn/70p9NHFhIaCA0U08AgAAAVOWxSqnMMg/zHf/xHtvvuu2cnnHBCJWgDaAxnn3129sMf/jD7wx/+kDpySnpUwm+eeeZpqHLeTobCfvvtl0lwzoUHlOHTLQEA5p9//gx9qkoSAKBKs1HNseh4e+utt2Z33nln4srPN9982YorrpgM7bJEYvPtt9+eOiT790ILLZStu+66qUFayGBooDQAMNNMM6VkGPLOd74zGd277rprtsYaa3S1xjXD/zvf+U5KurH4jyeSc4SnvvCFL6RaviGhgdBAMQ1UHQBIuPvmN7+ZnXbaacUerOJHP/fcc9nhhx+eKE1lCQNFhRPACiipF86X733ve6lrZ7384he/SOs+PjT6Q+41xA+2LndLAgB0S5NxnbI1IG/A9/S3v/0tGd6imf7udTdcZToffPDB1IEXkNaBFxAJGUwNlAYALO7qbmulrRGPTeCNN95ITW54i0JCA6GBwdJAlQGARLQDDjggld+bYYYZBkuxLYz2rrvuyl5++eW0Ifdb6Jbn/qCDDprw1oyTyy67LFt//fWnOc7aLyfjc5/7XKoMkjtgagEAD+MOO+yQkgn93Dxq3iZZkvHDybPpppsmuoSSgkAEh9KLL76YXXzxxdnnP//55HCad955U3MheRN+p8mQ8bjmJz7xiVR7fMcdd0xAcZdddkmgRg1393E/Ncq7TcGICEC/39jhuh/wff7556eCBr6h5ZdfPuqm7PkAACAASURBVFHdPvjBD3b8oMA8sMHLf9NNNyUn6jbbbJPNOuusHV87LlC+BkoFABbpX/3qV0kLXmId87xwPEH+fd1112WTJ09OzSG82FOnTs0WWWSRVE/Xoi2UDyzgnJ155plpEfdyAhbXX3992gQs5EpOWex5yjSWsOAecsghGXrQoYcemspw8TS5pxbTNjNVQqZMmZKdeuqpCVW77mGHHZZoRGgE/h8StukIefMuStaxabh2SGhg1DRQZQDA0FN1gqd5WMW6Y73sN8Cx1gr9W4ebCVoPbrNa37nkAODHP/5x6sdw7rnnZmuttVZaz63L/qASATcMdGvzkksumWidgAAA4GcPPPBA+nuuueZKhr712Vqvi6j1GQCYeeaZU6WVG2+8MRk2vKa8mQwmAAC1wjnkW9/6VnbLLbekfYighx544IGJ0tRNCQDQTW3GtUTRjj322GzGGWdM9ol8J/9uteIO++v5559PYB3gZhN9+ctf7iozI2apGhqoDACgjlVWWSXx3NB1/M3jg5bD+8IDhCokSoDvymjXVQ/KtejbfHDjGPEWe5s9o1/IGTJm/DP411tvvWTQM+RFHnBMn3rqqbT425x4f3iQlltuuVSWy/VtQD6KhRdeOG0qeWtvf//bv/1bOo7IcrcRAighoYFR00BVAcCzzz6bwuWMt2EWVUQ4SBjU1sp+CIfNRz7ykbQ+tyqTJk1KHsV6AOBn6FmoTP5tfbf2ugenjghHDhwcw7MvvyuPALguwUG2TjPmCcNHZMDP63MAgAXlVDfaaKO0B+gLMeecc6bzrP2uMf3006f/V6Fl7bXXTtGGbkoAgG5qM65VqwH2EntGRR42E3uITVW7Pojgvfnmm8k+8i0AC5ygg9QcMWa9PQ1UCgBAmVdeeWXawHj2RQc0jWBoSzaRJ8Ajj/fmZbZYyzSHci+88MKx/2fkOx4QaAQAeMqEq9Xedb5rAhs5ABA6nnvuubNtt902O/3005NmGfZAyWuvvZbGY7M1VhsCQGGTEcXwbxtXSGhg1DRQVQCAXiJK16oHbJDnzUZu3VLpqB/iPkUbqVkfOV5yIySPADD6GfwityKse+yxxzQAIF97PVe3AABAwMPJ8VMPALwv9ojaalHG3u31PQBAP97U0b6H74rNwmbac889M2BZJEuZTtFRhQREyjhRe51HMNozUa2nrwwA8IIKzwrTCj8JAfPQ87oQ6HTxxRfPTj755IRWAQAhXKFeYEGTCfxRhrvFPE+QaQQAvPBediFjoeR6AOB6QsPQMM4n2X777RPPjqfr97//fbbaaqul0DGvktB1lLuq1osdo+m/BqoIADbeeONE6eBB7rdYK/JoYT/vzVMudM+50WtZeumls/vuu6/wbRgfvJKkFgD4f0YKpw6qUG640OPjjz8+5pW0HjNoUD+LRABmm222VGPdvkHsOT/4wQ8SNbQeAKCdiko3y20o/PB1JwQA6FSDcX5RDVibJO+iuIl0hdFfVIPDcXwlAACjn7eHga0Kzw033JD+5sWXEMbzzyPEy8/oxt/sJQCQ9MWwx5370Y9+lMrZ2eje9773JSqRe8srEKEASoStbVgbbLBB4soZa0hoYNQ0UEUAUOYccC7g4w6r8MgrQ8ghU1ScZy3lZa8HACgJG264YXb55ZePVQHS8fiYY45JEd1nnnkmOYYAD9cpAgBQeng5OZjkcqFIAAQSe+sBgL0GrdP+w8FjL+As6jawCgBQ9O2J47uhATZNTl/uxvXiGoOngVIBQL26cOxxOvE81btVuQGtJhcLMRqOzaCXAABnbquttkq0gVyEfS+66KLsi1/8YsofqB2X0LVNCxhYZ511oozo4H0HMeIuaCAAwLRKHHYAoCoIQ7qV5N/614szRe4WGpD8KlQEeVe5oG/aA6y3uQAK8jmcS7d5lRMRA43Q8vrjehDwbuZdRyXx2kt4OR3L8HFtRv8yyywzdhxDXAUVVNBc5JG5rzwEfQwUeggKUBcWi7hE6RoIAFD6FJQ+gNIAwAUXXJC8L8QmwNtuMa4NRVnsLdTCVX6f15v1c4s8rztjHAXHBrL55punUD/PEA8R7q9kMH/wVCXs8irZDISARR78/+qrr568P2hEQEjO+XQdXiIbgrHlfQRsCDx7fm7DcC66kqQ0niJAICQ0MGoaCAAwWgBAMqxKPO2IdV4eAG/8qEtEAEb9DSjn+QMAlKP3Kt21NABQJSXEWEIDoYHONRAAYLQAgBr5e+21V9svDqdJt2vqtz2YEk8MAFCi8kf41gEARnjy//fRAwDEOxAaCA10RQMBAP6uRkUC0AL1BEFXVD8+L0nZFUVX5CJq8qvD364EAPi75gIAtPsGxXmdaCAAQCfaG45zAwAMxzzGU4QGStfAqAMAPHGFCu6///7UaVaFGfRFuUMq1qhONtNMM5U+T90aQFCAuqPJAADd0WNcpZgGAgAU09cwHh0AYBhnNZ4pNFCCBkYZAEiEVTJYDxFda+tFvpP62yeddNI0SaYlTFPXbqkDsCRdBRCKSm1zx6LnDtvxAQCGbUYH43kCAAzGPPVylAEAeqnduHZoYIQ0MMoAQN191WkUBRhPXnrppUwTQk2shkGUR9Y1t9MyoMOgi06eIQBAJ9qLc9vVQACAdjU3POcFABieuYwnCQ2UqoFRBgA6iesH0kymTp2aTZ48udlhlf695lx5Sc79998/9UMpKhop6ucSEjkA8Q6Uo4EAAOXovUp3DQBQpdmIsYQGBlgDowwANC7kyW0mV155Zbb++us3O6yyv1e73/glNy+yyCKpV0rRxodKgKrzr4RzSACAeAfK0UAAgHL0XqW7lgYAdMxVS18IWZ1+TVbU3FcXWvdFfFrt4m003/jGN1I7duHzXNTgV8dfi3iimcxHP/rRdL1HH310Gh1r/rLZZpulxjEaeOk+6WeO//Wvf53xRrmvrpK8WdrCaw+vO7Ex6R+gK+RnP/vZdF3t4Q899NDUs0DPgLyWte6VKn8Yi54FWtdPmjQpe+KJJ5J3sHbj14dACN2xtaL9/G9/+9ts+umnz1599dV0/1lmmWWaY0455ZR0H70Nvve9703zO+OnP/0Q/vSnP6VnHU/cZ9ttt00dLrslmgNtueWWqTfCQw89lPo3mOci5f6uueaasWs8/fTTqbla/XN2a7xxne5pYJQBgMaB+og0k29/+9spGXgQZaONNkrdzjX/yptlAQSzzTZb9re//a3lR1pooYVS35aQv2sgKEDxJpShgQAAZWi9WvcsDQAwhnVvZNirlMEbxDum1TsDVqdfG4727+ecc0728ssvp9bxucFfDwB4ojQH07zLdXSKJJLvGNB+tuqqqyajnUHqWgx6nR2vvvrqbOWVV07HM7oZ7+utt1522GGHpZ9pKrbssssmg7pWGNdAyEc+8pGxH6v2ARQo/ccgAA5c8/TTT8+Ey4kqITvvvHOqCLL22muPGQSS6hgHgIMkud/97ndp7LjFtYJG8OSTTyajWBv7OeaYY+zXDBHnABzNAIBz6eT555/v2ltpnowdgAFuGAe33377WHO1/EaqpBx77LEJqNSL8WuqpvPzM888k80999xJF42SK7s28LhQxxoYZQBwxRVXZJ/85Cczxu144nu0rp155pkd67pfF5DcrN6/RF+e/tq1Lh/DpZdemtZq1KBmwhFg7Ypv+R+aor8VVlihmeri96GBrmqA7cH5GjK6GqgEAKB+nXZ54g8++OC3AQAGuA2Il8lGS+oBgBA8o5JH/5577skY04TRDRjwRtd2GfY7Bjoj9LHHHpvmDQAIdBF+7bXX0s+LAABGtQgCo388r/fuu++egIxnVjVEhIDoaMwgd7+Pf/zj476VAAAAI9LBSFZdhOiQ/JnPfCa7++67E7jJAYBa3ZdddlkyzAESBoixbbzxxhkPOxDEs3fAAQdkH/7wh7N111036dBcADM2d54+YOqf//mfk26BEhEZwMs1eQVVOKkX1xMVyLsr57+n9xNOOCEBPlGeHNjdddddqcOzZ8nFM/oDLIZUVwOjDABEFkXljjrqqGyGGWZ42yTpesv4nzJlSgLHgyCioCKl1kIdzscTIGG33XbLRCYnEuuvBOitt956EB6/b2MU8QwJDZShAXt9yOhqoBIAgHeXlxfdZeGFF24IAGyc888/f/KOM45rAYDqGjxvPNmMYkDilVdeSbM644wzJgpRo4Y12tjzUvM218oLL7yQvOovvvhiNuuss04IAHiy3vGOd6TTGdPABu/+U0891fCtUivcOaIAjGjPonFQbjTYHI3H3zZVVJp6yQEAihQDGpWHPhjVABDDXBQFALj33nsTlenWW2/N3v/+9yfQc8kll2SqljSKADDY0a8YK0QkA32KDhk5KErLLbdcuhfdMBDmmmuuNHf1Rr5IC8MdWHHdejE+NdIZTQAIsGachx9+eKJc5WKeeBfVHQ+prgZGGQCYFdVwRCyBWaBZ9IsTwbfG0yZRGPWv6oJGKOqK6rjmmmu2NFwAx7px6qmnpp4H9WJ9sm6hHIaEBkIDoYHQQPkaKBUA3HnnnWOGISOTB5qXqJ4CxCN+7rnnps31/PPPT/zRWgBw4IEHJiPTMbxRwMS3vvWtZByjFjEoG1XewFXH768HAAx518jpPUUiALxmPPzC3I3kqquuSs+BqkRQoQACm2MufifsznDwR0ShVnIAoBMnwHTkkUcmChNPPu+/DTgHAICEqIl8B+J50W4803gAAMgCnOgUrcE5ufDQC1czyHnqHUO3DIVaqhJgBdxccMEFieY0kbg+OpjGSSIiAQDKXxjaGcGoA4BcZ0A4XrfIFmcAwDxRedB2dN2LczgiOAjkSqEi5o6NVu9lTeDNtg6j/YkaojmuvvrqyZkhHyokNBAaCA2EBqqhgVIBQJ4DUK+K8QCADYVnnlGMp58nATOCVZXIveiMUgYvA5eRzxtvQ6oXCXnC1o6rFYCAxxv/nBQBAD/96U+TMW48jYTBz0jnPSe84I5lMNdTlL72ta8l2tPll18+zaVqAcDRRx+d5bQZHnLPCcDkAACwYszXAoz8Yq0AAKF/es+Fh96GLpJBlPITDfAMnj1/psUXXzxFDkRuxhPX1Tl1v/32SwAC6BFJwDWupQCtscYa6Z6DXj6xGp9870YRAGBa3cpDEgWruvz7v/97coIALt/85jcbUpiq/gwxvtBAaCA0EBoopoGBAgAejfH/la98JYXbhdfx54EBtJ2cR87gRwnKjWueaIYrzj0jm5Hpj/8HQnDUcw8d6pB/84DlBmcRACAULnqwySabJGpLngTMW4/iwiMmgpFTAfDqP/ShDyWDFwgAcPw/ug2OPq/4ySefnPID8Pt572sBAMNb9SKAAqdeZ85aAICvLzGYV991Ge6AE3oCACDMj0KVC6pOHgFgGLiuhGIVjkRXRFWAAs/mPug/PPgiLX7v2vIPGO1yAsarQsTTyNgwd3ISeB2Ja9GRykSuA4SJQgB1fh5SXQ0EABg8AMB5YD2xdkyUd1Tdty5GFhoIDYQGQgPtaKBUAMBLzPtbL7VlQNFl8PpxUgkjU6lPBr/qQUph+n8bWK0wTIWdGfGq5cgB4AmX/Ao85GVAGf9bbLFFMtRtgLxgoga80bm4vypAEntrpb4MqHKVIgcq4aDtCKl7RoYyIx5Xn8e8vuwmA93zACSeAzgARBjfPPpABeNXtQgRhFoAYDyoOGhDrk9qAQADHA9fzgG9yrdQgtU1ACh5FaruyJvwzAAAUPX/t3fnIZeW5R/Azx+BGWboH7ZQDf0iqHSSNspyaTUlW62mIGXUFi0YKMUWCYvKhjQss2gDw3JatLJtpDKVFiNzoVJbmBYkrJQgqH8ikR+fO66Xe+55znnPM+9Z33NdMMzM+z7nfu77+zznvq/vtUa1DwSCJwLJQFDgJEZYQrH8BIq/cSjywrPOOeecstY6H4AltH0+YqQ/+9nPdtYCNw9lVnl2kCXJlcKCUhYbgSQAy0EAhOog1sLtkHDlAFMSgUQgEUgEVguBuRGA1YI5V5sIbH4EkgAsPgEQUsjo8rjHPa7kJ6QkAolAIpAIrCYCSQBW87nnqhOBiSOQBGCxCYBQPtWI5Ar1TfCd+MuSAyYCiUAikAjMFYEkAHOFP2+eCGweBCZNAIS8tRWwNg9as1vJ9ddfXyrzyLt5wAMeMLEby/GpQyUnNvAYA6kgp2rcKaecUqqfyRFSUli4o9DPUR3Qxxg+L0kEEoFEYNMjkARg0z/iXGAiMBsEpkEA9LpI2RgC0UV70lZ/Fb7m0ZxPw0dVwzR/rJstym1QAEKvAaWPl6Xh2saebn46EUgEEoH9QyAJwP7hlp9KBBKBBoEkAKv1SsyDAOixoiiB6m3DRJ6DQg66lKualpIIJAKJQCKwLwJJAPKtSAQSgYkgkARgIjAuzSCzJgBKluod8uIXv3hdjJQ21vFcOFBKIpAIJAKJQBKAfAcSgURgSggkAZgSsAs67KwJgHLHSjqPm8egdPCrX/3q0kckJRFIBBKBRGBvBNIDMIM34swzzxz87ne/G3zqU58aqKuvp0AmN84A+I5bfOMb3xi8973vHZx77rmld4H+BPNKZBwXAf0hVHA58sgjx/3IXK5LAjAX2Od201kSAM0Y77vvvsHWrVvHXq9mip/4xCfSCzA2YnlhIpAIrBICcyMA999//4AytnPnztKURiUHyphut5QzsZvnn3/+2rPQuZfrV8OsEM28KHFcvXWyoGoXb37zm0szK51vjzvuuME73/nO0lmW3HLLLQPNqTQGMw+KFcuSZldEN9sPfvCDg6uuuqo0DdPZ15x0IB4mFPzHP/7xpba2Rli1UPYdRJp4ScTjytbxd1yR2KY5WN0JV2MzTbdGieZgj33sYxeig64Ov5qkqdShmZh/T8s9r1mcrsdEN+g6UVCzNs9Cl2VhAqyEujaPIxQK3aa9B1dcccW6H9GQTRM37/ZGBAH46Ec/Wt7ZUWLdP/jBD8r8NK3TrG2WkgRglmjP/16zJACMJhooPvCBD+y1cE0ENT3UtHFS4nywh8UeM6lxc5xEIBFIBGaJwNwIwKc//enBe97znsFPf/rT0pTmrrvuKlUdKPoU/5YAUNopb3ffffcaPhQj7l2KnA67IZ/85CcHF198celoSxAN7uNvfetbgxe84AWlay4l6S9/+UvpLKycnI7DyILycRQ21xmDEoVovPSlLy0WfIpjl5hzdOPds2fPRJ+hdVD+dNztIyplvPGNbxy84hWv6POxXtciJzoWH3jggSM/h/w4hJEqJO6II44onYBHkapxJ6JD8b/+9a81UqUkoGeoKshtt91Wuh1PQr7zne+Ud2nXrl3l3YluycPGRjQ8O8r7RqSLACAXCGtNbnS9Vh7RdwjxSAKwEdTzs+shMCsCwEhj/7j66qvXm9I+v3fOIA/2my5B5CUVI/a+L7y1jCv+P0ycQ7qgt4ae3pPLDyQCiUAiMEcE5kIAKN2HHXbYwObcpQB2eQBaAsAdbAwK1pYtWwa/+tWviqWetATAz3gaKPAUp5///OdrBMDvKHOPfvSjB6pHKB+n0sS9996712OhuL797W8vRKUVB9Thhx9elMOjjz56QFEMb4NDwsHivv598sknl3WzZMGB58GB8+9//7t4GZCRVnEbRQCe/OQnFwUTmfrlL385uOyyy8phecIJJxRrMI+DP/BDlsxBCMyDHvSgQnC2bdtW5nHwwQcXgoTgnHfeeYMdO3YUZd2cYHHGGWcUDFtF/7TTThvs3r27rEMN7mFKJ2X1mmuuGTzpSU8q8LG8O9A1JgqhWJvfjTfeWIgYXB/2sIcVj0lXHC+vwpe//OXiCXnXu95VcCTm/+AHP7g8V2N4H4hncOqppxbvw1ve8pZixfv+979fvCTxeyUEf/KTn5QqI55TzBeZOOSQQwa//vWvyzqFDb3sZS8rn4OfmvXm4Tm+733vK/d1H59zH54P8/3c5z43uO6669buJ6RBYqPr/M5zJO9///uLF4t0EQCkxvvmvQv54he/OHj9619fsEsCsM/XNH8wYQRmRQAYZr75zW+WeP6+cueddxYjAANQlzBC+N45E3w/fdee8pSnlApCKYlAIpAIbGYE5kIAKH1Pf/rTi9LTJeMQAAonxVP4D2WXxT5CYroIACWLy5b1mRKPeLBe+/nzn//8Eiaksc0xxxxTwpBaqy3FjyXJ9a2wurr3TTfdVJQ//+euJhRallkHGMuRA+Z5z3teUYAp4BRJiip54hOfWHCxtloQAL+jeIZQzintCMA///nPouBbF0/Bf/7zn6IEth4ACqXDFElgNUeckAQHnrGQEmPwvsDwggsuKIenetoUZ88tvCr1/ITZCKP52c9+VhRhnpzW5W4+vDe8BQRJorCL7a3FveBIwaWIIx7Cq2qhXDughVtRCnQ2DWKCxBlDuA6PyaGHHlqeGUKAACCJPmOeCOG73/3uEi5DfC4IFHwp02qoIyF/+9vfitWPp4Fl3/PUYIn4zIUXXliUCATooosuKuO2HgDXCU+zLvL73/++YO9ZwBUm3iPvqPUb3/MclwAERkkAOreV/OEEEfAdtNcxWNTvXXuLuiFX25xr1O/qcexnv/3tb/crB8Z3m5FA74AuqQmA37vWnmwPsp8hDkJUEXOGE3Nm9BA2KoTR3seIwkhhv2QkSkkEEoFEYBkQmAsBoABRGLus6UAbhwA84hGPGHz7298uyjpl7kMf+lBRVkkXAfBzm3cQAAo/az1rLKs8hY+w/FJ2242cgkbZZuFtxSEh5MRhyOJ07LHHljwCggD4LHJBWJVvuOGGYhEWvuHgiIRgSisF0qHF2hzi80972tOKAhvi99ZjThTZGMP/Kcf+bgmAUCuW+MgloNAjTj6PAJg7UkCsAQ5veMMbyv9DAWZZ7hJkDhFh9UYq6rkG9uMQAM+FBwNpMpYcjMAu7iv0xrxY/ZG6WpG49dZbS66IsDDyqEc9qmDtWZsTEoX4ISj33HNPIQSUelZAygAlPsZD2JA++SNCxITWGIvFH1ngdXrMYx4zOOmkkwqBDA9EzLMPAWibNB1//PHlHURugwB4BygbRMjbUUcdVdaPzMbPA+v0AHS+pvnDCSFgr9IELPJnfE+DSPue2w98T+J7iOTaO/08wjgp9uFp9V00pj0R4SbebfsSsvGFL3xhrz1x3GW4n7MBIe+SlgD4rjOm2EOdQ/ZGwkMcxiYEgEfStb77L3/5y8t3UK6B+/D4pSQCiUAisOgIzIUA/OEPfyhJrZTkrjhqGy+FyMYd0oYA2WQdPqzWDg7W1V/84hdFUe4iAMgBa6trKb6RA+BQohSz/Jx44omD7du3l4PLgVOLsW32f//73/d5pg4qXgSKtcOKMvn1r3+9xN4jABRPCc7E73gHKJIUTVbqumOln7W4rBcC5BCzbsKDwCLeRQAowxTZupqMw9b9HbQs0pEITWF2wFNEiXUjB8MIABxZxFjGJVALpaml9QA4THlBeFZqQchY/WHm3fCsKNm1mBdLusO2tewhD9ZBcSff+973Svwv67oxPScEgFA+jI0AOOg949r17/khmGeffXbxJDjo4USuvPLKYhEUKuW9ib/refYhADwXEtrNUXgbhcqcawLg2SJpBMmhcERyuHC4kPQA7PMVzR9MAYFphABR2L3/xD7sD6+lvJ4Ix+uzFBZ6oYW8hV1i77SP2Dduv/324mlgoGmrDTES2f8p/zUB4CXkYRQ+mZIIJAKJwDIhMBcCYFOnjAuFEQYTwhou5IFFP5TDSHKk8FFeKXcso3fccUex0IRQsIWXULC7CABFSpUeoT11ErDPU1pZux0WXL+sxJRuCnMISzlFX45ALYiHNdTroMRS8CmaowiA8a1TEhoROuSgYTWra11PigAgCRRVa60lcgBqAsB74HqHPPE7CihLXi2s/sJWWKRZ5JGy2nsR11JUYe8QJXINrP/DH/7wPt8XMfmnnHJKUd654bsERkpjOtwjbwGZEqYjNKyWF73oReVZWOcwAqA8q8Mc+QrszcPz8175HKU/xLzcn0fJmingbdhYSwA8X7kHFA2CCMojgCkFRRiT90F+hvcVoaoJQF0FqCsHIOaWBKDzlckfThiBaRCArikiAMgwJb2vUOgRe/tJlyAAzo5LL720hD46IxhE5ANE2CPjRhgJWgIQIYHC/hhW5BS13ry+c87rE4FEIBGYBQJzIQAWRtGmDApvEMqgGpCNltJHxOJT2FTfYRUV7mNzlfTI6i92vE4MpYDasLmSEQBWYiEZLKvGFAOOWLDktgTAff1evDcrN2VMwioLsEOBQs8iS4GjnPESOFSQEJZmIUAUuxDWKsqjg2sUATBnCv9ZZ51VlD8WXZ4DZKMWBID1i8U5hHJOKWXpH+YB4EGRTyDmXfy/akZCa4SLPPShDy2WLiFJwmBaD4C1wp5yzbPBIyLEiXW+Fsqv8CMHLGyHCQs7z4AD1PMUBgY/eLaidB8vhqRjCdmjRP6EsSm9SAZCYdxaHMyqe1CmhxEAn/c+CS1znXfGQY5MWDMiilyG8CQhBhJxfZZFHgZKy1LskVnJzIgUDwISQrmAtfeekuH5mz8C4Dl5vkKbJHPDH+bDCICQM/c2Zoj3h4dGaAKszR+WXRhPY3PJMqDTQHVxx5wVAXAO+G4h+33F98reaZ/skjYEKK5x1tjThQTyRNoHeUNbAhDXR46Z82ZW37e+WOT1iUAikAjUCMyNAJiEEAwbrfhyioxQikgepTxTkFieKVUUNxZjcaOsNSzZdawltzGLq4OCdZgCH0JZFtISlt0oG2ozDzGme0TNdgq+zd+4QkjExIc3gmLH8k25YwXWg6AOZRIGFHX/ERIKnvAOIuRFUllYwil7YuaJmPOuajc+76CqhTVe3Pnll19eDqaIm1UJxv8jJIQiDTNKrIPJ/Smn5uhQRGC43cXZUz4RnhDWM+SHsouQ8dps2h5QYwAAIABJREFURODmD0Jh/cPKaIqt98w8p/VKbdbz8cwROc+6Fso0S52fI4FKoxKkDq6UZEo8IsiVL0YZmaDUe8dY904//fR9CI6xXAcXoTnXXnttGdd7FNV5hDohhEij95gngjXT85EsrQxh3J8nCtkznmeCLAhRovggEOth4Rn63tRCiZmVQrLMBMCztHfA23sg6R459n/ETJJ37RFEEBkLvB96eti37BUIa/S38LdKV94tnin/5kWkJPJietf83/eb19GeEd4zew0jQp0kb7/yPfQuhvh+I/dymBgTZimzIgDWZD+wd9Rlb8dZq3NCUu+wuPxhBICByvdTNS7fX94/pZ5bAuC7Cndkm9HJu9N3juOsI69JBBKBRGDSCMyVAEx6MTne5kCA58Jhz+uTsjwILDMBQJyFgkgiR3iRASGBDBRixJFSxK0Vyr0qVVG1Slij8BEKJA+afCdKPq+QAgM8PzyLPidMEDljTOCVo6TGPfye0svIoNoO4WlELmsCwIPKOMG7Nyxcblpv0CwJgP0AAe4ykAxbH8+BZ9om59fXM/IgWQh6K8ICeUl5EBVQQPIYXpB6nkJkjJEEOWBMMMakeo5M65nluIlAIpAIBAJJAPJdWDgEhIRJ7hWTn7I8CGwWAgBx5FMolXCycQkAbx/FUBgW4oBEIAB1kj9PkVyOtpoYEsAzRqFk+UcAVJ3iORQmxjPXEgBzQyYoqRRP95+VtwdGsyQA7ieMT3jnuF19eVQQpGHhP8vzzcqZJgKJQCIweQSSAEwe0xwxEVhJBDYLARDKI1eG8i4MEQEQIhjWZ4nbUf+eov75z3++hHSJN2cJjrAf4XUUekqrXA6eAGE/ckK6+mkoNSmkUOiZcYWBvfa1ry0hfNHNvPYASLoXe07RZY1WpcrYs5JZEwAhckKkeDzWEyF/rP/CdlISgUQgEUgE9kUgCUC+FYlAIjARBJadAIilZy2Wo0NZF+evLO56HgBJ9vJV5DIpN3zQQQet4Sm3wOcppMKLhJxoKtUmqvsAy79KUnKBggAYU66BMry8YkEA5PCw+itfLFRIHpH49GgqOJEHus4gsyYApsOr4r5taeB6qgic0CmhOZ5jSiKQCCQCiUASgHwHEoFEYEoILDsBiByAFp71CEDkAAgZEvpD0W+F10D1Mp4FhEH52FrEq1NWEQQJ5EEAXKOikwpUqm1J8JcDIKcgqqi5RtiR6mY8ELNKQp0HAbBWWLq36j5td2H5F7whPDfR8HBKr3sOmwgkAonAUiOQHoClfnw5+URgcRBYdQJAqWfFV+WnrQUvfl3cv1AiYSwSgIX3hKjWpBSyqmCkJgBCgJQJlkSsRDECoPKMkCG9UUKEAKkGVjezm+bbMS8CIDRK1SMlf1VoilAr1bpUZPJ33Udlmhjk2IlAIpAILCsCSQCW9cnNaN6SEyUaKqGpJN56IuZZyVHKzKqIsA/Y6OEwCZH4yYo5Dt6TuN+kxtjMBECcf92fQ6Uq4UF1FSCKKaVcKBEyIBfA90ZIkf/zDOi/4X0RtiO0x++V5aXkKz0cnbhrAuD5qPLjvdAQEQEQZuQ7Vnf1Vs1GWUrhRrNQgOdFAOJ9VfJW8z/YqaAEE2WAUxKBRCARSATWR2CuBEDVigsuuKC4rtU5V0eZ5YyVjLtcXfoQSXNqZ9elIe+6665Sg1/c7DOf+cy1a5Vvq5UnzapY4MI1zmUf3XdVlBAvGkl9MYgxJO/94x//KIc097467rXU96x/Lva0rhm+/mMYfgXLIGVAot9GhFJi/RqT9RHlETWk0m+A8kLEL0dXZhbPd7zjHcUdT/QZkMTo2UxTWP2UR2ybpk3znsPG9v6q5U+Bm4Ts2bOnvHPGm9R7NIl5rTfGMhMAHaB917vKTOoLoRZ8Ld53VnkhO5TuqDMvF8A4+ppoLKiUaNT0r5VTtf81xKO8asInpt2eF+LZKzlZyy233FL6Caj0o5t0+3ux70gGcjFupZz1numo38+bAGxk7vnZRCARSARWHYG5EQCdYLmsVWl46lOfWlzfXLesWJRxZe/qCg4OP8lxDuMQyj9Fc+vWrXs1yqK4s9BJwFPTW6Kc+trK5WmuRGFTo1tVCQcwsqCahsPcwan8JCXM/R3OyABSos52NHgyh6i7bd5icINESCSsD/ONvGRKAVIu6vvuz3jGQa5g1UdgID75Ax/4QPmYrrsUfk2SWDApImKkzzvvvNIAaRYEgOLBIsrKGZ2j+6xp0tdOmgCYnwRP753648siy0wAlgXjRZpnEoBFeho5l0QgEUgE+iEwNwLAgvaqV72qWP1DWOZ1VlXebhwCIN6VYq/5Djd7dNFEAC6++OK9Su2pHsHjQGGksLl3VMxgqUMMxO4iIsbzu0MPPXRtbhRhpfg0BGpFdQ7JZ5dddln5FVLBVU8ZFrerOkd4H3Q2Fk7gegSIW58HQ2wvosKtb67qV5Ovfe1rhYToSkncn/JtvFNPPbVULWGdVIJQxRAWceO2wnPCkyBx0BgwYCnUCRMp4CHpshpS7v0cARDDzIqplnl0THYfpQ2tkeWzJQAsoB/72McK9jwD0QHZ54RC8C5IXJQYCfdxhCfi+uuvL7G/iKFnF6JhkDG9Pzr+suiee+65g3POOWetO7L/+8OjwxKr9KL3h0WVZwhRgo/3AmasqjweQjzgjChaf4RitAQAMeQxYSHmxdJVtq8kARgUAo/kpywmAkkAFvO55KwSgUQgERgHgbkQAEowxUz8Zt0kJyZMOVuPAPzoRz8qFmfKmVAcSjjFmXQRADW9kQsKKaIRBCA8AKp3UOQoHFzsFLha3Idy7fOt1ASAMksBFwJAoWTFpTiLB6Z4U4Ap+xRpyivSoLSfeFZKPzxU/aDIIkkUV9ciIH6mCsiFF15YCARlG5nwuVe+8pVrmBmTsl0LouUeO3fuLAq7OH2hCxIRKfcUVcSrlde97nVlLF4R80doeDvqSiPWDDOKMaU3QoD8XMiCyifImvAj43m+qnTEvY3lZ5RsoUqjRDlEyre/PQ/JkDt27CgfkVhpHFgJ6fCcYaGDKI9TkBZKPexY172HyI/kQeuXVAgbz59HxzOUA2Gu3g2k8LjjjiveJGFp11133eDmm29eCwGSAyFUTdiZEA+JiuahQVQf8Z7ALYhfn8/O69r0AMwL+fncNwnAfHDPuyYCiUAiMAkE5kIAKGNRO7trEeMQAIqZUBSKPKWWRTjCQboIgPtQ/CTjCRsSY00pYz1nCY/4bQouyzolrpY//vGPRSFvO3i6piYALPjbtm0rVvoQc2RhRlgkCZpvLQiARkHRsp4l3BiU4ZoAuL816wg6TIQzCZNi1a6lJQBqkUfFEWvXnZSFuxbr8qziOiFTlGE1yFuRvOieYpmDACAWSNVZZ51VLmfx54lAFCjfYvgpykSIkg7Ako4POOCAoevz3pgrrHbt2lXIC48EMSZvg5yOWoYRgCOOOGKv6xAURA9pQAAuueSSotwT7421qT4SFV4QzptuuqmQjWE5AHIkvvKVr5R3rI/AjfLPA4T0LYMkAViGpzS5OSYBmByWOVIikAgkArNGYC4EgOWbQsSS3KXsIQBi6B0wIW0OAIuzkBm1nilgYvpZXFmcuwgABY6VV5gKD0R4AFhnKf1i/imxlG/hF2Lda6GgUsjuvffefZ5RTQAouJRaSn0tFErKq7AU967FtazNz33uc8uPeRBOPPHEfQhAWxkkxuBlEMqD2LCMw2I9AiBECmkiQp9U0GgJgJ8Ls6FUs3rzughZiqobcX+eBc9RPgByEARAvW45HXUIDCu8/AxroezXjXr8bJhXyL3c1zxV24mEbJixxvMCDcNnGAGQV6ECi7KJvBveI88iCADCQwEnPEjeC5b5uvb4Zz7zmQFyGATAO61mO6UffsgJEtWXACA4qrm07+GsN4g+90sC0Aet5b82CcDyP8NcQSKQCKwuAnMhAJSkww47rCjqQktChNdECAxlk0U/4tJ1unzTm95UlHwx3iz0rKshlDChG5TLLgIgvIOSR1lucwAcZBQ2Cqyxzz777OIZqBN5WczlG7Bit1ITAHMW4iM8pBWWaeE6bcWhcQmAsCh5CLVFGE6IxTXXXFNCeij2CM4kCID51zkAng9lmofh4Q9/+NryKMqs/H5e5wBs3769JDAjJ60IFfJMeWIIDwkFGwFA7rqENd71CFuIzyEaFGVjCsnhSahF6Bfc5DpIChdyZJ7eNb/TVMlnVDxCiroIgHwAYV08QG2JxToHgAcGCXQ/hNKaeCr6EgBEVHK5Z7oskgRgWZ7UZOaZBGAyOOYoiUAikAjMA4G5EAALpaRThFnxKXQspcJLKN4s0cofUvKFwUhuPfbYY4tyG0olRY9VOkTSbVQRMrZ/U8xYpCl0yo1KzhT20RIASqfYbgquRGLzEU4iBAQBYXEWesNbQPGlFPt3WIdrAsCKrDoOIiJunMLp3sp4IhnWJN+AIi2cBFkYlwBYo3KkvBHmRelFKBAfRIDFmXeB8jgNAgBrJEaYk7AhCrSYd/kH8hY8q5oAeJZIGoKg0hMPhbnLNxD+w/LuWRAhXWL5eX9UFOKxkd8Q4p2gwL/tbW8r6w1BfOQV8OyI30fwdu/eXSoX6ez6kY98pIQMwcRn5QfAEZGTXC0HgPcHnrwukqq7CIB8BqQVOUR2jC95W4x/TQAQTfh4tkKdvAMqFiEAQsCMIzyMR4unxLtNvHfCiaLqTyYBZxLwPA6EPvecNwGwt/IihkdSrtQw40GfdeW1iUAikAisAgJzIwDApSyqc8+yK8GSYhbWVZZWiiJLqhASYShIgKotqsBQ1uvNXlIsiytljOIl1CaE4kXhDIt+/L6u6CNJlUIX3Tkpj5JSKWwqw1BwKYyElVdISCiolHLhGlGr3xwpqSzBQmaQgbDkIjxIAIVWXD5lUg8EpCIIDSVeToD1Ix7mRnkl0f1S/oJkYKTJvF0nHAYZQTDaev/WT8kNTwY8WeAJ4oAAOUhboYwLeYkyoH4vidgaKPgUa+uOSjy8KOYUHhAEQYUgsfV+bv7yIAiS4tkYHzliySdi6z2r2nNAwRfehay1FnjvB7ImKdh8kT+WffOCvxKvfqeyE+XeWlTzMWckTk4FYggzpMR9eQMkKvs7hNLvmXiGCA0FyPop7kJ2KPreF/P37CXxIkrm43o/58VB3BAh6+XBIN5pBDVwTAKQBGDRDyDvv/dYGFzbI2Wac7d3+m7a8xBuBJ/Xk4FIKCCS33ZinuZ8cuxEIBFIBJYRgbkSgGUEbNXmTGHmAakbsE0bAwSBMi3pdrMIkoXAIEZdla/adVKoeCmyEViWAV3U7wACQAlnfJGbw7PFozltEfKIcHc1PPM9e8YznlH2D17WlEQgEUgEEoFuBJIA5JsxEgGhOMccc0xJTOYVmbawzEu0Vv1oMwkPkoR1eSzriWpPchLqSlLrfWYRfp85AIvwFGY3hzoEiFXeXsFYwKvJ2zgNK7wKbTynPHzDRFEC3kaeurr78uyQyTslAolAIrD4CCQBWPxnlDNMBJYCgSQAS/GYJjbJUTkAQgGF+FHEhd9NQhRh4GkQ1reeyA2QCya0MiURSAQSgURgXwSSAORbkQgkAhNBIAnARGBcmkHGSQKWNyM/SqiQ8sRtg8I+i+U9QyrG9SzIc0IWjjzyyD63yWsTgUQgEVgJBJIArMRjzkUmAtNHIAnA9DFepDuMQwBivsJyFF0Qt3/FFVeUsMIoBjDOmiTTC+dRindcue+++0rxCJW7ZiGKGchBmHYlImWM4amCmKplf/3rX/dreaqf6cMiNLGPKHrgvko8pyQCicDyIpAEYHmfXc48EVgoBCZNAHSgrqswLdRiczIFAZXI+so999xTqnEpG0yp5yWg1I4SZYKV113vunYMDfpUSRvlNZBPQHGPKnGSjFUr6yv7SwBUNVPVLeaokWDbSLKeSzQ8RAB4NzR/3B9RPU3Fubrh5jjjwGl/mhvG2PJFEDMenWmTpXHWk9ckAquKQBKABX7yDib9DvpYyua1HIe4ZmxRx35e88j7zg+BSROA+a0k7zwrBJRzFh6kFHLbIT3mYG/RXV2p4L6irK8SzHXzwHYMpXeVdFZmeiOyvwTA5yjx+oyMI5MiAOPcaxrXeJ5yOZwXdUPJadwrx0wEEoHhCCwEAWCBUJs96uybLpev2vTqun/1q18tliKNntRSJyw2rDRqtnP1qvuvHr/rYoOsl+2AYVXRaEqlim3bthX3Z4iycYcffnixxKijry58K0o4qs/Ohe1A6hI9AJR5rEvQXXrppWv9Bfq8jAiAzsJ1x+NxPu8w0atAV+MDDjig1P5nbfHvaYl64Opxc00vkngX9JRQf58oramiUdTfX6S5LvtckgAs+xOc//z1TNEzQ3+N6PdhT5EArOFgX/nNb35Tmu7VHefbMYYRAH05VB3Se8TexjLvfNDJXnNH/6fMOlOEGdlr7C9Koeo1Yy36paiIpMO480vvG2eL/jZxRnQRAH0NnGfOJSWBVTQSdkOGEQDNNJ1rQoJ4BuRLOK/gpyeKpoj6lPC8mL/+J5ofwsb5qSkiL4t7GkepVeeGJpN64uhrYi3KGbtO3x1njV4uespYj0pxmkWaIw+DJGzrdt/LL7988OxnP7t8DqbOSeNpEClPRK8bjR15BTQJVU0qJRFIBKaHwEIQABudzUuDqVoo+zbYXbt2lWZONlR/iE2bYqw+PZekJjBcy37fRQBYd174whcWZdhmajNEMlqxwRvTIdSKDcomx+2tMVXbkMr1LFqu4ebcqOwPAVD9gsfAYRmNyhxImk5Z/zKLtSExBx544NjL8C74XJA98asqkyhZmDJZBJIATBbPVR3tT3/6U+kBoqs6Qw/LOOOL8rh9xX7s/BjVn8BZQsGl5BP7t6aBRx99dLFSM0xRbBlUKPiajyEVOpzb5zUTdFbZayi3usSbt3GFyvA+UISRAco8hdlZZ2zic8YLQmAMTTHlSVCiNT2jVOu34KzrIgAUarH8mjOyqpur0sMaMWrUhgyYixAqxIVyjQBoHqm5IQLA0IaoOD8e+chHFiu9hpfEnDRzRCgQgBtuuKH0KEFK4KEbu31W08o///nP5W/zRDY0PqT8a0ZpvC4PAC8NMmLOCIxcDyWhGWtSEoFEYDoILDQBOP7444tbljWgFhvsE57whNIVuKvO8zQIAAuFbq02Ofd0SCELrYwiAA4PG6XDRQdkm51Eqvvvv7/8e+fOnYNDDjmkbP48FgiAzZoX5I477ihWIxs2QZhOP/30cnDoXszVbSx/Gys27np+DpIrr7yyHBQOBPixzJx55plr3W0dljb4IF6sW2HxCosMi5LYWoeMA8p8jakLJ2sOcVht3769HHRbtmwph4sD3LNhATMXHZZvvPHG4pGx+Q8TcxQz6gCRSGh+5lSLcR1YraxHAHgHzIOFkdJx1VVXFU9QhCRE3X7P28+9B+NWIZnOV3ZxR00CsLjPZhlnRrlmrGFt5tG0N/YVYzAKjSoHSlGvDTqMQ/YFn5F7EEI5tr8ra8po1YYstSFAOruzop900kmFKOi0/t///ndw9913lz3Qv4nPhTXc/+W+UMBdHx5VJIiBq/Zw1zkAu3fvHrzkJS/Zq0Sq+TprKPe83whILS0BsE/HWWsvd77E/ocUyMdxHgcBML+tW7cWohLy4x//uBjWeCDqcxiZQx7g1xIAXhp4+HmIc89+j9CkJAKJwHQQWBgCQInUwZFQviiYlEbKLXfkl770pTUEbFwsuKwQXTIOAWCZiI3LphrjD/MAUFS5SlltuDFt6iwfrQwjABR4mzArCmWZO9XmTEF2SIj1d9A5eGzmXM8IAGs3l6xNEi5+Txw+LCss28rr2ZQp9QgCV67ftULpVoaPFwSpgBNLDUuLsd1DlQ7YckELhXIdi4zxWXYcBKwzPAyxQVPKWc94TVxLYWc14ylheXOgPetZzxo4HFxns2chc1A41Px/GJkzVwc4IkIJoHwjKREKFmvkGUA6WhlFAFwPP94jJEgYk2frWfMUhEXMmNbBXX3JJZdM55u4CUZNArAJHuICLoGiyZK9P+U8KfZIxFvf+tahK+sKAbroootKqKdQnlpY0O2RQmrivIrfjyIArP5CQREBf+xjNQFocwCcR84AxiHib17wYQSA4cL55Jp2vvZ8Bqe2BOtGCQBjiFCt1pvKEAWLPgTghBNO2CssMwnAAn4Rc0qbDoGFIQAs2UgAYckV/09YspEBCjKLhOYurMVchizdXTIOAaBUCvUhFDsWFzKMANg8Kd2nnXZaUdxZi222bThKEICoKGFMlv/zzz+/WPHNm1CUWcspndYbnoV6PQgAgsDK7gBwaHSFFoV714HFYsVSD6tWEABeBpYhGHGrU74RrBDWeHkHFOFaHHYf//jHy/hiNFnEkYcQVq0gAMrLOazhE9ZyrlzEhKvdPbmEYWE98Nf9l3s8RPwti5YEQWStzg/p8y20zvpZwNF9HFqeh3Vyn7uOcLVbh07EXPKsbNbr3xGC1Of+q3RtEoBVetqzWysruHAb1Xn6Ck+p/ZeyO0y6CAAjjHOny5PKkMNgwihRyzACIATIfmi/l4sU58coAiC81D7K8ELsQUjCMALgWucEw0pbnpMnloGk7Sy+UQJgLc4Ae2l9FgQm4xIA+yrvDuOac5UgMwxljDMpiUAiMB0EFoYAdOUAxJIpbSyyYjJZppWQY50VCtQlNp6wlsTvN5IDwA1pY+JKjURaSjclNRT6uM8wD4D4e9bzcKnGpi6PgfuXNbrNKWhzAOoNlZL/3e9+t6zTASmuPZKThcdQ5FtBAJTE8zeBOcs8hb8Wbl0HCSs/vFngeB5YxhEApIdlLRJrfbYmAD7DSsaqH4o18mT9YmkRAM/PgUVc0xIA64KVpDnWuDpEyHwRqlocejwMrYzyABibx4R7OgTpEOqDKAkNEk/7mte8pnhZHNwpwxFIApBvxzQQsP9T/sXa9xWWZMYLe9ow6SIArNsUd8YZewRPgP1LJSLGKDlVrNY8AvYFXtphBEAoq/NDCIy/IzRnFAEwNiMRLzVDlX/bc4cRAGMJsWRQQVB4TJAGn0WA7PPOIGGscgHs/ZTsOgegbwgQcqKAh/BMeLi3tfFyM+ANIwCugwWjivnw0PCmw9b+y7jEG81A1Sffq++7kdcnAquOwFIQAA9JWIkNjdIvbIOlXiWXsNy7hoJqo2NtUaWH9ThEzoAQEopo3yRglhOKa10bWvUhCnBbmm4YAZBAzFJC8a3Fxu0QESbTJrmNIgAs6zZKh5L5qdSAAFx99dWFqFCoa2Eh8qcmACxSwnm6QmeEJTl0hBI5BOHqswiA/ztAHBghNQEwL8q9QzRIDQIm/wFxGYcAxLgOAt4aYUY7duwoHhgHocOhFl6E1iXv96MIgHcJUUE2gqgcddRRJSnujDPOKJUtPDfxsHDiFUhJApDvwOwRsP9QLvtWMmPFZ0XuKtgQq/A9t68xxNTCsCJMkYGANdq5EkYP1mp7IMODfZuhgJdCaGh4PYV0MvCwjgt1NJb5S5x1VlF2ic/xMNdzdN4xaDC+mBslngLvGvlK7sPQY99HMAjFmqGM15ICbl5R/ABJccYQZMi5wetOAXeG8kQ7XynmxPzs75J/CYx4Ro3r34gJzypyxpMKD9jw8koOjnUhBgSWP/zhD9cMOfZcc+fZdTaI/7fHO5P8LM6Z2b9pecdEYHUQWBgCwFIhDjuEe5LV1aZL+WLtZlFmdScUM1Zu19mUxIWLq2e1Za2xqbBwsOIY20YaJcYQAO5bSm4IC7qNELEwZtTetxFxoYpFr93IFF4bHaXeAWOzZ1kZRgAcADZeCWQUSpuxw0AsqWRaZeTMiXJLeWe5GkUAWILEdVJ8hQlZJwLgULBum7IYUr9HEMSUCnWpCYBN19rMRcgQVyzX97XXXlvwFK4jdtbvbd7IhRh+ijwrP5JF2YeDmPwIAUJqWJYQG8/QQeOAseFz9fYhAPF8whMgka1PLPAoAuBQes5znlMOPgeqA/r2228v1jzKACxZuVyHDPVVPlZnG/nfStMDsGpPfHbrpRxSfsNrOM6d7W9ydpwVKYlAIpAIJAJ7I7AQBIClg1u1FoonC7JwFcozy4I48jqeGxmgrLG4cJnWbl7eAQorpZbCKIQkFDju0dZyz7IcISruG+KzlE8EoBXK9Mknn1ysFoiAUBGWG1Uk2spFPssyw9rjb0owyw1FnuXGOm+++eZCZliDKJ4OL8p85ENIuo3QF25WhIZ1iVJOITcX4uCDJysOC5CfU9J5ANxDYnWIayn9xlNpgkLMW0K43CnECAtLl2cQFiHkCy4wozx7LkhLHLYsQ4gWSz23t3CiqNIjj4NLP1rQWxcyNo2ukMbmXo4OorA3L0l5RA8J7wJshAKYZx3aJAma5RGWKaMRSAKQb8g0EWBkUNp43CpcPIcs0H1IwzTnn2MnAolAIrBICCwEAVgkQHIuiUCNAM+K0J9RjYQSsf8hkAQg34RpIoCI88qNKhkc9+dFRRZqL+8055ZjJwKJQCKwbAgkAVi2J5bznRkC8g/EHgudSlkfgSQA62OUV2wMAWGecnRGJfUiCcITVRrr6g2ysRnkpxOBRCAR2BwIJAHYHM8xV5EIzB2BJABzfwQrMQFFDoRbyjOqE2eFUgrHVD1MzlOETq4EKLnIRCARSAR6IpAEoCdgeXkikAh0I5AEIN+MWSEg/0l5YMUL5GnJ+VJMQf6SfC3FD1ISgUQgEUgEhiOQBCDfjkQgEZgIAkkAJgJjDpIIJAKJQCKQCEwdgSQAU4c4b5AIrAYCSQBW4znnKhOBRCARSASWH4EkAMv/DHMFicBCIJAEYCEeQ04iEUgEEoFEIBFYF4GpEoDS3e/OPetOIi9IBBKB5UfgIQcfNPi/Lf/rHJqSCCQCiUAikAgkAouLwFQJwOIuO2eWCCQCiUAikAgkAolKIacbAAAAPUlEQVRAIpAIrCYCSQBW87nnqhOBRCARSAQSgUQgEUgEVhSBJAAr+uBz2YlAIpAIJAKJQCKQCCQCq4nA/wPveWOo620AWgAAAABJRU5ErkJggg==;" vertex="1" parent="WIyWlLk6GJQsqaUBKTNV-1">
          <mxGeometry x="90" y="60" width="953.5" height="550" as="geometry" />
        </mxCell>
      </root>
    </mxGraphModel>
  </diagram>
</mxfile>
